<svg xmlns="http://www.w3.org/2000/svg" xmlns:xlink="http://www.w3.org/1999/xlink" width="309.312" height="398.666" viewBox="0 0 309.312 398.666">
  <defs>
    <linearGradient id="linear-gradient" x1="-17.88" y1="3.297" x2="-19.554" y2="5.447" gradientUnits="objectBoundingBox">
      <stop offset="0" stop-color="#3e6afa"/>
      <stop offset="0.858" stop-color="#0a0940"/>
    </linearGradient>
    <linearGradient id="linear-gradient-2" x1="1" y1="0.5" x2="0" y2="0.5" gradientUnits="objectBoundingBox">
      <stop offset="0.215" stop-color="#97b4fb"/>
      <stop offset="1" stop-color="#cddbfd"/>
    </linearGradient>
    <linearGradient id="linear-gradient-3" x1="-25.794" y1="2.212" x2="-27.194" y2="2.212" gradientUnits="objectBoundingBox">
      <stop offset="0.025" stop-color="#eebe2d" stop-opacity="0.906"/>
      <stop offset="1" stop-color="#e48a20"/>
    </linearGradient>
  </defs>
  <g id="Group_18" data-name="Group 18" transform="translate(0 0.031)">
    <g id="Group_15" data-name="Group 15" transform="translate(0 150.367)">
      <path id="Path_68" data-name="Path 68" d="M430.341,390.954c-4.816-1.944-10.587-3.151-14.756.155a13.316,13.316,0,0,0-4.056,6.324c-4.5,13.573,5.48,27.83,16.366,35.775s23.926,13.649,30.921,25.85c-9.895,5.538-22.26-1.947-32.786,1.9C418.5,463.7,413.292,472.4,413.243,481.2a26.586,26.586,0,0,0,11.5,21.768c15.074,10.02,34.479.79,51.857,3.652,4.71.775,9.5,2.611,12.721,6.5S493.7,523.33,491,527.682c-5.782,9.316-22.445,3.045-26.815,13.263-1.882,4.4-.008,9.915,3.323,13.087s7.776,4.463,12.1,5.27a73.865,73.865,0,0,0,30.882-.832c3.7-.895,7.426-2.085,11.2-1.733s7.7,2.672,8.866,6.669c3.507,11.993-18.8,20.039-14.238,31.584,2.641,6.68,11.351,5.659,17.631,3.514l44.347-15.143c8.041-2.747,16.931-6.263,20.658-14.638,1.916-4.3,2.13-9.268,2.2-14.068a318.051,318.051,0,0,0-8.567-78.06c-1.345-5.653-3.036-11.6-7.052-15.377s-11.083-4.111-13.926.809c-1.841,3.187-3.2,8.752-6.4,7.453-1.5-.608-2.084-2.585-2.453-4.314-5.75-26.935-8.126-57.359-26.391-76.2-1.712-1.764-3.636-3.447-5.922-3.971-5.928-1.356-10.922,5.682-11.739,12.339s.857,13.45.119,20.119-5.516,13.816-11.487,12.721a103.8,103.8,0,0,0-23.8-48.7c-4.663-5.238-12.726-9.844-17.281-4.486-2.478,2.917-2.425,7.438-1.982,11.419a100.22,100.22,0,0,0,6.129,25.116c1.517,3.912,4.893,12.844-1.069,13.029-3.234.1-8.936-11.845-10.892-14.294A69.8,69.8,0,0,0,430.341,390.954Z" transform="translate(-410.424 -374.598)" fill="url(#linear-gradient)"/>
      <g id="Group_11" data-name="Group 11" transform="translate(4.882 25.95)">
        <path id="Path_69" data-name="Path 69" d="M500.535,402.712a10.156,10.156,0,0,0,2.656,1.718,3.187,3.187,0,0,0,2.974-.235,1.127,1.127,0,0,0,.452-.559,1.505,1.505,0,0,0-.229-1.1c-1.526-2.934-3.94-5.15-6.308-7.29a6.719,6.719,0,0,0-2.294-1.559,2.176,2.176,0,0,0-2.472.7c-.8,1.161-.157,2.864.708,3.969A29.213,29.213,0,0,0,500.535,402.712Z" transform="translate(-480.655 -379.768)" fill="#97b4fb"/>
        <path id="Path_70" data-name="Path 70" d="M502.923,393.874a.832.832,0,0,0,1.233-.233,1.4,1.4,0,0,0,.1-.48,6.633,6.633,0,0,0-1.462-4.7c-.286-.339-.692-.662-1.088-.513a1.03,1.03,0,0,0-.526.652,3.423,3.423,0,0,0-.013,2.058A7.357,7.357,0,0,0,502.923,393.874Z" transform="translate(-489.753 -385.964)" fill="#97b4fb"/>
        <path id="Path_71" data-name="Path 71" d="M496.715,401.238a.567.567,0,0,0-.675.471.9.9,0,0,0,.045.308,3.865,3.865,0,0,0,1.893,2.376.659.659,0,0,0,.755.008.728.728,0,0,0,.166-.528,2.086,2.086,0,0,0-.443-1.215A4.18,4.18,0,0,0,496.715,401.238Z" transform="translate(-474.966 -371.38)" fill="#97b4fb"/>
        <path id="Path_72" data-name="Path 72" d="M485.37,407.488a.658.658,0,0,0-.263.836.723.723,0,0,0,.21.209,3.271,3.271,0,0,0,2.815.541c.257-.073.547-.226.594-.517a.724.724,0,0,0-.166-.526,1.738,1.738,0,0,0-1.031-.641A3.726,3.726,0,0,0,485.37,407.488Z" transform="translate(-443.995 -364.752)" fill="#97b4fb"/>
        <path id="Path_73" data-name="Path 73" d="M507.009,390.868c-.028-.331-.293-.662-.588-.6a.737.737,0,0,0-.256.132,4,4,0,0,0-1.562,2.655.853.853,0,0,0,.191.811.555.555,0,0,0,.5.038,1.813,1.813,0,0,0,.94-.8A4.9,4.9,0,0,0,507.009,390.868Z" transform="translate(-499.243 -383.394)" fill="#97b4fb"/>
        <path id="Path_74" data-name="Path 74" d="M485.159,407.769a1.83,1.83,0,0,0,1.371-1.006,3.608,3.608,0,0,0,.164-2.24,7.139,7.139,0,0,0-1.139-2.841,2.375,2.375,0,0,0-1.576-1.111,2.345,2.345,0,0,0-1.725.765,3.253,3.253,0,0,0-1.078,1.792,3.018,3.018,0,0,0,.635,2.25C482.485,406.269,484.024,407.9,485.159,407.769Z" transform="translate(-434.692 -372.106)" fill="#97b4fb"/>
        <path id="Path_75" data-name="Path 75" d="M491.442,407.891a2.84,2.84,0,0,0,2.173-1.517,5.158,5.158,0,0,0,.575-2.841,2.812,2.812,0,0,0-.626-1.8,1.711,1.711,0,0,0-1.875-.331,3.35,3.35,0,0,0-1.5,1.41,6.226,6.226,0,0,0-.821,2.229C489.14,406.433,490.089,407.982,491.442,407.891Z" transform="translate(-457.59 -371.341)" fill="#97b4fb"/>
        <path id="Path_76" data-name="Path 76" d="M492.371,399.881a.874.874,0,0,0,.67-.467,1.582,1.582,0,0,0,.176-.874.856.856,0,0,0-.193-.551.526.526,0,0,0-.575-.1,1.034,1.034,0,0,0-.462.434,1.917,1.917,0,0,0-.252.685C491.665,399.433,491.957,399.908,492.371,399.881Z" transform="translate(-461.129 -375.087)" fill="#97b4fb"/>
        <path id="Path_77" data-name="Path 77" d="M502.547,400.182a.872.872,0,0,0,.668-.465,1.6,1.6,0,0,0,.178-.874.878.878,0,0,0-.193-.551.528.528,0,0,0-.577-.1,1.028,1.028,0,0,0-.46.434,1.92,1.92,0,0,0-.253.685C501.84,399.733,502.131,400.209,502.547,400.182Z" transform="translate(-490.55 -374.755)" fill="#97b4fb"/>
        <path id="Path_78" data-name="Path 78" d="M505.177,395.767a.955.955,0,0,0-.543-.652,1.2,1.2,0,0,0-.817-.031.746.746,0,0,0-.458.316.7.7,0,0,0,.017.656,1.034,1.034,0,0,0,.475.427,1.5,1.5,0,0,0,.662.151A.72.72,0,0,0,505.177,395.767Z" transform="translate(-494.972 -378.171)" fill="#97b4fb"/>
        <path id="Path_79" data-name="Path 79" d="M506.814,394.6a.427.427,0,0,0,.329-.228.787.787,0,0,0,.089-.432.421.421,0,0,0-.1-.272.255.255,0,0,0-.284-.05.505.505,0,0,0-.227.214.918.918,0,0,0-.125.337C506.466,394.382,506.61,394.617,506.814,394.6Z" transform="translate(-503.081 -379.738)" fill="#97b4fb"/>
        <path id="Path_80" data-name="Path 80" d="M503.133,394.23a.427.427,0,0,0,.329-.23.779.779,0,0,0,.087-.432.416.416,0,0,0-.094-.27.255.255,0,0,0-.284-.05.5.5,0,0,0-.227.212.929.929,0,0,0-.125.339C502.785,394.008,502.929,394.243,503.133,394.23Z" transform="translate(-492.435 -380.145)" fill="#97b4fb"/>
        <path id="Path_81" data-name="Path 81" d="M507.768,391.825a.427.427,0,0,0,.329-.23.776.776,0,0,0,.087-.43.419.419,0,0,0-.095-.272.255.255,0,0,0-.284-.05.5.5,0,0,0-.229.214.936.936,0,0,0-.123.337C507.419,391.605,507.562,391.84,507.768,391.825Z" transform="translate(-505.838 -382.779)" fill="#97b4fb"/>
        <path id="Path_82" data-name="Path 82" d="M505.6,389.045a.887.887,0,0,0,.677-.471,1.606,1.606,0,0,0,.178-.884.862.862,0,0,0-.195-.559.534.534,0,0,0-.583-.1,1.049,1.049,0,0,0-.467.44,1.926,1.926,0,0,0-.255.694C504.889,388.59,505.182,389.072,505.6,389.045Z" transform="translate(-499.386 -386.983)" fill="#97b4fb"/>
        <path id="Path_83" data-name="Path 83" d="M508.546,390.13a.877.877,0,0,0,.67-.465,1.59,1.59,0,0,0,.176-.874.862.862,0,0,0-.193-.553.521.521,0,0,0-.575-.1,1.022,1.022,0,0,0-.462.434,1.919,1.919,0,0,0-.252.683C507.84,389.681,508.132,390.157,508.546,390.13Z" transform="translate(-507.9 -385.767)" fill="#97b4fb"/>
      </g>
      <g id="Group_12" data-name="Group 12" transform="translate(9.034 102.057)">
        <path id="Path_84" data-name="Path 84" d="M497.843,434.722a9.317,9.317,0,0,0,3.047.44,3.389,3.389,0,0,0,2.659-1.5,1.25,1.25,0,0,0,.221-.71,1.394,1.394,0,0,0-.594-.912c-2.432-2.047-5.431-3.051-8.361-4a6.145,6.145,0,0,0-2.661-.448,2.371,2.371,0,0,0-2.034,1.708c-.335,1.414.855,2.707,2.039,3.353A26.242,26.242,0,0,0,497.843,434.722Z" transform="translate(-472.692 -418.636)" fill="#97b4fb"/>
        <path id="Path_85" data-name="Path 85" d="M502.136,428.427a.89.89,0,0,0,1.055-.746,1.369,1.369,0,0,0-.076-.484,6.02,6.02,0,0,0-2.991-3.7,1.027,1.027,0,0,0-1.18,0,1.127,1.127,0,0,0-.257.828,3.282,3.282,0,0,0,.707,1.9A6.553,6.553,0,0,0,502.136,428.427Z" transform="translate(-488.423 -423.306)" fill="#97b4fb"/>
        <path id="Path_86" data-name="Path 86" d="M489.9,433.656a.624.624,0,0,0-.458.725.83.83,0,0,0,.149.264,3.448,3.448,0,0,0,2.576,1.375.686.686,0,0,0,.7-.316.756.756,0,0,0-.03-.559,1.892,1.892,0,0,0-.834-.928A3.792,3.792,0,0,0,489.9,433.656Z" transform="translate(-460.609 -412)" fill="#97b4fb"/>
        <path id="Path_87" data-name="Path 87" d="M477.37,435.829a.675.675,0,0,0,.049.884.687.687,0,0,0,.267.1,3.3,3.3,0,0,0,2.784-.716.82.82,0,0,0,.367-.731.67.67,0,0,0-.339-.415,1.623,1.623,0,0,0-1.175-.145A3.959,3.959,0,0,0,477.37,435.829Z" transform="translate(-425.492 -410.759)" fill="#97b4fb"/>
        <path id="Path_88" data-name="Path 88" d="M503.416,426.863c-.142-.293-.5-.482-.751-.3a.83.83,0,0,0-.191.23,4.319,4.319,0,0,0-.511,3.122c.062.287.2.608.46.662a.574.574,0,0,0,.477-.18,2.034,2.034,0,0,0,.586-1.138A5.076,5.076,0,0,0,503.416,426.863Z" transform="translate(-494.837 -419.816)" fill="#97b4fb"/>
        <path id="Path_89" data-name="Path 89" d="M480.793,433.536a2.042,2.042,0,0,0,.912-1.515,3.505,3.505,0,0,0-.632-2.137,6.349,6.349,0,0,0-2.041-2.127,2.191,2.191,0,0,0-1.842-.346,2.615,2.615,0,0,0-1.32,1.448,3.491,3.491,0,0,0-.367,2.114,2.752,2.752,0,0,0,1.369,1.8C477.8,433.308,479.795,434.152,480.793,433.536Z" transform="translate(-423.006 -418.904)" fill="#97b4fb"/>
        <path id="Path_90" data-name="Path 90" d="M486.1,437.594a3.2,3.2,0,0,0,1.474-2.336,5.19,5.19,0,0,0-.463-2.866A2.549,2.549,0,0,0,485.909,431a1.729,1.729,0,0,0-1.844.5,3.755,3.755,0,0,0-.889,1.944,6.489,6.489,0,0,0,.021,2.41C483.473,437.24,484.888,438.258,486.1,437.594Z" transform="translate(-443.321 -414.983)" fill="#97b4fb"/>
        <path id="Path_91" data-name="Path 91" d="M488,430.535a.977.977,0,0,0,.454-.717,1.626,1.626,0,0,0-.142-.882.791.791,0,0,0-.371-.425.534.534,0,0,0-.568.155,1.143,1.143,0,0,0-.272.6,2.027,2.027,0,0,0,.006.74A.652.652,0,0,0,488,430.535Z" transform="translate(-451.734 -417.638)" fill="#97b4fb"/>
        <path id="Path_92" data-name="Path 92" d="M497.264,434.772a.985.985,0,0,0,.454-.719,1.6,1.6,0,0,0-.144-.88.793.793,0,0,0-.369-.427.533.533,0,0,0-.567.155,1.149,1.149,0,0,0-.272.6,2,2,0,0,0,.006.742A.653.653,0,0,0,497.264,434.772Z" transform="translate(-478.511 -412.999)" fill="#97b4fb"/>
        <path id="Path_93" data-name="Path 93" d="M500.651,430.812a.86.86,0,0,0-.728-.367,1.264,1.264,0,0,0-.764.325.831.831,0,0,0-.312.488.672.672,0,0,0,.244.6.951.951,0,0,0,.588.191,1.519,1.519,0,0,0,.662-.147A.781.781,0,0,0,500.651,430.812Z" transform="translate(-486.284 -415.486)" fill="#97b4fb"/>
        <path id="Path_94" data-name="Path 94" d="M502.9,431.279a.475.475,0,0,0,.223-.354.78.78,0,0,0-.07-.434.379.379,0,0,0-.182-.21.258.258,0,0,0-.28.075.555.555,0,0,0-.134.3.983.983,0,0,0,0,.365A.32.32,0,0,0,502.9,431.279Z" transform="translate(-495.45 -415.683)" fill="#97b4fb"/>
        <path id="Path_95" data-name="Path 95" d="M499.648,429.506a.494.494,0,0,0,.223-.354.8.8,0,0,0-.07-.436.382.382,0,0,0-.184-.21.258.258,0,0,0-.28.076.554.554,0,0,0-.134.3.948.948,0,0,0,0,.365A.322.322,0,0,0,499.648,429.506Z" transform="translate(-486.055 -417.627)" fill="#97b4fb"/>
        <path id="Path_96" data-name="Path 96" d="M504.849,429.09a.482.482,0,0,0,.225-.354.814.814,0,0,0-.07-.434.382.382,0,0,0-.184-.21.258.258,0,0,0-.28.075.555.555,0,0,0-.134.3.985.985,0,0,0,0,.365A.321.321,0,0,0,504.849,429.09Z" transform="translate(-501.1 -418.08)" fill="#97b4fb"/>
        <path id="Path_97" data-name="Path 97" d="M504.406,425.7a.987.987,0,0,0,.458-.727,1.609,1.609,0,0,0-.144-.893.788.788,0,0,0-.374-.432.536.536,0,0,0-.573.157,1.176,1.176,0,0,0-.278.606,2.041,2.041,0,0,0,.008.75A.66.66,0,0,0,504.406,425.7Z" transform="translate(-499.143 -422.969)" fill="#97b4fb"/>
        <path id="Path_98" data-name="Path 98" d="M506.687,427.838a.97.97,0,0,0,.452-.717,1.592,1.592,0,0,0-.142-.882.788.788,0,0,0-.369-.425.536.536,0,0,0-.567.153,1.154,1.154,0,0,0-.272.6,1.944,1.944,0,0,0,.006.74A.652.652,0,0,0,506.687,427.838Z" transform="translate(-505.756 -420.592)" fill="#97b4fb"/>
      </g>
      <g id="Group_13" data-name="Group 13" transform="translate(58.584 151.255)">
        <path id="Path_99" data-name="Path 99" d="M472.074,460.047a1.392,1.392,0,0,0,1.067-.446,3.236,3.236,0,0,0,.429-2.16,3.273,3.273,0,0,0-.119-.731,1.5,1.5,0,0,0-.429-.689,5.049,5.049,0,0,0-3.67-1.4.925.925,0,0,0-.948.329,3.261,3.261,0,0,0-.18,2.183,3.666,3.666,0,0,0,1.528,2.581A4.191,4.191,0,0,0,472.074,460.047Z" transform="translate(-450.569 -438.22)" fill="#97b4fb"/>
        <path id="Path_100" data-name="Path 100" d="M478.208,456.066a.981.981,0,0,0,.7-1.152,1.247,1.247,0,0,0-.244-.409,5.361,5.361,0,0,0-4.078-2.054,1.079,1.079,0,0,0-1.084.522,1.173,1.173,0,0,0,.066.874,2.945,2.945,0,0,0,1.335,1.425A5.919,5.919,0,0,0,478.208,456.066Z" transform="translate(-465.96 -440.58)" fill="#97b4fb"/>
        <path id="Path_101" data-name="Path 101" d="M461.551,458.313a.67.67,0,0,0-.159.867.736.736,0,0,0,.234.176,3.24,3.24,0,0,0,2.854.107.766.766,0,0,0,.526-.6.713.713,0,0,0-.231-.5,1.686,1.686,0,0,0-1.1-.48A3.768,3.768,0,0,0,461.551,458.313Z" transform="translate(-429.053 -434.637)" fill="#97b4fb"/>
        <path id="Path_102" data-name="Path 102" d="M449.918,455.915c-.076.323.07.731.365.788a.678.678,0,0,0,.282-.025,3.621,3.621,0,0,0,2.289-1.9.868.868,0,0,0,.072-.832.585.585,0,0,0-.46-.228,1.648,1.648,0,0,0-1.129.39A4.444,4.444,0,0,0,449.918,455.915Z" transform="translate(-395.5 -439.196)" fill="#97b4fb"/>
        <path id="Path_103" data-name="Path 103" d="M476.37,456.192a.527.527,0,0,0-.8.061.868.868,0,0,0-.091.3,4.3,4.3,0,0,0,.662,3.086c.161.235.4.469.66.4a.637.637,0,0,0,.371-.377,2.172,2.172,0,0,0,.125-1.3A4.78,4.78,0,0,0,476.37,456.192Z" transform="translate(-468.124 -436.649)" fill="#97b4fb"/>
        <path id="Path_104" data-name="Path 104" d="M456.689,451.31a2.209,2.209,0,0,0,.286-1.8,3.167,3.167,0,0,0-1.351-1.672,5.68,5.68,0,0,0-2.639-1.039,2.213,2.213,0,0,0-1.812.507,2.919,2.919,0,0,0-.687,1.915,3.494,3.494,0,0,0,.429,2.1,2.453,2.453,0,0,0,1.909,1.039C453.869,452.433,456,452.318,456.689,451.31Z" transform="translate(-400.64 -446.786)" fill="#97b4fb"/>
        <path id="Path_105" data-name="Path 105" d="M460.367,458.736a3.457,3.457,0,0,0,.505-2.8,4.8,4.8,0,0,0-1.462-2.418,2.259,2.259,0,0,0-1.606-.731,1.892,1.892,0,0,0-1.508,1.282,3.962,3.962,0,0,0-.108,2.179,6.189,6.189,0,0,0,.891,2.2A2.013,2.013,0,0,0,460.367,458.736Z" transform="translate(-415.168 -440.211)" fill="#97b4fb"/>
        <path id="Path_106" data-name="Path 106" d="M468.935,455.493a3.454,3.454,0,0,0,.505-2.8,4.8,4.8,0,0,0-1.462-2.418,2.268,2.268,0,0,0-1.606-.731,1.894,1.894,0,0,0-1.506,1.282,3.962,3.962,0,0,0-.11,2.179,6.171,6.171,0,0,0,.891,2.2A2.013,2.013,0,0,0,468.935,455.493Z" transform="translate(-439.947 -443.765)" fill="#97b4fb"/>
        <path id="Path_107" data-name="Path 107" d="M462.635,453.724a1.064,1.064,0,0,0,.155-.859,1.466,1.466,0,0,0-.45-.742.69.69,0,0,0-.492-.224.579.579,0,0,0-.463.394,1.214,1.214,0,0,0-.034.668,1.888,1.888,0,0,0,.274.675A.618.618,0,0,0,462.635,453.724Z" transform="translate(-426.916 -441.186)" fill="#97b4fb"/>
        <path id="Path_108" data-name="Path 108" d="M469.414,461.336a1.066,1.066,0,0,0,.155-.859,1.482,1.482,0,0,0-.45-.744.7.7,0,0,0-.492-.224.583.583,0,0,0-.464.394,1.222,1.222,0,0,0-.034.67,1.9,1.9,0,0,0,.274.675A.618.618,0,0,0,469.414,461.336Z" transform="translate(-446.521 -432.852)" fill="#97b4fb"/>
        <path id="Path_109" data-name="Path 109" d="M472.9,458.556a.812.812,0,0,0-.8-.01,1.41,1.41,0,0,0-.581.637.9.9,0,0,0-.11.587.606.606,0,0,0,.441.438.921.921,0,0,0,.607-.09,1.646,1.646,0,0,0,.552-.43A.79.79,0,0,0,472.9,458.556Z" transform="translate(-456.362 -434.015)" fill="#97b4fb"/>
        <path id="Path_110" data-name="Path 110" d="M475.453,460.561a.525.525,0,0,0,.077-.423.741.741,0,0,0-.221-.367.352.352,0,0,0-.244-.111.288.288,0,0,0-.229.195.605.605,0,0,0-.017.329.922.922,0,0,0,.136.333A.3.3,0,0,0,475.453,460.561Z" transform="translate(-465.149 -432.685)" fill="#97b4fb"/>
        <path id="Path_111" data-name="Path 111" d="M473.19,457.627a.53.53,0,0,0,.078-.425.736.736,0,0,0-.221-.367.349.349,0,0,0-.244-.109.286.286,0,0,0-.229.193.614.614,0,0,0-.017.331.939.939,0,0,0,.136.333A.305.305,0,0,0,473.19,457.627Z" transform="translate(-458.606 -435.899)" fill="#97b4fb"/>
        <path id="Path_112" data-name="Path 112" d="M478.12,459.344a.525.525,0,0,0,.078-.423.732.732,0,0,0-.223-.367.344.344,0,0,0-.242-.111.285.285,0,0,0-.229.195.6.6,0,0,0-.017.329.922.922,0,0,0,.136.333A.3.3,0,0,0,478.12,459.344Z" transform="translate(-472.861 -434.018)" fill="#97b4fb"/>
        <path id="Path_113" data-name="Path 113" d="M479.606,455.9a1.075,1.075,0,0,0,.157-.87,1.511,1.511,0,0,0-.456-.754.709.709,0,0,0-.5-.226.586.586,0,0,0-.469.4,1.252,1.252,0,0,0-.034.679,1.9,1.9,0,0,0,.278.683A.627.627,0,0,0,479.606,455.9Z" transform="translate(-475.961 -438.832)" fill="#97b4fb"/>
        <path id="Path_114" data-name="Path 114" d="M480.822,458.785a1.059,1.059,0,0,0,.155-.859,1.476,1.476,0,0,0-.448-.742.7.7,0,0,0-.494-.226.586.586,0,0,0-.464.394,1.222,1.222,0,0,0-.034.67,1.921,1.921,0,0,0,.274.675A.618.618,0,0,0,480.822,458.785Z" transform="translate(-479.507 -435.646)" fill="#97b4fb"/>
      </g>
      <g id="Group_14" data-name="Group 14" transform="translate(58.153 53.868)">
        <path id="Path_115" data-name="Path 115" d="M406.275,412.749c48.155,37.137,91.072,82.6,126.845,134.176" transform="translate(-392.667 -386.679)" fill="none" stroke="#cddbfd" stroke-linecap="round" stroke-linejoin="round" stroke-width="0.662"/>
        <path id="Path_116" data-name="Path 116" d="M445.557,431.416c8.572,17.89,12.286,35.389,2.907,52.772-1.562,2.9-14.319,11.945-28.146,12.471" transform="translate(-340.075 -366.234)" fill="none" stroke="#cddbfd" stroke-linecap="round" stroke-linejoin="round" stroke-width="0.662"/>
        <path id="Path_117" data-name="Path 117" d="M463.517,410.918c12.057,18.145,10.861,45.652-2.712,62.425-4.2,5.192-9.917,9.565-16.2,9.366" transform="translate(-403.874 -388.685)" fill="none" stroke="#cddbfd" stroke-linecap="round" stroke-linejoin="round" stroke-width="0.662"/>
        <path id="Path_118" data-name="Path 118" d="M484.445,400.307a82.116,82.116,0,0,1,8.395,23.45c1.345,6.894,1.638,14.763-2.294,20.3a16.791,16.791,0,0,1-11.576,6.529c-4.407.612-8.868-.057-13.267-.723" transform="translate(-465.702 -400.307)" fill="none" stroke="#cddbfd" stroke-linecap="round" stroke-linejoin="round" stroke-width="0.662"/>
      </g>
    </g>
    <g id="Group_16" data-name="Group 16" transform="translate(122.717 67.366)">
      <path id="Path_119" data-name="Path 119" d="M486.179,436.827c-11.321-34.818-27.187-69.9-54.8-90.649-13.324-10.011-31.63-15.943-45.17-6.294-11.213,7.989-15.391,24.211-15.053,39,.427,18.7,6.548,36.624,13.415,53.7,21.87,54.388,52.1,104.538,70.547,160.468,3.588,10.879,7.214,22.7,15.751,29.37a22.587,22.587,0,0,0,27.549,0c21.473-16.766,14.559-52.594,11.713-76.434A572.85,572.85,0,0,0,486.179,436.827Z" transform="translate(-371.139 -334.984)" fill="url(#linear-gradient-2)"/>
      <path id="Path_120" data-name="Path 120" d="M380.026,336.608c35.192,44.162,59.232,98.233,75.329,154.427s24.554,114.713,31.333,173.2" transform="translate(-361.148 -333.206)" fill="none" stroke="#0a0940" stroke-linecap="round" stroke-linejoin="round" stroke-width="0.487"/>
    </g>
    <g id="Group_17" data-name="Group 17" transform="translate(215.281)">
      <path id="Path_121" data-name="Path 121" d="M423.842,605.08l-58.364-18.669s-35.472-135.075-6.068-171.47c0,0-12.872-106.8,15.064-111.895s38.3,83.166,38.3,83.166S469.874,402.265,423.842,605.08Z" transform="translate(-347.748 -302.833)" fill="url(#linear-gradient-3)"/>
      <path id="Path_122" data-name="Path 122" d="M371.565,302.935s31.441,153.178,19.581,292.507" transform="translate(-344.839 -302.722)" fill="none" stroke="#0a0940" stroke-linecap="round" stroke-linejoin="round" stroke-width="0.487"/>
    </g>
  </g>
</svg>
