<svg xmlns="http://www.w3.org/2000/svg" viewBox="0 0 101.26 66.66"><defs><style>.cls-1{fill:#fff;}.cls-2{fill:#f5fbff;}.cls-3{fill:#dff2fd;}</style></defs><g id="Layer_2" data-name="Layer 2"><g id="OBJECTS"><path class="cls-1" d="M52.26.17A23.58,23.58,0,0,0,32.81,17,22,22,0,0,0,7.33,19.86C2.94,24,.63,31.43,4.61,36c-5.21,3.81-6.19,12.22-2,17.13s12.66,5.25,17.23.7A26.33,26.33,0,0,0,40.38,66.61a31.08,31.08,0,0,0,14.85-3C56.5,63,64.45,57,62.46,55c4.22,4.33,9.62,7.75,15.6,8.6s12.56-1.19,16.24-6S98,45.24,93.64,41.05a12.86,12.86,0,0,0,7.62-11.75c-.08-4.8-3.86-10.46-8.35-12.39-2.11-.9-14.45-.36-14,3.71a22.87,22.87,0,0,0-7.72-14.4A24.34,24.34,0,0,0,52.26.17Z"/><path class="cls-2" d="M78.93,20.62a22.87,22.87,0,0,0-7.72-14.4,24.34,24.34,0,0,0-18.95-6C57.06,2,60.94,5.78,64.35,9.62a51.32,51.32,0,0,1,9.09,13.32c2.17,4.95,3.09,10.58,1.74,15.81C77.71,33.48,79.61,26.43,78.93,20.62Z"/><path class="cls-2" d="M4.61,36c-5.21,3.81-6.19,12.22-2,17.13s12.66,5.25,17.23.7A26.33,26.33,0,0,0,40.38,66.61a31.08,31.08,0,0,0,14.85-3C56.5,63,64.45,57,62.46,55c4.22,4.33,9.62,7.75,15.6,8.6s12.56-1.19,16.24-6S98,45.24,93.64,41.05a12.86,12.86,0,0,0,7.62-11.75c-.08-4.8-3.86-10.46-8.35-12.39a4.48,4.48,0,0,0-.5-.15,9.16,9.16,0,0,1,1.54,8c-1.2,3.83-6.07,6.31-9.6,4.38,3.28,9-2.62,20.2-11.91,22.58A17.63,17.63,0,0,0,68.1,33.43,22.77,22.77,0,0,1,50,50a22.73,22.73,0,0,1-22.3-10.15c-5,1-10.85,1.77-14.68-1.61-3.37-3-3.79-8.19-2.57-12.51a20.9,20.9,0,0,1,8.1-11.22A21.28,21.28,0,0,0,7.33,19.86C2.94,24,.63,31.43,4.61,36Z"/><path class="cls-3" d="M78.06,63.6c6,.85,12.56-1.19,16.24-6S98,45.24,93.64,41.05a12.86,12.86,0,0,0,7.62-11.75c-.72,5.43-5.76,9.24-11.24,9.29a17.85,17.85,0,0,1,.53,15.1C88.48,58.46,83.07,62.19,78.06,63.6Z"/><path class="cls-3" d="M62.46,55c2,2-6,8-7.23,8.65a31.08,31.08,0,0,1-14.85,3A26.33,26.33,0,0,1,19.85,53.78c-4.57,4.55-13,4.21-17.23-.7S-.6,39.76,4.61,36a16.73,16.73,0,0,0-1.28,8.28A10,10,0,0,0,6.8,51.6a9.87,9.87,0,0,0,8.56,1.62,14.74,14.74,0,0,0,7.39-4.93c1.14,5.38,5.23,9.85,10.16,12.28s10.6,3,16.09,2.64a22.33,22.33,0,0,0,7.83-1.77A12.6,12.6,0,0,0,62.46,55Z"/></g></g></svg>