<svg xmlns="http://www.w3.org/2000/svg" viewBox="0 0 134.62 65.22"><defs><style>.cls-1{fill:#fff;}.cls-2{fill:#f5fbff;}.cls-3{fill:#dff2fd;}</style></defs><g id="Layer_2" data-name="Layer 2"><g id="OBJECTS"><path class="cls-1" d="M119.23,37.85A25.07,25.07,0,0,0,82.82,19.21,30.68,30.68,0,0,0,53.94,0,30.65,30.65,0,0,0,26.4,21.08C18.62,20.64,11.33,28,11.8,35.72,5.89,33.06-1.22,40,.18,46.29s9,10,15.27,8.41a56,56,0,0,0,55.69,5.55c14.1,9.33,35.71,3.92,43.76-11-1.06,2,15.78,5.14,19-2C137.63,39.14,125.43,34.25,119.23,37.85Z"/><path class="cls-2" d="M.18,46.29c1.39,6.33,9,10,15.27,8.41a56,56,0,0,0,55.69,5.55c14.1,9.33,35.71,3.92,43.76-11-1.06,2,15.78,5.14,19-2,3.69-8.13-8.51-13-14.71-9.42a25.49,25.49,0,0,0-13.39-18.73,24.27,24.27,0,0,0-6.32-2.18,24.52,24.52,0,0,1,5.14,9.94c1.11,5.07-.51,11-5,13.69-3.11,1.85-7,1.82-10.56,1.65-4.26-.2-9.33-1.07-11-5A19.2,19.2,0,0,1,77.23,33,15.73,15.73,0,0,0,61.55,20.55c3.76.45,6.21,4.8,5.44,8.51s-4,6.54-7.56,7.8S52,38.1,48.2,37.89c-6.33-.34-13.32-1.47-17.28-6.43a10.15,10.15,0,0,1-12.45,1.6,9.91,9.91,0,0,1-3.93-5.12,3.36,3.36,0,0,1-.13-.71,13.25,13.25,0,0,0-2.61,8.49C5.89,33.06-1.22,40,.18,46.29Z"/><path class="cls-3" d="M114.9,49.3c-1.06,2,15.78,5.14,19-2,3.69-8.13-8.51-13-14.71-9.42a29.5,29.5,0,0,1,8.9.11c1.59.29,3.35.89,4,2.36a4.22,4.22,0,0,1,.27,1.93,7.1,7.1,0,0,1-3,5.6,11.2,11.2,0,0,1-5.61,1.29C121.17,49.25,117.52,49.36,114.9,49.3Z"/><path class="cls-3" d="M114.9,49.3c-8.05,14.87-29.66,20.28-43.76,11A56,56,0,0,1,15.45,54.7C9.16,56.24,1.57,52.62.18,46.29S5.89,33.06,11.8,35.72c-4.26.4-7.11,5.49-5.84,9.57a7.54,7.54,0,0,0,10.4,4.15A18.73,18.73,0,0,1,15,42.15c1.65,3.6,6.19,4.74,10.15,4.84a40.14,40.14,0,0,0,11.34-1.32,11.33,11.33,0,0,1-9.88,8.85c6.86,3.85,15,4.66,22.88,4.59,5.3,0,10.8-.52,15.4-3.15s8-8,6.92-13.15A12,12,0,0,1,74.38,57c6.34,3.4,14,3.95,21,2.3A48.89,48.89,0,0,0,114.9,49.3Z"/></g></g></svg>