<svg xmlns="http://www.w3.org/2000/svg" viewBox="0 0 277.52 137.58"><defs><style>.cls-1{fill:#fff;}.cls-2{fill:#f5fbff;}.cls-3{fill:#dff2fd;}</style></defs><g id="Layer_2" data-name="Layer 2"><g id="OBJECTS"><path class="cls-1" d="M81.84,95.67C56.69,81.8,54.46,41.78,81,28.34c3.25-1.65,8.1-4.2,11.71-4.73,1.84-.26,13.84,1.28,13.71,4,.45-9.17,7.25-17,15.17-21.65C141.43-5.75,169.84.4,183.11,19.28s9.44,47.69-8.3,62.44a17.89,17.89,0,0,1,22.06,26.44c9.33-5.39,22.66-2.09,28.39,7a74,74,0,0,1,42.63,3.54c3,1.2,6.05,2.68,8,5.27s2.38,6.55.19,8.92c-1.4,1.52-3.54,2.1-5.57,2.5-7.76,1.55-15.73,1.59-23.65,1.63l-111,.53c-3.73,0-7.59,0-11-1.52s-6.21-5-5.69-8.73c-5.41,4.28-11.79,7.59-18.65,8.34s-14.22-1.35-18.88-6.44a163.82,163.82,0,0,1-66.43,3.94c-3.64-.53-7.38-1.23-10.45-3.26s-5.34-5.69-4.66-9.3,4.14-6.22,7.74-7,7.36-.12,11,.61c-1.42-7,2.84-14.33,8.85-18.26s13.42-5.07,20.6-5.29A95.42,95.42,0,0,1,81.84,95.67Z"/><path class="cls-2" d="M7.86,113.6c-3.6.79-7.06,3.38-7.74,7s1.59,7.28,4.66,9.3,6.81,2.73,10.45,3.26a163.82,163.82,0,0,0,66.43-3.94c4.66,5.09,12,7.19,18.88,6.44s13.24-4.06,18.65-8.34c-.52,3.69,2.29,7.2,5.69,8.73s7.25,1.54,11,1.52l111-.53c7.92,0,15.89-.08,23.65-1.63,2-.4,4.17-1,5.57-2.5,2.19-2.37,1.75-6.34-.19-8.92a11.45,11.45,0,0,0-2.55-2.46c-11.25,3.28-23.66,2.09-35.35,0-4-.72-8.27-1.68-11-4.68a7.16,7.16,0,0,1-1.18-1.78l-.52.1c-5.73-9.12-19.06-12.42-28.39-7a17.89,17.89,0,0,0-22.06-26.44c13.25-11,18.74-29.91,15.13-46.62-1.7,11.5-5.71,22.72-12.85,31.84-8.45,10.77-21.64,18.24-35.32,17.86a44.78,44.78,0,0,0-23.6-33.46c6.85,5.24,7,16.63,1.16,23s-16.12,7.41-23.88,3.65-13-11.62-15.06-20c-3-12.46,1.24-22.94,7.75-33C85.57,26,83,27.32,81,28.34c-26.49,13.44-24.26,53.46.89,67.33-2.7-.91-5.43-1.71-8.2-2.38-9.11,2.4-19.22,3.91-28.22,6.36-9.52,2.59-19.09,8.47-22,17.9a42.77,42.77,0,0,0-4.62-3.34h0C15.22,113.48,11.47,112.82,7.86,113.6Z"/><path class="cls-3" d="M81.84,95.67C56.69,81.8,54.46,41.78,81,28.34c2-1,4.62-2.38,7.19-3.4C74.89,31.38,68,46.67,67.79,61.4,67.67,69,69,77.13,74,82.9c4.49,5.21,11.45,7.81,18.31,8.23S106,90,112.56,88C104.78,95.33,91.2,100.84,81.84,95.67Z"/><path class="cls-3" d="M196.87,108.16a17.89,17.89,0,0,0-22.06-26.44c5.2-1,10.17,4,11.21,9.14s-1.11,10.56-4.23,14.84a15.43,15.43,0,0,1-4.74,4.54c-2.91,1.64-6.43,1.72-9.77,1.56-7.65-.37-16.31-2.51-19.83-9.31-.67,5.24,2.92,10.33,7.55,12.89s10.1,3.06,15.38,3.17A47.51,47.51,0,0,0,185.23,117,22.11,22.11,0,0,0,196.87,108.16Z"/><path class="cls-3" d="M275.87,124c1.94,2.58,2.38,6.55.19,8.92-1.4,1.52-3.54,2.1-5.57,2.5-7.76,1.55-15.73,1.59-23.65,1.63l-111,.53c-3.73,0-7.59,0-11-1.52s-6.21-5-5.69-8.73c5.86,4.13,12.86,4.93,20,5.2,8.67.32,17.45.31,25.89-1.71s16.6-6.25,21.95-13.08a15.65,15.65,0,0,1-7,14.67c25-3.08,50.39-.19,75.61-.68C263.05,131.59,273.16,130.82,275.87,124Z"/><path class="cls-3" d="M119.19,127.33c-5.41,4.28-11.79,7.59-18.65,8.34s-14.22-1.35-18.88-6.44a163.82,163.82,0,0,1-66.43,3.94c-3.64-.53-7.38-1.23-10.45-3.26s-5.34-5.69-4.66-9.3c2.95,5.7,10.69,6.93,17.08,7.47a70.7,70.7,0,0,0,22-1.59,16.65,16.65,0,0,1-8.83-5,95.08,95.08,0,0,0,59.62-5c-.79,3.61,1.48,7.41,4.71,9.22s7.17,1.9,10.8,1.2c12-2.31,21.64-13.72,21.88-26C129.35,109.91,126.36,121.65,119.19,127.33Z"/></g></g></svg>