<svg xmlns="http://www.w3.org/2000/svg" viewBox="0 0 979 239.88"><defs><style>.cls-1{fill:#fff;}.cls-2{stroke:#000;stroke-miterlimit:10;stroke-width:8px;}</style></defs><g id="Layer_2" data-name="Layer 2"><g id="Layer_1-2" data-name="Layer 1"><path class="cls-1" d="M979,239c-278.67-76.67-557.33,78.5-836,1.84V147c278.67,77.89,557.33-76.06,836,1.84-21.33,9.06-42.67,19.53-64,31.19C936.33,198.48,957.67,218.06,979,239Z"/><path d="M198.27,220.54V191.05l4.08.71q4.65,8.24,9.29,16.39a101.08,101.08,0,0,1,5.2,10.34l.09,0c-.34-4-.43-7.58-.43-12.17V194l3.53.5v29.45l-3.79-.53q-4.59-8.13-9.2-16.35a115,115,0,0,1-5.42-10.73l-.13,0c.22,3.76.31,7.32.31,12.22v12.59Z"/><path d="M231.08,198.26a2,2,0,0,1-2.41,2.07,2.65,2.65,0,0,1-2.28-2.65,2,2,0,0,1,2.37-2.1A2.62,2.62,0,0,1,231.08,198.26Zm-4.22,26.56V203.68l3.79.47v21.14Z"/><path d="M236.41,222a10.78,10.78,0,0,0,5,2.07c2.75.28,4-1,4-2.74s-1.08-2.94-3.87-4.27c-3.74-1.75-5.5-4.05-5.5-6.58,0-3.41,2.7-5.89,7.18-5.43a11.21,11.21,0,0,1,5.11,1.81l-.94,2.7a8.91,8.91,0,0,0-4.26-1.64c-2.24-.23-3.48,1-3.48,2.52,0,1.74,1.24,2.67,3.95,4,3.62,1.76,5.46,3.76,5.46,6.9,0,3.71-2.83,6.08-7.78,5.57a12.68,12.68,0,0,1-5.85-2.08Zm4.73-19.57L237,195.77l2.93.32,2.53,4.41h.09l2.53-3.89,2.84.28q-2,2.92-4,5.84Z"/><path d="M258.51,200.88v6.06c1.81.15,3.61.28,5.42.41v2.92c-1.81-.12-3.61-.26-5.42-.4v11.38c0,2.62.73,4.16,2.84,4.32a8.5,8.5,0,0,0,2.19-.1c.06,1,.12,1.92.17,2.89a8.84,8.84,0,0,1-3.35.28,5.64,5.64,0,0,1-4.08-1.94c-1.08-1.22-1.47-3.13-1.47-5.62V209.56l-3.22-.28v-2.92l3.22.28v-5.06Z"/><path d="M279.71,229.4l-.3-2.67h-.13a7.24,7.24,0,0,1-6.36,2.8,6.43,6.43,0,0,1-6.37-6.46c0-5.11,4.47-7.57,12.51-7.11v-.44c0-1.74-.47-4.89-4.73-5.13a9.87,9.87,0,0,0-5.41,1.24c-.29-.86-.58-1.73-.86-2.59a12.4,12.4,0,0,1,6.83-1.45c6.37.35,7.92,4.8,7.92,9v7.89a30.18,30.18,0,0,0,.34,5.07Zm-.56-10.79c-4.13-.29-8.81.16-8.81,4.26a3.61,3.61,0,0,0,3.56,3.87,4.85,4.85,0,0,0,5-3.26,4.16,4.16,0,0,0,.21-1.21Z"/><path d="M298,214.71c0-2.17,0-4-.18-5.71l3.36.09.21,3.48h.09a7.51,7.51,0,0,1,6.88-3.84c2.88,0,7.35,1.81,7.35,9v12.57l-3.78,0V218.18c0-3.4-1.25-6.23-4.82-6.28a5.26,5.26,0,0,0-5.07,3.82,5.61,5.61,0,0,0-.26,1.78v12.67l-3.78-.09Z"/><path d="M324,220.5c.08,5.18,3.35,7.29,7.14,7.24a13.49,13.49,0,0,0,5.76-1.18c.21.91.43,1.82.64,2.73a16.77,16.77,0,0,1-6.92,1.42c-6.41.08-10.23-4.2-10.23-10.54s3.69-11.35,9.76-11.41c6.79-.09,8.6,5.89,8.6,9.77a15.15,15.15,0,0,1-.13,1.78Q331.32,220.46,324,220.5Zm11.09-2.86c.05-2.44-1-6.19-5.24-6.14-3.83,0-5.51,3.61-5.81,6.26C327.73,217.75,331.41,217.7,335.09,217.64Z"/><path d="M352.55,214.4c0-2.17,0-4-.17-5.68l3.31-.12c.06,1.12.11,2.25.17,3.38H356a7.56,7.56,0,0,1,6.54-4.13,5.83,5.83,0,0,1,5.89,3.93h.08a9.47,9.47,0,0,1,2.32-2.85,7.47,7.47,0,0,1,4.61-1.72c2.75-.16,6.83,1.41,6.83,8.7v12.36l-3.7.23V216.59c0-4-1.46-6.37-4.51-6.2a5.26,5.26,0,0,0-4.47,3.71,6.55,6.55,0,0,0-.3,1.92v13l-3.7.18V216.59c0-3.34-1.46-5.7-4.34-5.57a5.47,5.47,0,0,0-4.69,4,5.33,5.33,0,0,0-.3,1.88v12.68l-3.7.14Z"/><path d="M407.25,215.76c0,7.75-5.34,11.57-10.37,12-5.63.43-10-3.45-10-10.09,0-7,4.56-11.43,10.32-11.86C403.2,205.31,407.25,209.35,407.25,215.76Zm-16.52,1.47c0,4.6,2.63,7.89,6.32,7.61s6.33-3.92,6.33-8.64c0-3.55-1.77-7.91-6.24-7.58S390.73,213.24,390.73,217.23Z"/><path d="M409.35,224l9.42-13.17c.9-1.2,1.76-2.28,2.71-3.49v-.09q-5.64.53-11.27,1V205.2q7.94-.66,15.87-1.42c0,.79,0,1.59,0,2.38q-4.65,6.53-9.29,13c-.86,1.25-1.72,2.37-2.67,3.53v.09q6.09-.54,12.17-1.12v3q-8.44.81-16.9,1.53ZM417,201.76l-4.12-5.83,2.92-.26c.85,1.3,1.69,2.6,2.54,3.89h.08l2.54-4.35,2.84-.26-4,6.56Z"/><path d="M431.93,214.37c.08,5.14,3.35,6.94,7.14,6.55a14.46,14.46,0,0,0,5.76-1.69c.21.88.43,1.77.64,2.65a17.8,17.8,0,0,1-6.92,2c-6.41.67-10.23-3.21-10.23-9.53s3.69-11.64,9.76-12.26c6.79-.7,8.6,5.1,8.6,8.95a15.36,15.36,0,0,1-.13,1.79Q439.25,213.65,431.93,214.37ZM443,210.51c.05-2.42-1-6.07-5.24-5.64-3.83.39-5.51,4.1-5.81,6.77Q437.51,211.1,443,210.51Z"/><path d="M478.45,188.28v25.25c0,1.86.05,4,.18,5.38l-3.4.41c-.06-1.2-.12-2.4-.17-3.6H475a8.92,8.92,0,0,1-7.09,5c-5,.6-8.91-3.24-8.91-9.59,0-7,4.26-11.71,9.34-12.31,3.18-.38,5.33.88,6.27,2.45h.09V188.74ZM474.67,207a6.48,6.48,0,0,0-.17-1.58,4.83,4.83,0,0,0-5.46-3.75c-3.92.47-6.24,4.19-6.24,8.81,0,4.23,2.07,7.5,6.15,7a6.64,6.64,0,0,0,5.55-5.2,6.82,6.82,0,0,0,.17-1.66Z"/><path d="M496.26,216.68l-.31-2.59-.12,0a9.06,9.06,0,0,1-6.37,3.92c-4.21.53-6.36-2.18-6.36-5.2,0-5.05,4.47-8.36,12.51-9.35v-.43c0-1.73-.47-4.77-4.73-4.23a11.76,11.76,0,0,0-5.42,2.23c-.28-.79-.57-1.59-.86-2.39a14.52,14.52,0,0,1,6.84-2.72c6.36-.8,7.91,3.35,7.91,7.53v7.81a28.36,28.36,0,0,0,.35,4.95Zm-.56-10.58c-4.13.44-8.82,1.77-8.82,5.82a2.92,2.92,0,0,0,3.57,3.18,6.12,6.12,0,0,0,5-4.14,4.27,4.27,0,0,0,.22-1.24Z"/><path d="M512.21,212.38l9.41-13.54c.91-1.24,1.77-2.35,2.71-3.6v-.09l-11.26,1.52v-3.06l15.86-2.14c0,.79,0,1.59,0,2.38l-9.29,13.36c-.86,1.28-1.72,2.43-2.66,3.63v.09l12.17-1.65v3q-8.46,1.16-16.9,2.29Z"/><path d="M544.5,210.17l-.3-2.58h-.13a9.15,9.15,0,0,1-6.36,4c-4.22.59-6.37-2.09-6.37-5.11,0-5,4.47-8.4,12.52-9.46v-.44c0-1.72-.48-4.75-4.73-4.16a11.65,11.65,0,0,0-5.42,2.29c-.29-.8-.58-1.59-.86-2.38a14.54,14.54,0,0,1,6.83-2.79c6.37-.87,7.92,3.26,7.92,7.43v7.79a28.23,28.23,0,0,0,.34,4.94Zm-.56-10.55c-4.13.48-8.81,1.86-8.81,5.9a2.88,2.88,0,0,0,3.57,3.13,6.18,6.18,0,0,0,5-4.18,4.24,4.24,0,0,0,.21-1.24Z"/><path d="M571.12,200.79c0,2.15,0,4,.17,5.65l-3.35.47c-.08-1.12-.15-2.24-.22-3.37l-.09,0a9.31,9.31,0,0,1-6.88,4.82c-3.26.46-7.18-.8-7.18-8.12V188.09l3.79-.52v11.52c0,4,1.2,6.46,4.64,6a6.56,6.56,0,0,0,5-4.13,6.11,6.11,0,0,0,.34-2V186.19l3.79-.53Z"/><path d="M576.88,201.8a9.12,9.12,0,0,0,5,.81c2.75-.38,4-1.93,4-3.65s-1.08-2.64-3.87-3.29c-3.74-.81-5.5-2.63-5.5-5.12,0-3.36,2.7-6.48,7.18-7.09a9.6,9.6,0,0,1,5.11.59c-.31,1-.63,1.91-.94,2.87a7.51,7.51,0,0,0-4.26-.62c-2.24.31-3.48,1.77-3.48,3.32,0,1.72,1.24,2.32,4,3,3.62.87,5.46,2.43,5.46,5.52,0,3.65-2.83,6.61-7.78,7.3a11.09,11.09,0,0,1-5.85-.61C576.25,203.81,576.56,202.8,576.88,201.8Z"/><path d="M599,175.89v6l5.42-.73V184l-5.42.73v11.2c0,2.58.73,3.94,2.84,3.65A9,9,0,0,0,604,199c.06.93.12,1.87.17,2.81a10.14,10.14,0,0,1-3.35,1,4.69,4.69,0,0,1-4.08-1c-1.08-1-1.47-2.76-1.47-5.21V185.23l-3.22.44v-2.88l3.22-.44v-5Z"/><path d="M620.18,199.79l-.3-2.57h-.13a9.07,9.07,0,0,1-6.36,3.93c-4.22.56-6.37-2.11-6.37-5.11,0-5,4.47-8.37,12.51-9.38v-.43c0-1.71-.47-4.74-4.72-4.18a11.61,11.61,0,0,0-5.42,2.26c-.29-.79-.58-1.58-.86-2.37a14.4,14.4,0,0,1,6.83-2.75c6.37-.83,7.92,3.3,7.92,7.46v7.76a28.26,28.26,0,0,0,.34,4.93Zm-.56-10.51c-4.13.45-8.81,1.8-8.81,5.83a2.88,2.88,0,0,0,3.56,3.13,6.17,6.17,0,0,0,5-4.13,4.6,4.6,0,0,0,.21-1.23Z"/><path d="M630.5,177.72l4.08,11.14a46.59,46.59,0,0,1,1.68,5.1l.13,0c.47-1.77,1.08-3.56,1.76-5.53l4.05-12.15,3.95-.49q-4.08,10.86-8.17,21.74l-3.61.46q-4-9.87-7.91-19.74Z"/><path d="M653.93,169a2.56,2.56,0,0,1-2.4,2.6,2,2,0,0,1-2.28-2,2.66,2.66,0,0,1,2.36-2.64A2,2,0,0,1,653.93,169Zm-4.21,27V175.34l3.78-.44v20.71Z"/><path d="M686.87,161.57v25c0,1.84,0,3.93.17,5.32l-3.39.35-.18-3.57h-.08a8.81,8.81,0,0,1-7.1,4.81c-5,.54-8.9-3.26-8.9-9.55,0-6.88,4.26-11.6,9.33-12.14,3.19-.33,5.34.94,6.28,2.51h.09V162ZM683.09,180a6.27,6.27,0,0,0-.17-1.56,4.9,4.9,0,0,0-5.47-3.79c-3.91.41-6.23,4.09-6.23,8.67,0,4.19,2.06,7.42,6.15,7a6.52,6.52,0,0,0,5.55-5.08,6.61,6.61,0,0,0,.17-1.64Z"/><path d="M712,179.07c0,7.64-5.33,11.42-10.36,11.89-5.63.52-10-3.15-10-9.69,0-6.92,4.56-11.43,10.32-12C707.94,168.77,712,172.75,712,179.07Zm-16.51,1.7c0,4.53,2.62,7.7,6.32,7.35s6.32-3.94,6.32-8.59c0-3.5-1.76-7.79-6.23-7.39S695.47,176.84,695.47,180.77Z"/><path d="M716.58,189.19c.09-1.42.18-3.52.18-5.35v-25l3.74-.29v13h.08a8.46,8.46,0,0,1,7.1-4.33c5.16-.37,8.81,3.66,8.77,9.93,0,7.38-4.69,11.35-9.33,11.7-3,.22-5.42-.75-7-3.35H720c0,1.14-.11,2.28-.17,3.42Zm3.92-8.6a6.57,6.57,0,0,0,.17,1.36,5.32,5.32,0,0,0,5.67,4c4-.29,6.33-3.65,6.33-8.39,0-4.13-2.15-7.53-6.2-7.23a6.61,6.61,0,0,0-5.76,5,8,8,0,0,0-.21,1.55Z"/><path d="M741.22,173.21c0-2.42,0-4.51-.17-6.42l3.31-.2c0,1.35.09,2.7.13,4h.17a6.71,6.71,0,0,1,5.76-4.84,4.06,4.06,0,0,1,1.08.08v3.53a6.49,6.49,0,0,0-1.29-.06c-2.67.14-4.56,2.26-5.08,5.1a11.42,11.42,0,0,0-.17,1.76v11l-3.74.23Z"/><path d="M772.7,180.29c0,2.13,0,4,.17,5.61l-3.35.12c-.08-1.12-.15-2.24-.22-3.36h-.08a8.28,8.28,0,0,1-6.88,4.11c-3.27.14-7.19-1.46-7.19-8.7V166l3.79-.17v11.41c0,3.92,1.2,6.5,4.64,6.36a5.78,5.78,0,0,0,5-3.6,5.43,5.43,0,0,0,.34-1.93V165.43l3.79-.12Z"/><path d="M792.3,159.1a2.25,2.25,0,0,1-2.4,2.33,2.2,2.2,0,0,1-2.28-2.26,2.34,2.34,0,0,1,2.36-2.38A2.2,2.2,0,0,1,792.3,159.1Zm-4.21,26.43V164.94l3.79-.05v20.58Z"/><path d="M816.13,155.35V180.2c0,1.82,0,3.91.17,5.31l-3.4,0c0-1.19-.11-2.38-.17-3.57h-.09a7.68,7.68,0,0,1-7.09,4c-5,0-8.9-4.19-8.9-10.44,0-6.85,4.26-11.09,9.33-11.07a7,7,0,0,1,6.28,3.2h.08V155.29Zm-3.79,17.91a6.51,6.51,0,0,0-.17-1.57,5.6,5.6,0,0,0-5.46-4.38c-3.91,0-6.23,3.39-6.23,7.94,0,4.17,2.06,7.6,6.14,7.61a5.63,5.63,0,0,0,5.55-4.42,6.27,6.27,0,0,0,.17-1.61Z"/><path d="M824.51,176.09c.09,5,3.36,7.21,7.14,7.35a14,14,0,0,0,5.76-.84c.22.9.43,1.8.65,2.7a17.12,17.12,0,0,1-6.93,1c-6.4-.22-10.23-4.45-10.23-10.65s3.7-11,9.76-10.81c6.79.25,8.6,6.26,8.6,10a14.3,14.3,0,0,1-.13,1.73Q831.83,176.28,824.51,176.09Zm11.1-2.31c0-2.37-1-6.11-5.25-6.26-3.83-.13-5.5,3.31-5.81,5.89C828.24,173.51,831.92,173.63,835.61,173.78Z"/><path d="M838.87,192.13a6,6,0,0,0,4.13-1.38c1-1.14,1.42-2.73,1.42-7.65V165.92l3.78.21v18.62c0,4-.64,6.54-2.49,8.3a9.35,9.35,0,0,1-6.45,2Zm9.76-31.74a2.07,2.07,0,0,1-2.36,2.16,2.4,2.4,0,0,1-2.32-2.42,2.16,2.16,0,0,1,2.41-2.2A2.37,2.37,0,0,1,848.63,160.39Z"/><path d="M871.81,182.81c0,2.11,0,4,.17,5.6l-3.35-.29c-.07-1.13-.14-2.25-.22-3.37h-.08a7.2,7.2,0,0,1-6.88,3.26c-3.27-.25-7.18-2.28-7.18-9.49v-12l3.78.26v11.36c0,3.9,1.21,6.61,4.65,6.87a5,5,0,0,0,5-3,5,5,0,0,0,.35-1.88V167.56l3.78.34Z"/></g><g id="Layer_3" data-name="Layer 3"><path class="cls-2" d="M143,147.88v92"/><path d="M137.52,147.43c-9.91,13.76-26.49,21.46-43,23.69A106.19,106.19,0,0,1,64,170.43c-9.05-1.43-18.39-3.35-26.84-7-7.95-3.43-14.61-8.62-18.83-16.28-4.41-8-6.6-17.31-8.48-26.18a182.82,182.82,0,0,1-3-56.1,180.41,180.41,0,0,1,14-54q1.39-3.2,2.91-6.33A3.07,3.07,0,0,0,22.71.39a3,3,0,0,0-4.1,1.07A187.47,187.47,0,0,0,1.72,57.81,190.3,190.3,0,0,0,3,117c1.75,9.68,4.05,19.51,8,28.57a44.26,44.26,0,0,0,7.65,12.25,41.68,41.68,0,0,0,10.59,8.31c8.26,4.66,17.63,7.07,26.86,8.92a126.54,126.54,0,0,0,32.24,2.65c18.5-1.13,37.32-7.87,50-21.83a63.91,63.91,0,0,0,4.38-5.44,3,3,0,0,0-1.08-4.1,3.07,3.07,0,0,0-4.11,1.08Z"/><path d="M15.57,154.07C26.22,168.88,39.88,181.13,55,191.23c16.32,10.89,34.23,19.13,52.44,26.33,10.7,4.23,21.54,8.1,32.37,12a3,3,0,0,0,1.6-5.79c-18.74-6.67-37.52-13.35-55.48-22C69.68,194,54,184.58,40.49,172.61a131,131,0,0,1-19.74-21.56A3.09,3.09,0,0,0,16.64,150a3,3,0,0,0-1.07,4.1Z"/></g></g></svg>