<svg xmlns="http://www.w3.org/2000/svg" viewBox="0 0 1197.56 135"><defs><style>.cls-1{fill:#fff;}.cls-2{stroke:#000;stroke-miterlimit:10;stroke-width:8px;}</style></defs><g id="Layer_2" data-name="Layer 2"><g id="Layer_1-2" data-name="Layer 1"><path class="cls-1" d="M1197.56,91.08c-278.66-76.67-557.33,78.51-836,1.84V-.92C640.23,77,918.9-77,1197.56.92c-21.33,9.06-42.66,19.53-64,31.2C1154.9,50.6,1176.23,70.18,1197.56,91.08Z"/><path d="M416.83,72.66V43.18l4.09.7q4.63,8.23,9.28,16.4a103.41,103.41,0,0,1,5.21,10.34l.08,0c-.34-4-.43-7.58-.43-12.17V46.09l3.53.5V76.05l-3.79-.53q-4.59-8.14-9.2-16.35a115,115,0,0,1-5.42-10.73l-.12,0c.21,3.75.3,7.31.3,12.21v12.6Z"/><path d="M449.64,50.39a2,2,0,0,1-2.41,2.06A2.65,2.65,0,0,1,445,49.8a2,2,0,0,1,2.37-2.1A2.62,2.62,0,0,1,449.64,50.39ZM445.43,77V55.81l3.78.47V77.42Z"/><path d="M455,74.16a10.77,10.77,0,0,0,5,2.06c2.75.29,4-1,4-2.73s-1.07-2.94-3.87-4.28c-3.74-1.74-5.5-4-5.5-6.58,0-3.41,2.71-5.88,7.18-5.43A11.32,11.32,0,0,1,466.92,59l-.94,2.7a8.81,8.81,0,0,0-4.26-1.64c-2.23-.23-3.48.94-3.48,2.51,0,1.75,1.25,2.67,3.95,4,3.62,1.76,5.47,3.76,5.47,6.91,0,3.7-2.84,6.07-7.79,5.56A12.68,12.68,0,0,1,454,77C454.34,76,454.66,75.1,455,74.16Zm4.73-19.58-4.13-6.69,2.93.32c.84,1.48,1.69,2.95,2.53,4.42h.09l2.54-3.89,2.84.27-4.05,5.85Z"/><path d="M477.07,53v6.07l5.42.41V62.4L477.07,62V73.38c0,2.61.73,4.16,2.84,4.31a7.67,7.67,0,0,0,2.19-.1l.18,2.89a8.72,8.72,0,0,1-3.36.28,5.61,5.61,0,0,1-4.08-1.94c-1.08-1.22-1.47-3.13-1.47-5.61V61.69l-3.22-.28V58.48l3.22.28V53.7Z"/><path d="M498.27,81.53l-.3-2.67h-.13a7.21,7.21,0,0,1-6.36,2.79,6.42,6.42,0,0,1-6.37-6.46c0-5.1,4.48-7.56,12.52-7.11v-.43c0-1.75-.48-4.9-4.73-5.14a10,10,0,0,0-5.42,1.24c-.29-.86-.58-1.72-.86-2.58a12.42,12.42,0,0,1,6.84-1.46c6.36.35,7.91,4.8,7.91,9v7.89a30.18,30.18,0,0,0,.34,5.07Zm-.56-10.79c-4.13-.29-8.81.16-8.81,4.25a3.61,3.61,0,0,0,3.57,3.88,4.86,4.86,0,0,0,5-3.26,4,4,0,0,0,.21-1.21Z"/><path d="M516.59,66.84c0-2.18,0-4-.17-5.71l3.35.08L520,64.7h.08A7.51,7.51,0,0,1,527,60.86c2.88,0,7.35,1.81,7.35,9V82.46l-3.78,0V70.3c0-3.39-1.25-6.23-4.82-6.28a5.28,5.28,0,0,0-5.07,3.83,5.52,5.52,0,0,0-.26,1.78V82.29l-3.78-.08Z"/><path d="M542.56,72.63c.09,5.17,3.35,7.29,7.14,7.24a13.64,13.64,0,0,0,5.76-1.18c.21.9.43,1.81.64,2.72a16.44,16.44,0,0,1-6.92,1.42c-6.4.08-10.23-4.19-10.23-10.54s3.7-11.34,9.76-11.41c6.79-.08,8.6,5.9,8.6,9.77a15.54,15.54,0,0,1-.13,1.79Q549.88,72.59,542.56,72.63Zm11.09-2.86c.05-2.44-1-6.2-5.24-6.15-3.83.05-5.51,3.61-5.81,6.27Q548.14,69.86,553.65,69.77Z"/><path d="M571.11,66.53c0-2.18,0-4-.17-5.69l3.31-.12c.06,1.13.11,2.26.17,3.38h.13A7.55,7.55,0,0,1,581.09,60,5.82,5.82,0,0,1,587,63.89h.08A9.25,9.25,0,0,1,589.39,61a7.42,7.42,0,0,1,4.6-1.73c2.75-.15,6.83,1.42,6.83,8.7V80.37l-3.69.23V68.72c0-4-1.47-6.38-4.52-6.21a5.26,5.26,0,0,0-4.47,3.71,6.57,6.57,0,0,0-.3,1.93v13l-3.7.19V68.72c0-3.34-1.46-5.7-4.34-5.58a6,6,0,0,0-5,5.9V81.72l-3.7.14Z"/><path d="M625.81,67.88c0,7.76-5.33,11.58-10.37,12-5.63.42-10-3.46-10-10.09,0-7,4.56-11.44,10.32-11.87C621.77,57.44,625.81,61.47,625.81,67.88ZM609.3,69.36c0,4.59,2.62,7.88,6.32,7.6s6.32-3.91,6.32-8.63c0-3.56-1.77-7.92-6.24-7.58S609.3,65.37,609.3,69.36Z"/><path d="M627.92,76.15,637.33,63c.9-1.21,1.76-2.28,2.71-3.5v-.08q-5.62.51-11.27,1V57.33q7.93-.67,15.87-1.43c0,.8,0,1.59,0,2.39q-4.65,6.52-9.29,13c-.86,1.24-1.72,2.36-2.67,3.53v.08q6.09-.53,12.17-1.12v3q-8.44.81-16.89,1.53Zm7.61-22.27q-2.07-2.91-4.13-5.83l2.92-.25,2.54,3.89h.08c.85-1.45,1.7-2.89,2.54-4.34l2.84-.26-4,6.56Z"/><path d="M650.49,66.5c.09,5.14,3.35,6.94,7.14,6.54a14.46,14.46,0,0,0,5.76-1.69c.22.89.43,1.77.65,2.66a18.09,18.09,0,0,1-6.93,2c-6.4.66-10.23-3.22-10.23-9.53s3.7-11.65,9.76-12.27c6.79-.7,8.6,5.11,8.6,9a15.54,15.54,0,0,1-.13,1.79Q657.81,65.77,650.49,66.5Zm11.09-3.86c0-2.43-1-6.08-5.24-5.64-3.83.39-5.51,4.1-5.81,6.77Q656.07,63.22,661.58,62.64Z"/><path d="M697,40.41V65.66c0,1.86,0,4,.17,5.37l-3.4.42c-.06-1.2-.11-2.4-.17-3.61h-.09a8.9,8.9,0,0,1-7.09,5c-5,.6-8.9-3.24-8.9-9.59,0-6.95,4.25-11.72,9.33-12.32,3.18-.37,5.33.88,6.28,2.45h.08V40.86Zm-3.79,18.72a6.43,6.43,0,0,0-.17-1.58,4.82,4.82,0,0,0-5.46-3.75c-3.91.46-6.24,4.18-6.24,8.81,0,4.23,2.07,7.49,6.15,7a6.65,6.65,0,0,0,5.55-5.21,6.77,6.77,0,0,0,.17-1.66Z"/><path d="M714.82,68.81l-.3-2.6-.13,0A9,9,0,0,1,708,70.15c-4.21.54-6.36-2.17-6.36-5.2,0-5.05,4.47-8.36,12.51-9.35v-.43c0-1.72-.47-4.77-4.73-4.23A11.78,11.78,0,0,0,704,53.18c-.28-.8-.57-1.6-.86-2.4A14.51,14.51,0,0,1,710,48.07c6.37-.81,7.91,3.34,7.91,7.53v7.8a28.48,28.48,0,0,0,.35,5Zm-.56-10.59c-4.13.45-8.82,1.77-8.82,5.83A2.91,2.91,0,0,0,709,67.22a6.09,6.09,0,0,0,5-4.14,4.15,4.15,0,0,0,.22-1.23Z"/><path d="M730.77,64.51,740.19,51c.9-1.24,1.76-2.35,2.7-3.59v-.09l-11.26,1.51V45.73q7.93-1,15.87-2.13c0,.79,0,1.58,0,2.37l-9.28,13.37c-.86,1.27-1.72,2.42-2.67,3.63v.09l12.17-1.66v3l-16.9,2.29Z"/><path d="M763.06,62.3l-.3-2.59-.13,0a9.12,9.12,0,0,1-6.36,4c-4.22.58-6.37-2.1-6.37-5.11,0-5,4.48-8.4,12.52-9.47V48.7c0-1.72-.47-4.75-4.73-4.17a11.86,11.86,0,0,0-5.42,2.29c-.29-.79-.57-1.58-.86-2.38a14.63,14.63,0,0,1,6.84-2.78c6.36-.88,7.91,3.25,7.91,7.43v7.78a28.43,28.43,0,0,0,.34,5Zm-.56-10.56c-4.12.49-8.81,1.86-8.81,5.91a2.87,2.87,0,0,0,3.57,3.12,6.17,6.17,0,0,0,5-4.18,4.13,4.13,0,0,0,.21-1.23Z"/><path d="M789.68,52.92c0,2.15,0,4,.17,5.65L786.5,59c-.07-1.12-.15-2.24-.22-3.36h-.08a9.38,9.38,0,0,1-6.88,4.83c-3.27.45-7.19-.81-7.18-8.12V40.22l3.78-.53V51.22c0,4,1.2,6.45,4.64,6a6.56,6.56,0,0,0,5-4.13,5.57,5.57,0,0,0,.34-2V38.31l3.79-.52Z"/><path d="M795.44,53.92a9,9,0,0,0,5,.82c2.75-.38,4-1.93,4-3.65s-1.07-2.65-3.87-3.29c-3.74-.82-5.5-2.64-5.5-5.13,0-3.35,2.71-6.47,7.18-7.09a9.6,9.6,0,0,1,5.11.59c-.31,1-.63,1.92-.94,2.88a7.43,7.43,0,0,0-4.26-.62c-2.23.31-3.48,1.77-3.48,3.31,0,1.72,1.25,2.32,3.95,3,3.62.88,5.47,2.43,5.47,5.52,0,3.65-2.84,6.62-7.79,7.3a11,11,0,0,1-5.85-.61C794.81,55.93,795.13,54.93,795.44,53.92Z"/><path d="M817.54,28v6l5.42-.73v2.87l-5.42.73V48.06c0,2.57.73,3.93,2.84,3.65a8.91,8.91,0,0,0,2.19-.56l.18,2.81a10.29,10.29,0,0,1-3.36,1,4.69,4.69,0,0,1-4.08-1c-1.08-1-1.46-2.77-1.46-5.21V37.35l-3.23.44V34.92l3.23-.44v-5Z"/><path d="M838.74,51.92l-.3-2.58-.13,0A9.13,9.13,0,0,1,832,53.29c-4.22.56-6.37-2.11-6.37-5.12,0-5,4.48-8.37,12.52-9.37v-.43c0-1.72-.48-4.74-4.73-4.19A11.73,11.73,0,0,0,828,36.45c-.29-.8-.57-1.59-.86-2.38a14.6,14.6,0,0,1,6.84-2.75c6.36-.83,7.91,3.3,7.91,7.46v7.76a28.19,28.19,0,0,0,.34,4.93Zm-.56-10.52c-4.13.45-8.81,1.81-8.81,5.84a2.89,2.89,0,0,0,3.57,3.13,6.15,6.15,0,0,0,5-4.14,4.13,4.13,0,0,0,.21-1.23Z"/><path d="M849.06,29.84q2,5.56,4.09,11.14a49.47,49.47,0,0,1,1.67,5.1H855c.47-1.78,1.08-3.57,1.77-5.54q2-6.08,4-12.15l4-.48-8.17,21.74-3.61.45q-4-9.87-7.91-19.73Z"/><path d="M872.5,21.15a2.56,2.56,0,0,1-2.41,2.59,2,2,0,0,1-2.28-2,2.66,2.66,0,0,1,2.36-2.63A2,2,0,0,1,872.5,21.15Zm-4.22,27V27.47l3.79-.45V47.74Z"/><path d="M905.43,13.7v25c0,1.84.05,3.93.17,5.33l-3.39.35c-.06-1.2-.12-2.39-.17-3.58H902a8.78,8.78,0,0,1-7.09,4.81c-5,.55-8.91-3.25-8.91-9.54,0-6.88,4.26-11.6,9.34-12.14,3.18-.34,5.33.94,6.27,2.51h.09V14.08Zm-3.78,18.47a6.35,6.35,0,0,0-.17-1.57A4.9,4.9,0,0,0,896,26.81c-3.92.42-6.24,4.1-6.24,8.67,0,4.2,2.07,7.43,6.15,7a6.51,6.51,0,0,0,5.55-5.07,6.71,6.71,0,0,0,.17-1.64Z"/><path d="M930.54,31.19c0,7.64-5.33,11.43-10.36,11.89-5.63.52-10-3.14-10-9.68,0-6.92,4.55-11.43,10.32-12C926.5,20.9,930.54,24.88,930.54,31.19ZM914,32.9c0,4.53,2.62,7.69,6.32,7.35s6.32-3.94,6.32-8.6c0-3.5-1.76-7.79-6.23-7.38S914,29,914,32.9Z"/><path d="M935.15,41.31c.08-1.41.17-3.51.17-5.35V11l3.74-.3v13h.09a8.44,8.44,0,0,1,7.09-4.33C951.4,19,955.05,23,955,29.27c0,7.37-4.69,11.35-9.33,11.69-3,.22-5.42-.74-7-3.35h-.13l-.18,3.43Zm3.91-8.59a7.22,7.22,0,0,0,.17,1.35,5.31,5.31,0,0,0,5.68,4c4-.29,6.32-3.65,6.32-8.38,0-4.14-2.15-7.53-6.19-7.24a6.64,6.64,0,0,0-5.77,5,8.19,8.19,0,0,0-.21,1.56Z"/><path d="M959.78,25.34c0-2.43,0-4.52-.17-6.43l3.31-.19c.05,1.34.09,2.69.13,4h.17A6.68,6.68,0,0,1,969,17.91a4,4,0,0,1,1.07.07v3.54a5.24,5.24,0,0,0-1.29-.06c-2.67.14-4.56,2.25-5.07,5.1a11.09,11.09,0,0,0-.18,1.75v11l-3.74.23Z"/><path d="M991.26,32.42c0,2.12,0,4,.17,5.61l-3.35.11c-.07-1.12-.15-2.23-.22-3.35h-.08a8.25,8.25,0,0,1-6.88,4.1c-3.27.14-7.18-1.45-7.18-8.7v-12L977.5,18V29.38c0,3.92,1.2,6.5,4.64,6.35a5.74,5.74,0,0,0,5-3.6,5.43,5.43,0,0,0,.35-1.93V17.56l3.78-.13Z"/><path d="M1010.87,11.23a2.26,2.26,0,0,1-2.41,2.32,2.2,2.2,0,0,1-2.28-2.26,2.33,2.33,0,0,1,2.37-2.37A2.2,2.2,0,0,1,1010.87,11.23Zm-4.22,26.42V17.07l3.79-.05V37.6Z"/><path d="M1034.69,7.48V32.32c0,1.83,0,3.91.17,5.31l-3.4,0c0-1.19-.11-2.38-.17-3.57h-.08a7.68,7.68,0,0,1-7.1,4c-5,0-8.9-4.19-8.9-10.44,0-6.84,4.26-11.09,9.33-11.06a7,7,0,0,1,6.28,3.2h.09V7.42Q1032.8,7.44,1034.69,7.48Zm-3.78,17.91a6.41,6.41,0,0,0-.18-1.57,5.59,5.59,0,0,0-5.46-4.38c-3.91,0-6.23,3.39-6.23,7.93,0,4.17,2.06,7.6,6.15,7.62a5.63,5.63,0,0,0,5.54-4.42,6.36,6.36,0,0,0,.18-1.61Z"/><path d="M1043.07,28.21c.09,5.06,3.36,7.22,7.14,7.35a13.81,13.81,0,0,0,5.76-.83c.22.9.43,1.8.65,2.7a17.25,17.25,0,0,1-6.92,1c-6.41-.22-10.24-4.44-10.24-10.65s3.7-11,9.76-10.8c6.8.25,8.6,6.25,8.6,10a12.49,12.49,0,0,1-.13,1.73Q1050.38,28.4,1043.07,28.21Zm11.1-2.3c0-2.37-1-6.12-5.25-6.27-3.83-.13-5.5,3.32-5.8,5.9Q1048.64,25.69,1054.17,25.91Z"/><path d="M1057.44,44.25a5.87,5.87,0,0,0,4.12-1.38c1-1.13,1.42-2.72,1.42-7.64V18.05l3.79.21V36.88c0,4-.65,6.53-2.5,8.3a9.43,9.43,0,0,1-6.45,2C1057.69,46.21,1057.56,45.23,1057.44,44.25Zm9.76-31.73a2.07,2.07,0,0,1-2.37,2.15,2.39,2.39,0,0,1-2.32-2.41,2.16,2.16,0,0,1,2.41-2.21A2.38,2.38,0,0,1,1067.2,12.52Z"/><path d="M1090.37,34.93c0,2.12.05,4,.18,5.61l-3.36-.3-.21-3.36h-.09a7.2,7.2,0,0,1-6.88,3.26c-3.27-.25-7.18-2.29-7.18-9.5v-12l3.78.26V30.26c0,3.9,1.21,6.61,4.65,6.87a5,5,0,0,0,5-3,5.19,5.19,0,0,0,.34-1.87V19.68l3.78.34Z"/></g><g id="Layer_3" data-name="Layer 3"><path class="cls-2" d="M361.56,0V92"/><path d="M.76,105.63c8.8,10.31,21.5,16.11,34.26,19.86,14.83,4.37,30.31,6.75,45.69,8.13a402,402,0,0,0,47.84,1.15,458.42,458.42,0,0,0,46.11-3.24c14.81-1.93,29.53-5,43.41-10.62a138,138,0,0,0,32.09-18.54C269.11,87.88,285,70,301.6,53,317.75,36.54,335,20.49,356.28,10.84c2.5-1.14,5.05-2.15,7.63-3.08,3.61-1.29,2-7.09-1.6-5.78-22,7.89-40.3,22.58-56.85,38.71C288.65,57.07,273.32,75,255.51,90.34a154.75,154.75,0,0,1-27.9,19.55c-12.7,6.79-26.57,11-40.68,13.68-14.49,2.75-29.22,3.87-43.93,4.61-15.83.81-31.7,1.14-47.54.43a274.57,274.57,0,0,1-46.86-5.87c-12.81-2.83-26.17-6.56-36.7-14.73A46.45,46.45,0,0,1,5,101.39c-2.51-2.94-6.73,1.32-4.24,4.24Z"/><path d="M283.61,72.57a153.67,153.67,0,0,1,57.52,5.94A148.34,148.34,0,0,1,356.31,84a3.11,3.11,0,0,0,4.11-1.08c.73-1.26.42-3.46-1.08-4.1A159.87,159.87,0,0,0,300.51,66a153.75,153.75,0,0,0-16.9.54,3.08,3.08,0,0,0-3,3,3,3,0,0,0,3,3Z"/></g></g></svg>