<svg xmlns="http://www.w3.org/2000/svg" viewBox="0 0 2723.01 1532.47"><defs><style>.cls-1{fill:#000072;}.cls-2{fill:#ec1c24;}.cls-3{fill:#fff;}.cls-4{opacity:0.55;}.cls-5{fill:#959aaf;}.cls-6{opacity:0.3;}.cls-7{fill:#0dd1ff;}.cls-8{opacity:0.45;}.cls-9{fill:#e55353;}.cls-10{fill:#263069;}.cls-11{fill:#4cc7ed;}</style></defs><g id="Layer_2" data-name="Layer 2"><g id="Layer_1-2" data-name="Layer 1"><path class="cls-1" d="M775,1532.47a169,169,0,0,1-124.27-54.38l-12.28-13.23a25,25,0,0,1,36.64-34l12.28,13.23a119.47,119.47,0,0,0,97.37,38l892-61.23a25,25,0,0,1,3.43,49.89L788.37,1532Q781.65,1532.48,775,1532.47Z"/><path class="cls-1" d="M210.14,1397.92a169,169,0,0,1-124.26-54.38l-12.29-13.23a25,25,0,0,1,36.64-34l12.29,13.22a119.5,119.5,0,0,0,97.36,38l892-61.23a25,25,0,0,1,3.43,49.89l-891.76,61.2Q216.82,1397.93,210.14,1397.92Z"/><path class="cls-1" d="M875.58,1525.05a24.94,24.94,0,0,1-19.44-9.26c-22.6-27.89-26.88-73.1-31.84-125.45-7.11-75-15.17-160-74.81-216.9a25,25,0,1,1,34.5-36.18c73.16,69.74,82.54,168.78,90.09,248.37,4,42.44,7.81,82.52,20.91,98.68a25,25,0,0,1-19.41,40.74Z"/><path class="cls-1" d="M1571.81,1478.11a25,25,0,0,1-19.63-9.49c-34.89-44.15-40.89-92.52-47.24-143.74-7.13-57.49-14.51-116.94-64.55-180.92a25,25,0,0,1,39.39-30.8c58.56,74.89,67.18,144.31,74.78,205.56,5.7,46,10.63,85.72,36.85,118.89a25,25,0,0,1-19.6,40.5Z"/><path class="cls-1" d="M198.26,1397.36a25,25,0,0,1-19.95-40c21-27.81,37.35-66.23,53.2-103.38,30-70.3,61-143,128.79-161.66a25,25,0,0,1,13.28,48.2c-44.55,12.27-69.58,71-96.08,133.08-17,39.91-34.63,81.17-59.25,113.85A25,25,0,0,1,198.26,1397.36Z"/><path class="cls-1" d="M934.25,1348.56a25,25,0,0,1-23.78-32.74c17.64-54.28,20.47-104.88,8.62-154.68a25,25,0,1,1,48.64-11.57c14,59,10.86,118.44-9.71,181.71A25,25,0,0,1,934.25,1348.56Z"/><path class="cls-2" d="M2666.74,751.3l-27.5,81.55-97.4,4.7-269.9,13-113.85,5.5-64.8,3.1-164.55,8-54.4,2.6a292.68,292.68,0,0,0-160.25,57.2,285.48,285.48,0,0,0-38.3,33.9l-72.6,76.65a393.67,393.67,0,0,1-285.75,122.9H604.09a727.07,727.07,0,0,1-198.65-27.75C93.19,1043.85-6.61,962.25,18.79,884.85,34.64,836.6,99.19,790,191.29,744.3a190.56,190.56,0,0,0,76.4-68.5l133.5-210.65a171.54,171.54,0,0,1,145-79.8l47-57.45A111.58,111.58,0,0,1,679.59,287h213.8A101,101,0,0,1,992,207.85h73.5a679.41,679.41,0,0,1,552.05,283.4l51.75,72.1A169.3,169.3,0,0,0,1782.14,630l39.65,4.65,177.75,20.75,70,8.15,122.95,14.35,123.7,14.45a94.57,94.57,0,0,0,95.35-51.2L2521.69,423.7l17.95-35.5,80.45,25.5-8.45,36.95-57.5,252.05a30.22,30.22,0,0,0,25.35,36.65Z"/><polygon class="cls-3" points="2093.29 859.15 1928.74 867.1 1821.79 634.65 1999.54 655.4 2093.29 859.15"/><polygon class="cls-3" points="2271.94 850.55 2158.09 856.05 2069.54 663.55 2192.49 677.9 2271.94 850.55"/><path class="cls-3" d="M1714.09,926.9a285.48,285.48,0,0,0-38.3,33.9l-72.6,76.65a393.67,393.67,0,0,1-285.75,122.9H604.09a727.07,727.07,0,0,1-198.65-27.75C93.19,1043.85-6.61,962.25,18.79,884.85l.05-.05,42.3-15A135.47,135.47,0,0,1,106.19,862h55.1a269.13,269.13,0,0,1,136,36.85l236.25,138a190.71,190.71,0,0,0,96,26h685.15a320.08,320.08,0,0,0,185.25-59l95-67.35a112.13,112.13,0,0,1,95.55-16.35Z"/><path class="cls-1" d="M1317.44,1162.85H604.09A729.66,729.66,0,0,1,404.76,1135c-223-63.39-348.15-125.66-382.53-190.36-10.54-19.84-12.5-40.22-5.81-60.58l.19-.56L18,882.45l42.3-15.06a137.79,137.79,0,0,1,45.89-7.89h55.1A271.82,271.82,0,0,1,298.5,896.69l236.25,138a188.32,188.32,0,0,0,94.79,25.66h685.15a315.8,315.8,0,0,0,183.8-58.59l95-67.35a114,114,0,0,1,97.68-16.71l28.53,8.2-4.09,3a283.64,283.64,0,0,0-38,33.6l-72.6,76.65A397.88,397.88,0,0,1,1317.44,1162.85ZM20.81,886.76C15,905.4,17,924.08,26.65,942.3c33.71,63.44,157.83,124.9,379.48,187.9a724.41,724.41,0,0,0,198,27.65h713.35a392.84,392.84,0,0,0,283.94-122.12L1674,959.08a288.81,288.81,0,0,1,34.6-31.16l-18.82-5.42a109.09,109.09,0,0,0-93.41,16l-94.95,67.35a320.84,320.84,0,0,1-186.7,59.51H629.54A193.42,193.42,0,0,1,532.23,1039L296,901A266.88,266.88,0,0,0,161.29,864.5h-55.1A132.49,132.49,0,0,0,62,872.11Z"/><g class="cls-4"><path class="cls-3" d="M465.49,1147q-30.3-5.92-60.05-14.35C93.19,1043.85-6.61,962.25,18.79,884.85,34.64,836.6,99.19,790,191.29,744.3a193.13,193.13,0,0,0,45.55-31.45,1.33,1.33,0,0,1,.3-.25L309.19,697s-.05.1-.1.15a191.23,191.23,0,0,1-69.45,58.3C147.54,801.05,83,847.7,67.14,896c-25.4,77.4,74.4,159,386.65,247.75C457.69,1144.8,461.59,1145.85,465.49,1147Z"/></g><path class="cls-5" d="M2666.74,751.3l-1.45,4.3-37.45-5.15a30.12,30.12,0,0,1-15-6.55Z"/><path class="cls-1" d="M2667,758.36l-39.5-5.43a32.66,32.66,0,0,1-16.19-7.1l-6.84-5.61,65.61,9Z"/><path class="cls-5" d="M1792.14,631.15l-10-1.15a169.3,169.3,0,0,1-112.85-66.65l-51.75-72.1a679.36,679.36,0,0,0-375.8-260.15,679.4,679.4,0,0,1,424.15,271.25l51.75,72.1A168.78,168.78,0,0,0,1792.14,631.15Z"/><g class="cls-4"><path class="cls-3" d="M1522.14,442.85c-153.45-76-394.15-98.7-646.8-114.2H661.54a111.4,111.4,0,0,0-78.4,32.2l10.1-33A111.58,111.58,0,0,1,679.59,287H846.74s22.45.55,48,.85c31.85.45,68.45.6,72-.85,6.35-2.6,293.65,36.1,293.65,36.1l180.25,51.8A675.69,675.69,0,0,1,1522.14,442.85Z"/></g><g class="cls-6"><path class="cls-1" d="M2524.14,784.05l-3,45.25-648.45,31.25a292.68,292.68,0,0,0-160.25,57.2,285.48,285.48,0,0,0-38.3,33.9l-72.6,76.65a393.67,393.67,0,0,1-285.75,122.9H602.44a727.07,727.07,0,0,1-198.65-27.75C98.84,1036.8-3.46,957,15.54,881.15c46.65,52.9,160.1,108,364.75,166.15a727.07,727.07,0,0,0,198.65,27.75h713.35A393.52,393.52,0,0,0,1578,952.1l72.6-76.6a285.48,285.48,0,0,1,38.3-33.9,292.29,292.29,0,0,1,160.25-57.2l671.7,1Z"/></g><g class="cls-4"><path class="cls-3" d="M2405.84,650.85l-12.35,31.95a94.57,94.57,0,0,1-95.35,51.2l-534-62.35A169.3,169.3,0,0,1,1651.24,605l-51.75-72.1a679,679,0,0,0-77.35-90c-25.45-24.85-44.25-57.59-73.05-78-113.45-80.55-258.95-115.36-401.65-115.36h-73.5a101,101,0,0,0-79.2,38.35c-25.55-.3-48-.85-48-.85h46.65A101,101,0,0,1,992,207.85h73.5a679.41,679.41,0,0,1,552.05,283.4l51.75,72.1A169.3,169.3,0,0,0,1782.14,630l534.05,62.35A94.51,94.51,0,0,0,2405.84,650.85Z"/></g><path class="cls-5" d="M1156.84,68.05v81.5c-15.65-17.8-42.9-29.5-70.95-32.6h-.05a123,123,0,0,0-39.1,1.5c-20.45,4.2-38.3,14.2-48.65,31.1V64.3a41.53,41.53,0,0,1,18.1-34.45,84.38,84.38,0,0,1,30.55-12.35,124.71,124.71,0,0,1,39.15-1.5c18.2,2,36,7.65,50.6,16.2A41.48,41.48,0,0,1,1156.84,68.05Z"/><path class="cls-1" d="M995.59,158.42V64.3a43.93,43.93,0,0,1,19.2-36.52,86.62,86.62,0,0,1,31.45-12.73,127.62,127.62,0,0,1,39.94-1.53c18.6,2,36.92,7.91,51.58,16.53a44.12,44.12,0,0,1,21.58,38v88.13l-4.38-5c-14.7-16.72-40.62-28.59-69.34-31.76a121.06,121.06,0,0,0-38.37,1.46c-21.47,4.41-37.73,14.77-47,30Zm75.12-44.86a131.4,131.4,0,0,1,15.43.91c27.31,3,52.26,13.66,68.2,28.88V68.05a39.1,39.1,0,0,0-19.11-33.69c-14.06-8.27-31.68-13.9-49.61-15.87A122.79,122.79,0,0,0,1047.25,20a81.75,81.75,0,0,0-29.66,12,39,39,0,0,0-17,32.38v77.39c10.38-12.83,26-21.65,45.65-25.69A120.31,120.31,0,0,1,1070.71,113.56Z"/><g class="cls-4"><path class="cls-3" d="M1085.89,16V117h-.05l-39.1,1.5V17.5A124.71,124.71,0,0,1,1085.89,16Z"/></g><path class="cls-1" d="M998.09,164.55a15,15,0,0,1-15-15V64.3a56.44,56.44,0,0,1,24.7-46.87C1048-9.8,1108-1.95,1144.11,19.26a56.73,56.73,0,0,1,27.73,48.79v81.5a15,15,0,0,1-26.28,9.89c-16.66-19-52.1-30.76-84.34-28-13.6,1.18-38.22,6.1-50.33,25.92A15,15,0,0,1,998.09,164.55Zm73-63.52c25.36,0,50.53,6.51,70.72,17.83V68.05a26.62,26.62,0,0,0-12.93-22.93c-32-18.83-78.81-20.11-104.3-2.85a26.5,26.5,0,0,0-11.52,22V115c12.76-7.35,28.18-12,45.56-13.46Q1064.88,101,1071.12,101Z"/><path class="cls-1" d="M1076.92,193.76a194.59,194.59,0,0,1-20.08-1c-18.34-1.89-62.16-9.38-72.81-37.94a15,15,0,0,1,1.26-13.06c14.08-23,40.13-37.3,73.36-40.17,42.28-3.63,86.28,11.67,109.46,38.1a15,15,0,0,1,1.42,17.89C1153.35,183.22,1114.2,193.76,1076.92,193.76Zm-60-44.12c7.06,5.25,21.55,11,43,13.25,30.4,3.13,59.71-2.15,75.35-12.66-18.62-13.43-47.43-21.07-74.06-18.78C1049.6,132.46,1029.93,136.2,1016.89,149.64Z"/><g class="cls-4"><polygon class="cls-3" points="2620.09 413.7 2611.64 450.65 2521.69 423.7 2539.64 388.2 2620.09 413.7"/></g><path class="cls-1" d="M1156.84,149.55c-26.75,42.45-145.6,35.3-158.75,0C1028.09,100.45,1121.74,109.55,1156.84,149.55Z"/><path class="cls-1" d="M1076.68,181.24a180.64,180.64,0,0,1-18.55-.94c-25.77-2.66-55.69-11.9-62.38-29.88l-.43-1.14.64-1c11.95-19.56,34.6-31.72,63.76-34.23,37.93-3.28,78.63,10.67,99,33.88l1.23,1.4-1,1.58C1145.37,172.44,1109.77,181.24,1076.68,181.24Zm-75.79-31.45c5.71,12.52,28.12,22.48,57.75,25.53,34.94,3.6,79-2.92,95-25.54-19.78-21.24-57.88-33.86-93.53-30.78C1033.15,121.33,1012.17,132.24,1000.89,149.79Z"/><path class="cls-5" d="M1030.91,197.85V177.63a30.22,30.22,0,0,1,30.22-30.22H1084a30.22,30.22,0,0,1,30.22,30.22v22"/><path class="cls-1" d="M1116.74,199.61h-5v-22A27.75,27.75,0,0,0,1084,149.91h-22.89a27.75,27.75,0,0,0-27.72,27.72v20.22h-5V177.63a32.75,32.75,0,0,1,32.72-32.72H1084a32.76,32.76,0,0,1,32.72,32.72Z"/><path class="cls-1" d="M1114.24,214.61a15,15,0,0,1-15-15v-22A15.23,15.23,0,0,0,1084,162.41h-22.89a15.23,15.23,0,0,0-15.22,15.22v20.22a15,15,0,1,1-30,0V177.63a45.27,45.27,0,0,1,45.22-45.22H1084a45.27,45.27,0,0,1,45.22,45.22v22A15,15,0,0,1,1114.24,214.61Z"/><path class="cls-7" d="M867.74,593.25l-56.3,203.6A88.83,88.83,0,0,1,725.79,862H715.64c-3.25,0-6.5-.1-9.7-.35a143.8,143.8,0,0,1-57.75-16.4,147.33,147.33,0,0,1-15.4-9.4l-101.5-71.3-59.5-41.8-.05,0-27.3-19.2a81.1,81.1,0,0,0-46.75-14.8h-37.8a82.13,82.13,0,0,0-22.55,3.15L230.39,722.7a188.44,188.44,0,0,0,42.3-46.9l133.5-210.65a171.62,171.62,0,0,1,57.95-56.1c1.4-.85,2.85-1.65,4.3-2.45a171.37,171.37,0,0,1,82.75-21.25h174.1A144.86,144.86,0,0,1,865.34,493.1l2.85,10.9A170,170,0,0,1,867.74,593.25Z"/><path class="cls-1" d="M725.79,864.5H715.64c-3.57,0-6.8-.12-9.89-.35A145.39,145.39,0,0,1,647,847.46a150,150,0,0,1-15.66-9.56L443,705.55a78.23,78.23,0,0,0-45.31-14.35h-37.8A79.37,79.37,0,0,0,338,694.26L218.89,728.62l10-7.88a185.51,185.51,0,0,0,41.74-46.28l133.5-210.65a174.94,174.94,0,0,1,58.8-56.91c1.39-.85,2.87-1.67,4.35-2.49a174.47,174.47,0,0,1,84-21.56h174.1A147.38,147.38,0,0,1,867.76,492.46l2.85,10.91a172.68,172.68,0,0,1-.46,90.55l-56.3,203.6a91.31,91.31,0,0,1-88.06,67ZM359.89,686.2h37.8a83.26,83.26,0,0,1,48.19,15.26L634.23,833.81A147.75,147.75,0,0,0,649.36,843a140.55,140.55,0,0,0,56.75,16.12c3,.23,6.09.34,9.53.34h10.15A86.36,86.36,0,0,0,809,796.19l56.3-203.61a167.62,167.62,0,0,0,.43-87.93l-2.85-10.91A142.36,142.36,0,0,0,725.29,387.85H551.19a169.35,169.35,0,0,0-81.54,20.94c-1.42.78-2.84,1.57-4.21,2.4a169.94,169.94,0,0,0-57.14,55.3L274.8,677.14A189.31,189.31,0,0,1,241,717l95.66-27.59A84.37,84.37,0,0,1,359.89,686.2Z"/><g class="cls-6"><path class="cls-1" d="M867.74,593.25l-56.3,203.6A88.86,88.86,0,0,1,725.79,862H715.64a144.4,144.4,0,0,1-82.85-26.15l-27.1-19.05A144.71,144.71,0,0,0,644,822h10.15a88.86,88.86,0,0,0,85.65-65.15l56.3-203.6a170,170,0,0,0,.45-89.25l-2.85-10.9a144.57,144.57,0,0,0-36.5-64.2A144.86,144.86,0,0,1,865.34,493.1l2.85,10.9A170,170,0,0,1,867.74,593.25Z"/></g><g class="cls-4"><path class="cls-3" d="M855.54,466.85a144.75,144.75,0,0,0-110.75-51.5H570.69a171.54,171.54,0,0,0-145,79.8l-132.8,209.5-62.5,18.05a188.44,188.44,0,0,0,42.3-46.9l133.5-210.65a171.54,171.54,0,0,1,145-79.8h174.1A144.8,144.8,0,0,1,855.54,466.85Z"/></g><g class="cls-8"><path class="cls-3" d="M658.19,845.25a147.33,147.33,0,0,1-15.4-9.4l-101.5-71.3-67.15-355.5c1.4-.85,2.85-1.65,4.3-2.45a171.37,171.37,0,0,1,82.75-21.25h10.1Z"/></g><g class="cls-8"><path class="cls-3" d="M765.49,856.9a89.1,89.1,0,0,1-29.7,5.1H725.64c-3.25,0-6.5-.1-9.7-.35l-90-476.3h50.4Z"/></g><polygon class="cls-9" points="566.74 385.35 641.74 385.35 444.72 695.2 398.95 688.94 346.36 689.19 566.74 385.35"/><path class="cls-1" d="M446,697.9l-47.36-6.48-57.17.3,224-308.87h80.82Zm-47-11.46,44.53,6.07L637.19,387.85H568L351.28,686.67Z"/><path class="cls-1" d="M225.39,737.7h0a15,15,0,1,1,15-15A15,15,0,0,1,225.34,737.7Z"/><path class="cls-3" d="M1526.44,388.15a143.37,143.37,0,0,1-4.3,16l-141.2-50.45-295-55.15L893.39,287A101,101,0,0,1,992,207.85h73.5A679.49,679.49,0,0,1,1526.44,388.15Z"/><path class="cls-1" d="M439.45,718.48a15,15,0,0,1-12.64-23.05L629.09,377.3a15,15,0,1,1,25.31,16.1L452.12,711.53A15,15,0,0,1,439.45,718.48Z"/><path class="cls-1" d="M345.11,704.32a15,15,0,0,1-11.9-24.13l232.87-304a15,15,0,1,1,23.82,18.24L357,698.44A15,15,0,0,1,345.11,704.32Z"/><path class="cls-1" d="M1627.37,522a15,15,0,0,1-11.62-5.5C1503.94,379.87,1281,313.72,893,302a15,15,0,1,1,.91-30c397.51,12,627.31,81.52,745.1,225.46a15,15,0,0,1-11.59,24.5Z"/><path class="cls-1" d="M1314.7,1077.85H629.56a205.65,205.65,0,0,1-103.66-28.06l-236.22-138A254.78,254.78,0,0,0,161.27,877H106.18a119.25,119.25,0,0,0-40,6.89l-42.33,15a15,15,0,0,1-10-28.28l42.33-15A149.2,149.2,0,0,1,106.18,847h55.09a284.82,284.82,0,0,1,143.54,38.86l236.23,138a175.6,175.6,0,0,0,88.52,24H1314.7a303.5,303.5,0,0,0,176.58-56.28l94.91-67.34a126.34,126.34,0,0,1,108.35-18.53l23.67,6.76a15,15,0,0,1-8.24,28.85l-23.67-6.76a96.49,96.49,0,0,0-82.75,14.15l-94.9,67.33A333.41,333.41,0,0,1,1314.7,1077.85Z"/><path class="cls-2" d="M1006.4,491l105.81,12.5a47.51,47.51,0,0,1,41.88,42.58c14,151.37-26.89,336.47-90.31,468.79a84.19,84.19,0,0,1-75.86,48H884.2c-31.86,0-53.43-32.18-41.63-61.77C904.1,846.76,950.69,674.6,953.15,537.16,953.65,509.07,978.5,487.68,1006.4,491Z"/><g class="cls-4"><path class="cls-3" d="M842.57,1033.58C904.1,879.26,950.69,707.1,953.15,569.66c.51-28.09,25.35-49.48,53.25-46.18L1112.22,536a47.5,47.5,0,0,1,41.87,42.58q2.06,22.29,2.55,45.47a691.25,691.25,0,0,0-2.55-78,47.5,47.5,0,0,0-41.87-42.58L1006.4,491c-27.9-3.3-52.74,18.09-53.25,46.18-2.46,137.44-49,309.6-110.58,463.92a44.78,44.78,0,0,0-.18,33.07C842.46,1034,842.5,1033.76,842.57,1033.58Z"/></g><g class="cls-6"><path class="cls-10" d="M897.09,845.8c-9.3,30.8-19.55,61.55-30.5,91.9a37.42,37.42,0,0,1,2.35-18.6C878.54,895,888,870.5,897.09,845.8Z"/><path class="cls-1" d="M865.37,948.43,864.11,938a39.72,39.72,0,0,1,2.51-19.83c10.09-25.32,19.55-50,28.13-73.23l4.74,1.58c-9.07,30-19.35,61-30.55,92Z"/></g><path class="cls-11" d="M1444.49,747.65c-.35,3.25-.7,6.45-1,9.7a45.21,45.21,0,0,1-44.65,39.95h-7.1c-19.9.1-41,.15-62.3.2-19.1,0-38.3,0-56.8.1-28.25,0-49.7-25.6-44.45-53.3,9.65-50.5,15.65-99.25,17-144.45.15-3.85.25-7.65.3-11.45A45,45,0,0,1,1284,544.55a46.88,46.88,0,0,1,11.85-.15l21.55,2.55,43.75,5.15,45.4,5.35a45,45,0,0,1,39.6,40.1C1450.69,645.1,1449.84,696,1444.49,747.65Z"/><path class="cls-1" d="M1272.51,800.1a47.55,47.55,0,0,1-46.82-56.26c10-52.1,15.66-100.57,17-144.06.15-3.85.25-7.63.3-11.41a47.26,47.26,0,0,1,40.69-46.29,49.59,49.59,0,0,1,12.49-.16L1406.83,555c22.08,2.64,39.66,20.44,41.8,42.34,4.44,46.45,3.89,97.12-1.65,150.6h0l-1,9.7a47.71,47.71,0,0,1-47.12,42.18h-7.12c-19.11.1-39.4.15-59.81.2l-59.28.1Zm17.93-253.5a42.43,42.43,0,0,0-42.5,41.83c0,3.83-.15,7.65-.3,11.52-1.3,43.73-7,92.47-17,144.82a42.55,42.55,0,0,0,41.91,50.33h.08l59.27-.1c20.42,0,40.69-.1,59.82-.2h7.11a42.26,42.26,0,0,0,21.33-5.85A42.7,42.7,0,0,0,1441,757.07l1-9.68c5.5-53.15,6-103.48,1.64-149.6-1.91-19.57-17.64-35.49-37.41-37.86l-110.69-13A46.32,46.32,0,0,0,1290.44,546.6Z"/><g class="cls-6"><path class="cls-1" d="M1445.94,596.25a33.78,33.78,0,0,0-6.4-1.3L1328.89,581.9a45.07,45.07,0,0,0-50.4,44c-.65,48.35-6.85,101.1-17.3,155.9a42.83,42.83,0,0,0-.4,14.25,45,45,0,0,1-32.65-51.75c10.45-54.8,16.65-107.55,17.3-155.9a45.09,45.09,0,0,1,50.4-44l110.7,13.05A45,45,0,0,1,1445.94,596.25Z"/></g><path class="cls-7" d="M1555,614.63q50.16,55.36,81.36,129.55a29.64,29.64,0,0,1-27.26,41.17h-59.45a29.58,29.58,0,0,1-29.58-29.58V627.89C1520.08,609.51,1542.67,601,1555,614.63Z"/><path class="cls-1" d="M1609.11,787.85h-59.45a32.12,32.12,0,0,1-32.08-32.08V627.89A22,22,0,0,1,1531.89,607a22.26,22.26,0,0,1,25,6c33.48,36.94,61,80.77,81.82,130.26a32.15,32.15,0,0,1-29.57,44.64Zm-68.9-177.42a18.28,18.28,0,0,0-6.52,1.21,17.1,17.1,0,0,0-11.11,16.25V755.77a27.11,27.11,0,0,0,27.08,27.08h59.45a27.14,27.14,0,0,0,25-37.7c-20.59-49-47.82-92.32-80.91-128.84h0A17.14,17.14,0,0,0,1540.21,610.43Z"/><g class="cls-6"><path class="cls-1" d="M1555.09,651.1V779a29.42,29.42,0,0,0,.7,6.35h-6.15a29.59,29.59,0,0,1-29.55-29.6V627.9c0-18.4,22.6-26.9,34.9-13.25q7.65,8.4,14.75,17.25A19.66,19.66,0,0,0,1555.09,651.1Z"/></g><path class="cls-1" d="M987.92,1077.85H884.2a60,60,0,0,1-55.56-82.33C896,826.47,936,659.3,938.15,536.89a62.58,62.58,0,0,1,70-60.81L1114,488.58c29.21,3.45,52.36,27,55.06,56.1,13.44,145.27-22.56,332.37-91.72,476.66A99.76,99.76,0,0,1,987.92,1077.85Zm12.88-572.2a32.86,32.86,0,0,0-21.59,8.09,31.82,31.82,0,0,0-11.06,23.68c-2.29,127.75-41.94,294.39-111.64,469.21a29.79,29.79,0,0,0,3,28.15,29.39,29.39,0,0,0,24.68,13.07H987.92a69.62,69.62,0,0,0,62.34-39.48c67-139.75,101.87-320.67,88.89-460.93a32.63,32.63,0,0,0-28.69-29.07l-105.82-12.5h0A33,33,0,0,0,1000.8,505.65Z"/><g class="cls-8"><path class="cls-3" d="M1391.69,797.3c-19.9.1-41,.15-62.3.2l-84.25-197.65c.15-3.85.25-7.65.3-11.45A45,45,0,0,1,1284,544.55Z"/></g><g class="cls-8"><path class="cls-3" d="M1444.49,747.65c-.35,3.25-.7,6.45-1,9.7a44.91,44.91,0,0,1-22,33.75L1317.39,547l43.75,5.15Z"/></g><path class="cls-1" d="M1272.53,812.61a60.06,60.06,0,0,1-59.12-71.12c10.68-56.06,16.42-107.63,17-153.29a60,60,0,0,1,67.15-58.68l110.66,13.06c27.91,3.29,50.11,25.8,52.79,53.53,4.81,50,3.91,104.79-2.7,162.91a60.11,60.11,0,0,1-59.54,53.28h0c-39.52.14-84.63.26-126.23.31Zm17.91-253.51a29.82,29.82,0,0,0-19.81,7.5,29.47,29.47,0,0,0-10.17,22c-.66,47.41-6.57,100.73-17.58,158.5a29.69,29.69,0,0,0,6.35,24.54,30.18,30.18,0,0,0,23.3,11h0c41.57-.05,86.66-.17,126.15-.31h0a30.11,30.11,0,0,0,29.84-26.67c6.37-56,7.25-108.74,2.63-156.64a30,30,0,0,0-26.43-26.62l-110.66-13A30.2,30.2,0,0,0,1290.44,559.1Z"/><path class="cls-1" d="M1609.11,800.35h-59.45a44.63,44.63,0,0,1-44.58-44.58V627.89a35,35,0,0,1,61.05-23.33c34.43,38,62.71,83,84.07,133.81a44.64,44.64,0,0,1-41.09,62Zm-68.95-177.43a5.55,5.55,0,0,0-2,.38,4.59,4.59,0,0,0-3.11,4.59V755.77a14.6,14.6,0,0,0,14.58,14.58h59.45a14.34,14.34,0,0,0,12.13-6.51,14.49,14.49,0,0,0,1.3-13.85c-20-47.66-46.5-89.82-78.64-125.29h0A4.93,4.93,0,0,0,1540.16,622.92Z"/><path class="cls-1" d="M720.79,877H710.64a158.53,158.53,0,0,1-91.46-28.87L430.82,715.77a65.88,65.88,0,0,0-38.13-12.07h-37.8a67.27,67.27,0,0,0-18.42,2.57L229.55,737.11a15,15,0,0,1-13.47-26.17A172.92,172.92,0,0,0,255,667.77l133.5-210.65a186.56,186.56,0,0,1,157.67-86.77h174.1A160,160,0,0,1,874.84,489.26l2.86,10.94a185.07,185.07,0,0,1-.5,97.06L820.9,800.85A104.15,104.15,0,0,1,720.79,877ZM354.89,673.7h37.8a95.72,95.72,0,0,1,55.39,17.54L636.41,823.58A128.71,128.71,0,0,0,710.64,847h10.15A74.08,74.08,0,0,0,792,792.85l56.29-203.59v0a155.24,155.24,0,0,0,.41-81.37l-2.87-11a130,130,0,0,0-125.54-96.55H546.19a156.56,156.56,0,0,0-132.33,72.83L280.36,683.83q-3,4.68-6.17,9.19l54-15.58A97.1,97.1,0,0,1,354.89,673.7Z"/><path class="cls-10" d="M1317.44,1175.35H604.09A741.92,741.92,0,0,1,401.35,1147c-266-75.6-393.4-149.2-401-231.6-5.59-60.79,53-119.43,184.27-184.57A175.74,175.74,0,0,0,216,711a15.1,15.1,0,0,1,5.83-2.84l106.36-30.68a97.1,97.1,0,0,1,26.7-3.74h37.8a95.72,95.72,0,0,1,55.39,17.54L636.41,823.58A128.71,128.71,0,0,0,710.64,847h10.15A74.08,74.08,0,0,0,792,792.85l56.29-203.59a155.21,155.21,0,0,0,.42-81.39l-2.87-11a130,130,0,0,0-125.54-96.55H546.19a15,15,0,0,1-11.61-24.5l47-57.45a126.14,126.14,0,0,1,98-46.4H882a115.2,115.2,0,0,1,110-79.15h73.5c223.21,0,434.15,108.29,564.24,289.66l51.75,72.1a155.06,155.06,0,0,0,102.69,60.53l533.76,62.31a79.86,79.86,0,0,0,80.23-43.08l128.1-252.94a15,15,0,0,1,17.91-7.53l80.45,25.5a15,15,0,0,1,10.1,17.64l-65.95,289a15.24,15.24,0,0,0,12.79,18.46l87.22,11.94A15,15,0,0,1,2681,756.09l-27.5,81.55a15,15,0,0,1-13.5,10.19l-764.9,36.85a276.45,276.45,0,0,0-188.38,86.44l-72.6,76.65A410.44,410.44,0,0,1,1317.44,1175.35Zm-1085.18-439A206.56,206.56,0,0,1,198,757.74C82.48,815,26.05,867.15,30.24,912.68c6.13,66.55,133.74,135.69,379.3,205.49a711.72,711.72,0,0,0,194.55,27.18h713.35a380.27,380.27,0,0,0,274.86-118.22l72.6-76.64a306.25,306.25,0,0,1,208.73-95.77l754.67-36.36,18.43-54.66-69.28-9.49a45.23,45.23,0,0,1-37.93-54.85l62.88-275.53-55.14-17.48L2424.93,647.93a110,110,0,0,1-110.48,59.32l-534-62.35a185.56,185.56,0,0,1-123.14-72.59L1605.36,500c-124.48-173.54-326.3-277.15-539.87-277.15H992a85.47,85.47,0,0,0-84,67.4A15,15,0,0,1,893.39,302H679.59a96.23,96.23,0,0,0-74.74,35.4l-27,33H720.29A160,160,0,0,1,874.84,489.26l2.86,10.94a185.07,185.07,0,0,1-.5,97.06L820.9,800.85A104.15,104.15,0,0,1,720.79,877H710.64a158.53,158.53,0,0,1-91.46-28.87L430.82,715.77a65.88,65.88,0,0,0-38.13-12.07h-37.8a67.27,67.27,0,0,0-18.42,2.57Z"/><path class="cls-1" d="M1317.44,1175.35H604.09A741.92,741.92,0,0,1,401.35,1147c-266-75.6-393.4-149.2-401-231.6-5.59-60.79,53-119.43,184.27-184.57A175.74,175.74,0,0,0,216,711a15.1,15.1,0,0,1,5.83-2.84l106.36-30.68a97.1,97.1,0,0,1,26.7-3.74h37.8a95.72,95.72,0,0,1,55.39,17.54L636.41,823.58A128.71,128.71,0,0,0,710.64,847h10.15A74.08,74.08,0,0,0,792,792.85l56.29-203.59a155.21,155.21,0,0,0,.42-81.39l-2.87-11a130,130,0,0,0-125.54-96.55H546.19a15,15,0,0,1-11.61-24.5l47-57.45a126.14,126.14,0,0,1,98-46.4H882a115.2,115.2,0,0,1,110-79.15h73.5c223.21,0,434.15,108.29,564.24,289.66l51.75,72.1a155.06,155.06,0,0,0,102.69,60.53l533.76,62.31a79.86,79.86,0,0,0,80.23-43.08l128.1-252.94a15,15,0,0,1,17.91-7.53l80.45,25.5a15,15,0,0,1,10.1,17.64l-65.95,289a15.24,15.24,0,0,0,12.79,18.46l87.22,11.94A15,15,0,0,1,2681,756.09l-27.5,81.55a15,15,0,0,1-13.5,10.19l-764.9,36.85a276.45,276.45,0,0,0-188.38,86.44l-72.6,76.65A410.44,410.44,0,0,1,1317.44,1175.35Zm-1085.18-439A206.56,206.56,0,0,1,198,757.74C82.48,815,26.05,867.15,30.24,912.68c6.13,66.55,133.74,135.69,379.3,205.49a711.72,711.72,0,0,0,194.55,27.18h713.35a380.27,380.27,0,0,0,274.86-118.22l72.6-76.64a306.25,306.25,0,0,1,208.73-95.77l754.67-36.36,18.43-54.66-69.28-9.49a45.23,45.23,0,0,1-37.93-54.85l62.88-275.53-55.14-17.48L2424.93,647.93a110,110,0,0,1-110.48,59.32l-534-62.35a185.56,185.56,0,0,1-123.14-72.59L1605.36,500c-124.48-173.54-326.3-277.15-539.87-277.15H992a85.47,85.47,0,0,0-84,67.4A15,15,0,0,1,893.39,302H679.59a96.23,96.23,0,0,0-74.74,35.4l-27,33H720.29A160,160,0,0,1,874.84,489.26l2.86,10.94a185.07,185.07,0,0,1-.5,97.06L820.9,800.85A104.15,104.15,0,0,1,720.79,877H710.64a158.53,158.53,0,0,1-91.46-28.87L430.82,715.77a65.88,65.88,0,0,0-38.13-12.07h-37.8a67.27,67.27,0,0,0-18.42,2.57Z"/><path class="cls-5" d="M2703.73,793.73c-10.41,43.33-37.19,75.08-63,77.31h-5.37a26.71,26.71,0,0,1-5-.72c-11.19-2.68-20.09-11.26-26.05-23.63-9.49-19.31-11.72-48-4.52-78,5-21.14,14-39.47,24.88-53,10.08-12.63,21.8-21.08,33.58-23.63h15C2701.89,699,2715.57,744.5,2703.73,793.73Z"/><path class="cls-1" d="M2635.32,873.54a28.43,28.43,0,0,1-5.56-.79c-11.61-2.78-21.2-11.42-27.72-25-10-20.38-11.78-50.15-4.7-79.63,5-20.83,13.73-39.51,25.36-54,10.68-13.39,22.79-21.86,35-24.51l.53-.06,15.58.07c30,7.26,44.49,54.21,32.35,104.68h0c-10.46,43.55-37.9,76.86-65.26,79.22Zm23.18-179c-11,2.47-22,10.31-31.9,22.69-11.17,13.93-19.6,31.92-24.39,52-6.82,28.39-5.2,56.9,4.32,76.28,5.87,12.18,14.3,19.89,24.4,22.31a23.27,23.27,0,0,0,4.49.65h5.27c25.06-2.17,50.64-33.88,60.6-75.39h0c11.47-47.61-1.26-91.72-28.37-98.57Z"/><path class="cls-5" d="M2630.34,870.3a28.77,28.77,0,0,0,5,.75h-74.9a29.69,29.69,0,0,1-4.7-.75c-24.3-5.85-37.85-39.2-34.3-79.1a151.74,151.74,0,0,1,3.7-22.5,155.13,155.13,0,0,1,5.85-19c14.75-38.7,42.7-63.65,67.6-57.7h59.65c-11.8,2.55-23.5,11-33.6,23.65a125.41,125.41,0,0,0-19,34,139.43,139.43,0,0,0-5.85,19,146.23,146.23,0,0,0-3.65,22.5c-1.95,21.5,1.05,41.1,8.15,55.5C2610.24,859.05,2619.14,867.65,2630.34,870.3Z"/><path class="cls-1" d="M2635.34,873.55h-74.9a31.85,31.85,0,0,1-5.32-.83c-25-6-39.91-39.64-36.17-81.74a155,155,0,0,1,3.76-22.87,157.82,157.82,0,0,1,5.95-19.25c15.59-40.91,44.48-65.23,70.22-59.31h82.75l-22.86,4.94c-11.07,2.4-22.19,10.27-32.17,22.77A123.19,123.19,0,0,0,2608,750.63a137.55,137.55,0,0,0-5.75,18.64,145.44,145.44,0,0,0-3.6,22.13c-1.88,20.8.92,40,7.9,54.2,5.88,12.19,14.31,19.88,24.39,22.27h0a26.85,26.85,0,0,0,4.56.69Zm-44.1-179.86c-21.35,0-44.82,22.6-57.92,56.95a153.8,153.8,0,0,0-5.75,18.65,150.44,150.44,0,0,0-3.64,22.13c-3.52,39.58,9.8,71,32.4,76.45a27.55,27.55,0,0,0,4.35.69h59c-7.11-4.34-13.09-11.37-17.62-20.76-7.37-14.95-10.35-35.13-8.39-56.81a151,151,0,0,1,3.71-22.87,142.24,142.24,0,0,1,5.95-19.27,128.36,128.36,0,0,1,19.38-34.7c6.92-8.67,14.44-15.29,22.18-19.59l-46.86-.07A29.07,29.07,0,0,0,2591.24,693.69Z"/><g class="cls-4"><path class="cls-3" d="M2605.64,749.75a139.43,139.43,0,0,0-5.85,19,146.23,146.23,0,0,0-3.65,22.5h-74.7a151.74,151.74,0,0,1,3.7-22.5,155.13,155.13,0,0,1,5.85-19Z"/></g><path class="cls-1" d="M2640.69,886h-6a40.14,40.14,0,0,1-7.88-1.13c-15.16-3.63-28-14.9-36.07-31.71-11.38-23.16-13.44-55.26-5.58-88,5.38-22.6,15-43,27.75-58.9,12.49-15.64,27-25.65,42.11-28.91a14.81,14.81,0,0,1,3.18-.34h15a15,15,0,0,1,3.53.42c37.3,9,55.55,61.63,41.56,119.75-11.87,49.4-43.26,85.9-76.33,88.74Q2641.34,886,2640.69,886Zm-5-30H2640c17-1.95,39.84-26.87,49.19-65.81h0c10.28-42.72-1.1-77.35-18-83.15H2660c-7.74,2.16-16.09,8.49-23.67,18-9.89,12.33-17.7,29.07-22,47.14-6.16,25.66-4.89,51,3.39,67.87,3,6.15,8.1,13.75,16.1,15.66A12.42,12.42,0,0,0,2635.71,856Z"/><g class="cls-4"><path class="cls-3" d="M237.14,712.6,309.19,697s-.05.1-.1.15c-21.25,4.65-48.8,10.65-72.25,15.75A1.33,1.33,0,0,1,237.14,712.6Z"/><path class="cls-1" d="M228.86,717.14l7.75-7,75.08-16.31V698l-1.38,1.37-.69.15c-21.25,4.65-48.8,10.66-72.25,15.76Z"/></g><g class="cls-6"><path class="cls-1" d="M605.69,1062.85l79.14-68.47a138.48,138.48,0,0,1,85.7-33.67l602.17-21.33a84.33,84.33,0,0,1,73.43,37.92l22.28,33.88-49.82,43-103.89,8.63Z"/></g></g></g></svg>