<svg xmlns="http://www.w3.org/2000/svg" viewBox="0 0 98.64 163.18"><defs><style>.cls-1{fill:#ffd348;}</style></defs><g id="Layer_2" data-name="Layer 2"><g id="Object"><path class="cls-1" d="M83.35,162.87c18.36-23,17.74-56.49,10.83-83.47C90.75,66,84.87,54,75.36,43.91,66.16,34.13,55,26.48,43.54,19.56c-2.3-1.4-4.41,2.21-2.11,3.6,10.48,6.35,20.71,13.26,29.35,22,9.66,9.77,15.8,21.15,19.39,34.37,3.79,14,5.75,28.69,4.53,43.18-1.19,14.19-5.88,26.72-12.82,39-.5.88.78,2,1.47,1.13Z"/><path class="cls-1" d="M42.79,21.78A74,74,0,0,1,53,2.9C53.84,1.7,52.64,0,51.29,0,34.88.27,18.47,1,2.07,1.55a2.06,2.06,0,0,0-2,2.58q8.55,23.33,15,47.32a2.16,2.16,0,0,0,3.13,1.28A53.94,53.94,0,0,0,34.61,38.92c1.7-2.13-1.3-5.17-3-3A52.73,52.73,0,0,1,16,49.05l3.13,1.27Q12.59,26.37,4,3.05l-2,2.57c16.4-.57,32.83-.93,49.22-1.76-.56-1-1.11-1.94-1.67-2.9a68.65,68.65,0,0,0-9.34,20.13c-.47,1.63,1.95,2.25,2.51.69Z"/><path class="cls-1" d="M83.64,161.52c-1.57-9-2.94-18.09-3.84-27.2a1.71,1.71,0,0,0-2.53-1.46c-7.14,3.74-14.16,7.7-21.22,11.59L58.57,147c16.79-38.11,7.44-82.59-24-110.11-2.24-2-5.54,1.32-3.29,3.29,29.74,25.9,39.88,68.6,24.12,105-.69,1.61.78,3.49,2.52,2.52,7-3.93,14.11-7.78,21.06-11.86l-2.47-1c1.29,9.21,2.86,18.3,5,27.34.33,1.41,2.38.8,2.13-.58Z"/><path class="cls-1" d="M66.68,109.3c3.22,5.4,8.25,9.82,11.83,15a98.83,98.83,0,0,1,9.76,18c1,2.48,5.12,1.4,4.07-1.12a89.74,89.74,0,0,0-10.42-18.84c-3.74-5.1-8.32-11.34-14.08-14.21a.85.85,0,0,0-1.16,1.16Z"/><path class="cls-1" d="M64,121.5a52.63,52.63,0,0,0,3.86,7.55c1.44,2.36,2.86,5.24,5,7,1,.86,3.18.08,2.54-1.48-1.06-2.61-3.15-4.86-4.78-7.16s-3.3-4.62-5.08-6.83c-.56-.69-1.89.06-1.54.9Z"/><path class="cls-1" d="M64.39,92.53c4.44,5.22,10.29,9.53,15.22,14.32s9.53,10.22,14.3,15.35c1.4,1.49,4.17-.53,2.9-2.24a120.54,120.54,0,0,0-14.59-15.72c-4.94-4.6-10.77-10-17-12.83a.71.71,0,0,0-.86,1.12Z"/><path class="cls-1" d="M60.42,78.06c13.07,5.23,23.31,13.38,33.72,22.71,2,1.74,4.83-1.15,2.87-2.87-10.32-9-22-19.54-36.15-21.45a.83.83,0,0,0-.44,1.61Z"/><path class="cls-1" d="M53.54,64a91.71,91.71,0,0,1,19.19,7.91c5.48,2.9,13,5.8,16.89,10.85a2,2,0,1,0,3.22-2.49c-4.25-5.38-11.55-8.11-17.6-10.91A92.61,92.61,0,0,0,54,62.2c-1.17-.22-1.68,1.49-.5,1.8Z"/><path class="cls-1" d="M46.57,52.79a156.49,156.49,0,0,1,19.76,6.06c6,2.37,11.51,5.89,17.46,8.35-.43-.77-.87-1.54-1.31-2.31l0,.14,2.07-1.17-.12,0a1.58,1.58,0,0,0-1.72.7l-.06.09a1.73,1.73,0,0,0,.6,2.3l.13.08a1.89,1.89,0,0,0,2.83-1.62c-.2-2.47-2.26-3-4.28-4.08A96.41,96.41,0,0,0,70.7,56.46a111.71,111.71,0,0,0-23.85-5.77c-1.2-.15-1.43,1.82-.28,2.1Z"/><path class="cls-1" d="M40.69,44.86c5.05-1.18,10.93-.37,16.06.09,5.8.52,11.47,1.58,17.18,2.65,2.39.45,3.43-3.18,1-3.68a111.64,111.64,0,0,0-19.12-2.08c-4.65-.14-11.69-1.14-15.72,1.64a.76.76,0,0,0,.59,1.38Z"/><path class="cls-1" d="M16,40.94c6.73-.73,13-3.26,19.67-4.4,7.94-1.36,15.8-.44,23.75-1a2,2,0,0,0,0-3.94,75.63,75.63,0,0,0-22.12.75c-7.46,1.31-14.18,5-21.6,6.39-1.22.24-1,2.34.3,2.2Z"/><path class="cls-1" d="M12.84,28.35C18.29,27.23,23.65,25.8,29.17,25s11.23-.31,16.52-1.58a1.65,1.65,0,0,0,0-3.15c-5.24-1.16-11.35.08-16.58,1a64.85,64.85,0,0,0-17,5.31c-1,.5-.27,1.93.73,1.73Z"/><path class="cls-1" d="M7.89,15.64c6.44.14,13-1.53,19.53-1.75,6-.2,12.31,1,18.24.16,2.06-.29,1.59-3.17,0-3.72-6-2.1-13.9-1.12-20.11-.38-5.92.7-12.76,1.46-18,4.39a.7.7,0,0,0,.35,1.3Z"/></g></g></svg>