<svg xmlns="http://www.w3.org/2000/svg" viewBox="0 0 144.12 187.09"><defs><style>.cls-1{fill:#ffd348;}</style></defs><g id="Layer_2" data-name="Layer 2"><g id="Object"><path class="cls-1" d="M62.47,125.39c8.76,8.32,19.35,14.54,30.44,19.27v-3.48A345.43,345.43,0,0,1,1.5,183.07l2.6,2A307.82,307.82,0,0,1,17.37,97.69l-3.05,1.24q15.59,7.16,31.17,14.3a2.28,2.28,0,0,0,3-.79Q86,56.82,126.46,3.29l-3,.79,17.36,7.85c-.27-1-.53-2-.8-3Q102.17,67.31,64.24,125.66c-1.52,2.34,2.23,4.51,3.74,2.18q37.89-58.36,75.84-116.71a2.22,2.22,0,0,0-.79-3L125.67.26a2.32,2.32,0,0,0-3,.8Q82.2,54.57,44.7,110.21l3-.79q-15.63-7.07-31.3-14.08a2.11,2.11,0,0,0-3.05,1.24A320.18,320.18,0,0,0,0,185a2.07,2.07,0,0,0,2.59,2,331.18,331.18,0,0,0,92.35-42.36,2,2,0,0,0-.48-3.69c-11-4.46-20.91-10.59-30.64-17.34-1-.72-2.26.89-1.35,1.76Z"/><path class="cls-1" d="M4.88,173.85c14.78-3.74,29.65-6.17,44.71-8.43,2.27-.34,2.85-3.2,2-4.9-3-5.9-13.49-3.76-18.65-3.49A194,194,0,0,0,5.56,160.5l1.56,5.65q24.74-5,49.49-9.88c4.21-.84,2.38-7.07-1.76-6.38a419.63,419.63,0,0,1-47.56,5.35q.43,3.24.88,6.48a463.76,463.76,0,0,1,53-11.11c4.36-.66,2.49-7.24-1.82-6.62A428,428,0,0,1,9,148.28c.3,2.25.61,4.5.91,6.75,19-3.73,38-7.29,57-10.92,4-.77,3.17-7.64-1-7.24-16.57,1.57-33.11,3.32-49.66,5q.48,3.58,1,7.17a326.11,326.11,0,0,1,44-8.79l-1-7.35a355.73,355.73,0,0,1-47.86,4.66c.32,2.41.65,4.83,1,7.24a335.18,335.18,0,0,1,48.14-9c4.87-.56,5.06-8.16,0-7.77q-22.63,1.74-45.25,3.71.51,3.84,1,7.69c12.86-5.36,26.41-7,40.17-8.3v-7.81c-16.17,2-32.66,4.07-48.85,1.19v7.66q22.94-3.63,45.88-7.19c4.42-.69,3.43-8.29-1.06-7.87a195.09,195.09,0,0,1-36.33,0l1.08,8a88.4,88.4,0,0,1,23.57-4.43v-8.11a144.62,144.62,0,0,1-31.61-.08v8.13a452,452,0,0,1,54.59-.76v-8.18l-31.29,2,1.1,8.1q18.9-4.29,37.63-9.36c4.39-1.19,3.69-8.64-1.11-8.18L51.39,106c.7,2.6,1.41,5.2,2.11,7.8a135.78,135.78,0,0,1,25.8-10.12c5.32-1.5,3-9.12-2.25-8.16L55.48,99.4l3.28,7.8A194,194,0,0,1,84,97.53c5.35-1.64,3.12-9.37-2.29-8.31L64.57,92.6q1.67,4,3.34,7.92A80.29,80.29,0,0,1,89.37,90c5.38-1.69,3.17-9.59-2.33-8.43L69,85.42l3.39,8A98.51,98.51,0,0,1,94.32,82c-1.15-2.72-2.29-5.44-3.44-8.15a46.93,46.93,0,0,1-16,3.63c.76,2.8,1.51,5.6,2.27,8.4A84.22,84.22,0,0,1,95.68,75.62C101,73.53,99,65,93.25,66.81c-5.2,1.62-10.4,3.22-15.6,4.85q1.77,4.2,3.55,8.42a131.18,131.18,0,0,1,24.25-14.33l-4.68-8a66.26,66.26,0,0,1-14.49,5.73q2.27,3.88,4.52,7.77a114.38,114.38,0,0,1,17.13-12.1c5.35-3.09.66-10.34-4.71-8L89.77,56.83l5.66,7.35a231.18,231.18,0,0,1,19.23-15.09c4-2.82,1.68-10.73-3.62-8.59L94.82,47q2.3,3.93,4.58,7.88a117.56,117.56,0,0,1,21.15-15.19l-4.78-8.19a37.71,37.71,0,0,1-14.68,6.51l4.62,8a173,173,0,0,1,26.17-20.7c5.15-3.32.5-11.44-4.83-8.26a111.88,111.88,0,0,1-18.79,9q2.33,4,4.67,8A217.83,217.83,0,0,1,131,20c5-3.52.28-11.84-4.85-8.31a61.94,61.94,0,0,1-15.53,7.84l3.72,8.81q9.47-7.14,18.38-15c3.42-3,.41-7.89-3.41-8.24a7.55,7.55,0,0,0-6,2.27c-4.64,4.16,2.21,11,6.83,6.83l-.82.55-3.42-8.23c-5.3,4.7-10.76,9.21-16.42,13.48-4,3-1.93,10.71,3.72,8.81A71.66,71.66,0,0,0,131,20l-4.85-8.31a241.87,241.87,0,0,0-20,15.63c-3.54,3.07.2,9.67,4.67,8a124.33,124.33,0,0,0,21.07-10L127.05,17A185.62,185.62,0,0,0,99,39.27c-3.59,3.46.17,8.89,4.63,7.95a44.19,44.19,0,0,0,16.93-7.49c4.85-3.51.64-11.26-4.78-8.19a129.5,129.5,0,0,0-23,16.71c-3.33,3,.16,9.67,4.58,7.88l16.22-6.57L109.91,41A255.44,255.44,0,0,0,88.82,57.56c-4.35,3.81,1.2,9.26,5.67,7.35l13.44-5.76-4.71-8a126.92,126.92,0,0,0-19,13.58c-3.63,3.12.26,8.91,4.52,7.76a76.61,76.61,0,0,0,16.7-6.69c5.33-2.89.65-10.43-4.68-8A131.68,131.68,0,0,0,76.55,72.12C72.68,75,74.7,82.24,80.1,80.54l15.58-4.92-2.43-8.81a93.4,93.4,0,0,0-20.7,11.28c-3.28,2.39-2.61,8.68,2.28,8.4a59.28,59.28,0,0,0,20.55-4.94c4.59-2,1.3-9.93-3.43-8.15A109,109,0,0,0,68,85.86a4.42,4.42,0,0,0,3.39,8l18-3.89c-.78-2.81-1.55-5.62-2.33-8.43A89.12,89.12,0,0,0,63.53,93,4.36,4.36,0,0,0,66.87,101L84,97.53q-1.14-4.16-2.29-8.31A212,212,0,0,0,54.46,99.83c-4.65,2.2-1.16,8.61,3.28,7.8l21.56-3.94-2.25-8.16a146.91,146.91,0,0,0-27.78,11c-3.54,1.85-2.05,8.22,2.12,7.81L71,112.45l-1.1-8.18q-18.72,5.1-37.62,9.44c-4.47,1-3.58,8.41,1.1,8.1l31.29-2c5.23-.35,5.29-8,0-8.18a458.2,458.2,0,0,0-54.59.81c-5.29.4-5.15,7.55,0,8.13a144,144,0,0,0,31.61.06c5.07-.55,5.31-8.37,0-8.11A96.66,96.66,0,0,0,16,117.2c-4.48,1.48-3.44,7.54,1.07,8a193.39,193.39,0,0,0,36.33-.07c-.36-2.63-.71-5.25-1.07-7.87q-22.92,3.63-45.86,7.25c-3.83.6-3.75,7,0,7.66,17,3.05,34,1.21,51-1,4.86-.65,5-8.34,0-7.81-14.3,1.52-28.83,3.1-42.25,8.56-3.71,1.51-3.78,8.07,1,7.69q22.64-1.82,45.25-3.77V128a396.48,396.48,0,0,0-50.09,9.69c-4,1-3.21,7.33,1,7.24a337.36,337.36,0,0,0,49.85-4.81c4.8-.84,2.67-7.86-2-7.22a360.17,360.17,0,0,0-45,9.1c-3.85,1-3.23,7.58,1,7.17,16.55-1.63,33.11-3.19,49.66-4.92-.33-2.41-.66-4.83-1-7.24C46,140.81,27.05,144.7,8.09,148.41c-3.82.74-2.92,6.84.92,6.74a419.25,419.25,0,0,0,52.12-4.54L59.31,144a502.44,502.44,0,0,0-52.9,11.37c-3.52.95-2.91,6.67.88,6.48a372.76,372.76,0,0,0,49.32-5.57c-.58-2.13-1.17-4.25-1.76-6.38Q30.21,155.2,5.56,160.5c-3.72.79-2.11,6.29,1.56,5.65a185.81,185.81,0,0,1,21-2.52q4.77-.28,9.56-.33c1.16,0,7.51-.63,8.09.59l2-4.91C32.88,161.09,18.06,165,3.71,169.6c-2.69.86-1.59,5,1.17,4.25Z"/><path class="cls-1" d="M48.76,155.68l-.48.26a1.79,1.79,0,0,0-.81,2l.12.65a1.8,1.8,0,0,0,1.26,1.26c3.73.95,9-2.22,12.4-3.51l17.2-6.5c3.32-1.26,2-6.42-1.5-5.42-12,3.39-23.8,7.52-35.67,11.32-3,1-1.78,5.32,1.31,4.74,9.71-1.83,19.33-4.33,29-6.58l-2.21-5.24C61.16,154,52,156.78,42.67,159.41c-3.56,1-2,6,1.5,5.45a115.33,115.33,0,0,0,34.71-11.51c3.09-1.61,1-7-2.41-5.73-12.67,4.65-25.41,9.4-39.08,9.44q.42,3.12.85,6.26c14.52-4.24,29.07-8.34,43.63-12.43,1.93-.54,3.45-3.25,2.06-5.07-3.56-4.66-8.59-2.95-13.71-2.19a184.4,184.4,0,0,1-24.28,2c.6,2.22,1.2,4.45,1.81,6.67,4.74-2.94,11.63-3.36,17-4.55,5.82-1.27,11.63-2.55,17.45-3.79,3.61-.77,3.28-6,0-7-5.07-1.47-10.78-.87-16-.91q-9-.06-18-.08l1.89,7c6.09-2.64,12.8-2.55,19.31-2.49a3.78,3.78,0,0,0,3.23-5.64c-2.79-5.41-12.29-3.58-17.28-3.7q1,3.51,1.9,7a18.38,18.38,0,0,1,8.24-3.3c4.69-.59,5-7.29,0-7.52a160.87,160.87,0,0,0-29.43,1.26c-3.89.53-3,7.24.94,6.9a220.24,220.24,0,0,1,28.49-.64v-7.52a26.27,26.27,0,0,0-12,4.34c-3,2-2,6.91,1.89,7l6.57.14,2.82.06c2,.37,2.43.29,1.42-.24l3.24-5.64c-8-.06-15.63.29-23.09,3.53-3.55,1.54-1.56,7,1.89,7q8,0,16,0c5.13,0,11.14-.9,16.1.48v-7c-6.45,1.45-12.92,2.85-19.38,4.27-5.58,1.23-11.88,1.8-16.81,4.86-2.94,1.83-1.84,6.74,1.81,6.68,5.63-.09,11.25-.4,16.86-1,2.18-.24,4.36-.51,6.53-.83,1.36-.19,8.11-2.26,9.19-.91q.75-2.88,1.52-5.76-21.72,6.56-43.5,12.93c-3.42,1-2.8,6.26.85,6.26,14.25,0,27.61-4.67,40.74-9.77-.8-1.9-1.61-3.81-2.41-5.72a104.85,104.85,0,0,1-33,11.47l1.5,5.45c9.78-2.69,19.58-5.53,28.06-11.26,2.65-1.78,1-6-2.2-5.24-9.59,2.39-19.28,4.56-28.75,7.37.44,1.58.87,3.16,1.31,4.74,11.94-3.51,24-6.72,35.86-10.64l-2.17-5.14c-2.55,1.1-26.18,9.89-25.41,12.3l-.81,2,.45-.31a1.73,1.73,0,0,0-1.75-3Z"/><path class="cls-1" d="M21.51,170.54l13.93-.77c2.75-.16,2.77-4.45,0-4.3a96.47,96.47,0,0,0-27.83,5.77,2.07,2.07,0,0,0,1.1,4c12.51-1.76,24.91-3.55,37.53-4.36,3.8-.24,3.75-6.27,0-5.91-2,.2-4,.47-5.93.86-2.15.43-2.15,3.93,0,4.36a36.9,36.9,0,0,0,5.93.69V165c-12.94,1.35-26,3.09-38.63,6.29.37,1.32.73,2.65,1.1,4a99.21,99.21,0,0,1,26.73-5.45v-4.3l-13.93.94c-2.64.18-2.67,4.28,0,4.13Z"/><path class="cls-1" d="M50.18,166.12a10.79,10.79,0,0,0,8.08-2.59,2.49,2.49,0,0,0,.2-3.3,2.58,2.58,0,0,0-3.24-.65,20.37,20.37,0,0,1-2.56,1.07,23,23,0,0,0-2.85.77c-1.34.55-2.14,2.74-.46,3.52a9.21,9.21,0,0,0,8.41-1l-3-3.94a6.6,6.6,0,0,1-4.53,2.57,1.79,1.79,0,0,0,0,3.57Z"/></g></g></svg>