<svg xmlns="http://www.w3.org/2000/svg" viewBox="0 0 195.92 102.28"><defs><style>.cls-1{fill:#ffd348;}</style></defs><g id="Layer_2" data-name="Layer 2"><g id="Object"><path class="cls-1" d="M1.6,98.64c1.28-9,4.64-15.46,13-19.82C23.28,74.28,33,74.1,42.19,77,52.68,80.35,62,86.52,71.65,91.57c6.45,3.36,15.36,8.6,22.87,5.64,8.25-3.26,6.21-14.13,7-21.12,1.19-10.86,5.34-22.39,15.53-27.81,9.31-5,18.27-2.5,25.09,5,4.64,5.12,8.39,11.73,14.51,15.28a13.8,13.8,0,0,0,17.62-2.92c5.33-6.31,6-15.83,5.77-23.71-.06-2.38-3.77-2.39-3.71,0,.2,7.53-.14,19.25-7.55,23.63-8.08,4.77-14.88-3.74-19.39-9.31s-9.15-11.58-16.26-13.6c-7.6-2.16-15.93.39-22,5.17C104.44,53.09,100.72,61.14,99,69.28a79.4,79.4,0,0,0-1.48,14c-.09,2.66.13,5.78-1.33,8.14-2.36,3.8-7.13,3.36-10.81,2.36C66.53,88.64,51.67,72,31.18,71.8A36.2,36.2,0,0,0,8.73,79.33c-5.6,4.42-10.61,12-8,19.31.14.38.83.5.91,0Z"/><path class="cls-1" d="M1.45,98.31c8.87-14.45,26.9-21.39,43.31-17.43,9.25,2.23,15,8.26,21.88,14.3,5.46,4.77,12.1,8.57,19.56,6.54,19.38-5.28,18-29.62,24-44.42,3.83-9.43,15.43-19.69,25.33-11.48,6.54,5.42,8.3,14.6,14.63,20.23,4.71,4.2,12.7,7.68,18.48,3.48,3.09-2.25,4.1-5.86,4.6-9.48.79-5.86,1.84-12.39,1.36-18.28-.14-1.76-2.69-2.3-3.2-.43-2,7.15,1.25,27.81-10.53,26-9.4-1.45-12.83-11.09-17.39-18-3.85-5.85-9.33-10.76-16.79-10.3s-14.07,6.15-17.8,12.38c-5.06,8.46-5.48,18.78-8.16,28.07-2.57,8.92-9.38,20.17-20.15,19.16C71.3,97.77,65.51,88.3,58.39,83.35a38,38,0,0,0-19.32-6.49C23.61,75.91,7.35,83.48.21,97.58a.72.72,0,0,0,1.24.73Z"/><path class="cls-1" d="M173.08,58.87c1.48-7.39,3.1-16.42,1.71-23.88a1.18,1.18,0,0,0-2.26,0c-.65,3.63-.36,7.41-.54,11.1-.2,4.18-.55,8.35-.85,12.52a1,1,0,0,0,1.94.26Z"/><path class="cls-1" d="M177.78,58.63c.34-11.72,1.07-23.61.5-35.33a1.34,1.34,0,0,0-2.67,0c-.56,11.72.16,23.61.51,35.33a.83.83,0,0,0,1.66,0Z"/><path class="cls-1" d="M177.24,53.3c-.1-11.11,0-22.23-.36-33.33a1.3,1.3,0,0,0-2.6,0c.19,11.11.81,22.22,1.25,33.33a.86.86,0,0,0,1.71,0Z"/><path class="cls-1" d="M170.75,65.59a244.46,244.46,0,0,0,3.84-50.95c-.08-2.23-3.51-2.25-3.47,0a357.74,357.74,0,0,1-2.28,50.69c-.14,1.08,1.72,1.34,1.91.26Z"/><path class="cls-1" d="M166.25,33.66a137.18,137.18,0,0,1,10.3-22.9h-3.28a132.78,132.78,0,0,0,19.11,30c1.71,2,4.27-.54,3.35-2.59-3.35-7.43-6.93-14.76-10.8-21.94-1.72-3.18-3.25-7-5.52-9.85-.88-1.08-1.62-2-3.18-1.94-4.07.26-7.34,9-8.79,12a72.12,72.12,0,0,0-6.12,19.82,2.12,2.12,0,0,0,4.09,1.13c4-11.55,8-23.1,12.9-34.3l-3.8-.5c3.55,9,6.5,18.24,10.4,27.06.81,1.81,3.6.5,3.13-1.32-2.34-9.15-6.1-18.06-9.52-26.85-.56-1.45-3-2.31-3.8-.49-5.1,11.51-9.28,23.37-13.4,35.27l4.09,1.13a70.26,70.26,0,0,1,3.9-14.67,63.9,63.9,0,0,1,4.16-8.62,26.86,26.86,0,0,0,1.76-2.89l.94-1.4c-.62-1.55-.6-1.71,0-.48,3.43,4.05,5.69,10.15,8.11,14.87,2.72,5.3,5.28,10.68,7.73,16.12,1.11-.87,2.23-1.73,3.35-2.59-7.69-8.84-12.82-19-18.85-28.92a1.92,1.92,0,0,0-3.28,0,99.57,99.57,0,0,0-9.06,24.25,1.06,1.06,0,0,0,2,.56Z"/></g></g></svg>