<svg xmlns="http://www.w3.org/2000/svg" width="231.553" height="97.97" viewBox="0 0 231.553 97.97">
  <g id="Cloud" transform="translate(-486.436 -89.323)">
    <path id="Path_12" data-name="Path 12" d="M666.16,92.71c-14.006-4.634-30.34,1.142-39.7,12.548a38.471,38.471,0,0,0-69.279,16.764c-7.73-2.264-16.17-3-23.768-.327s-14.126,9.245-15.156,17.234c-5.654-1.166-11.444-2.337-17.16-1.534s-11.446,3.98-13.708,9.292c-3.352,7.873,2.566,17.4,10.605,20.335s17.1.734,24.79-3.023a42.838,42.838,0,0,0,60.935,6.518,48.767,48.767,0,0,0,73.924-1.245c9.513,7.416,31.355,16.246,41.567,5.66A16.011,16.011,0,0,0,702.2,157.65a15.716,15.716,0,0,0,10.943-27.123c-9.194-8.712-19.024-2.708-25.744,5.107C687.5,118.333,685.9,98.878,666.16,92.71Z" fill="#fff"/>
    <g id="Group_5" data-name="Group 5">
      <path id="Path_13" data-name="Path 13" d="M557.184,122.022c-7.73-2.264-16.17-3-23.768-.327s-14.126,9.245-15.156,17.234c-5.654-1.166-11.444-2.337-17.16-1.534s-11.446,3.98-13.708,9.292c-3.352,7.873,2.566,17.4,10.605,20.335s17.1.734,24.79-3.023a42.837,42.837,0,0,0,60.934,6.518,48.769,48.769,0,0,0,73.925-1.245c9.513,7.416,31.355,16.246,41.567,5.66A16.011,16.011,0,0,0,702.2,157.65a15.716,15.716,0,0,0,10.943-27.123c-9.194-8.712-19.024-2.708-25.744,5.107.08-13.412-.872-28.113-10.5-36.92.867,9.706-.86,19.726-6.146,27.853-6.136,9.435-17.534,15.753-28.673,14.14-4.407-.639-8.778-2.572-11.557-6.052-3.642-4.562-3.467-11.217-7.085-15.642-2.9-3.551-7.875-5.153-11.749-7.253,4.4,2.384,6.31,8.111,5.131,12.972s-4.933,8.8-9.312,11.216a24.656,24.656,0,0,1-21.448,1.151,22.451,22.451,0,0,1-13.084-16.829c-1.191-8,2.4-16.16,7.9-22.091a49.662,49.662,0,0,1,11.209-8.758,35.89,35.89,0,0,0-5.9.908A39.439,39.439,0,0,0,557.184,122.022Z" fill="#f5fbff"/>
      <path id="Path_14" data-name="Path 14" d="M657.646,169.272c9.513,7.416,31.355,16.246,41.567,5.66A16.011,16.011,0,0,0,702.2,157.65a15.716,15.716,0,0,0,10.943-27.123,19.023,19.023,0,0,1-2.4,11.862c-2.015,3.807-5.852,6.788-10.15,7.071s-8.8-2.571-9.748-6.772c-1.291,2.476-.044,5.525,1.621,7.766s3.807,4.268,4.558,6.957c1.135,4.066-1.427,8.461-5.019,10.679s-7.968,2.7-12.186,2.876C671.911,171.287,665.1,171.917,657.646,169.272Z" fill="#dff2fd"/>
      <path id="Path_15" data-name="Path 15" d="M620.969,186.852a49.463,49.463,0,0,1-37.248-16.335A42.837,42.837,0,0,1,522.787,164c-7.689,3.757-16.751,5.956-24.79,3.023s-13.957-12.462-10.605-20.335c.3,6.833,7.378,12.34,13.967,14.177s13.62.7,20.277-.868a24.393,24.393,0,0,1-.933-12.7c5.131,7.144,11.277,14.136,19.568,17.071,4.9,1.732,10.186,1.915,15.378,1.976,6.353.074,12.813-.024,18.885-1.893s11.8-5.755,14.505-11.5c-4.055,8.6,8.386,19.915,14.245,24.1,5.967,4.265,12.7,7.313,19.427,10.241" fill="#dff2fd"/>
    </g>
  </g>
</svg>
