<svg xmlns="http://www.w3.org/2000/svg" width="81.902" height="50.641" viewBox="0 0 81.902 50.641">
  <g id="First_plane" data-name="First plane" transform="translate(-270.967 -123.528)">
    <g id="Group_72" data-name="Group 72">
      <path id="Path_211" data-name="Path 211" d="M352.869,173.157s-26.987,3.956-48.827-3.781a1.228,1.228,0,0,1-.763-1.5c.361-1.24.969-3.422,1.566-6.009C306.24,155.829,352.869,173.157,352.869,173.157Z" fill="#a9cbd3"/>
      <path id="Path_212" data-name="Path 212" d="M304.845,161.866c-.37,1.6-.743,3.044-1.059,4.208h0c21.808,8.649,49.083,7.083,49.083,7.083S306.24,155.829,304.845,161.866Z" fill="#8cb8bf"/>
      <path id="Path_213" data-name="Path 213" d="M309.288,136.441s.207,11.747-3,17.789,35.579,19.539,46.584,18.927c0,0-15.1-12.727-23.386-22.907A46.475,46.475,0,0,0,309.288,136.441Z" fill="#cce4ea"/>
      <path id="Path_214" data-name="Path 214" d="M306.285,154.23c-3.21,6.042,35.579,19.539,46.584,18.927-17.579-5.634-41.657-25.633-41.657-25.633a41.336,41.336,0,0,0-1.924-11.083S309.495,148.188,306.285,154.23Z" fill="#a9cbd3" opacity="0.5"/>
      <path id="Path_215" data-name="Path 215" d="M297.457,139.68c-1.124.2-6.351,1.071-11.875,1.554-8.3.725-15.464-.694-14.533,1.531.83,1.986,13.8,14.712,32.407,21.7s41.861,9.295,49.413,8.693a182.807,182.807,0,0,1-30.8-14.778C306.664,148.991,300.68,139.1,297.457,139.68Z" fill="#f7fcfe"/>
      <path id="Path_216" data-name="Path 216" d="M352.869,173.157s-10.155-10.479-16.064-21.886c-7.74-14.938-9.576-26.4-10.4-27.494s-4.267,1.525-9.772,5.748a60.031,60.031,0,0,0-7.349,6.916S335.441,167.133,352.869,173.157Z" fill="#f7fcfe"/>
    </g>
    <path id="Path_217" data-name="Path 217" d="M293.313,142.023c-8.957,2.24-19.8.4-17.3,3.475s27.2,22.157,62.537,25.31c0,0-30.877-7.68-44.546-16-16.06-9.774-10.108-9.655-7.567-10.238A21.989,21.989,0,0,0,293.313,142.023Z" fill="#fff"/>
    <path id="Path_218" data-name="Path 218" d="M347.787,169.8s-24.037-18.572-35.869-32.917c0,0,4.911-6.606,11.027-9.874,0,0-5.057,4.618-6.6,7.623-.713,1.393.7,4.321,3.079,7.389C325.071,149.295,347.787,169.8,347.787,169.8Z" fill="#fff"/>
  </g>
</svg>
