<svg xmlns="http://www.w3.org/2000/svg" xmlns:xlink="http://www.w3.org/1999/xlink" viewBox="0 0 349.01 234.39"><defs><style>.cls-1{fill:#def1f8;}.cls-2,.cls-73,.cls-78{fill:none;}.cls-3{isolation:isolate;}.cls-4{fill:#f3ae92;}.cls-5,.cls-51{fill:#eb7c74;}.cls-10,.cls-5,.cls-50,.cls-57,.cls-9{opacity:0.5;}.cls-40,.cls-47,.cls-59,.cls-6{fill:#fff;}.cls-34,.cls-35,.cls-6,.cls-60{opacity:0.2;}.cls-7{fill:#f29297;}.cls-8{fill:#f5a9a7;}.cls-65,.cls-9{fill:#ec6469;}.cls-10{fill:#e73555;}.cls-11{fill:#16a461;}.cls-12{fill:#3ec664;}.cls-13{fill:#16935d;}.cls-14{fill:#0e7f4c;}.cls-15{fill:#ffd348;}.cls-16{fill:#ffe568;}.cls-17,.cls-18{fill:#e85d1c;}.cls-17{opacity:0.1;}.cls-17,.cls-18,.cls-34,.cls-52,.cls-53,.cls-57{mix-blend-mode:multiply;}.cls-18,.cls-40{opacity:0.3;}.cls-19{fill:#ffda60;}.cls-20{fill:#ffeaa8;}.cls-21{fill:#fecb2f;}.cls-22{fill:#f8e9d0;}.cls-23{fill:#fcf1e0;}.cls-24{fill:#f5dfce;}.cls-25{fill:#fff8ed;}.cls-26{fill:#edc1ad;}.cls-27{fill:#194a72;}.cls-28{fill:#29688c;}.cls-29{fill:#123668;}.cls-30{fill:#3c8daa;}.cls-31{fill:#0e2d54;}.cls-32{fill:url(#Degradado_sin_nombre_10);}.cls-33{fill:#28bbe2;}.cls-34{fill:#242357;}.cls-35{fill:#f5fffe;}.cls-36{fill:#007cb6;}.cls-37{fill:#00629e;}.cls-38{fill:#f8c6a3;}.cls-39,.cls-57{fill:#f2a37c;}.cls-41{fill:#eff8fc;}.cls-42{fill:#cce4ea;}.cls-43{fill:#a9cbd3;}.cls-44{fill:#e9f6fb;}.cls-45{fill:#dd8964;}.cls-46{fill:#ea4d5f;}.cls-47{opacity:0.15;}.cls-48{fill:#d65132;}.cls-49{fill:#ba422b;}.cls-50,.cls-62{fill:#ee9681;}.cls-52,.cls-53{opacity:0.7;}.cls-52{fill:url(#Degradado_sin_nombre_15);}.cls-53{fill:url(#Degradado_sin_nombre_15-2);}.cls-54{fill:#e26644;}.cls-55{fill:#ee7249;}.cls-56{fill:#f49a6e;}.cls-58{fill:#19313a;}.cls-60{fill:#bac4ca;}.cls-61{fill:#002030;}.cls-63{fill:#c9434d;}.cls-64{fill:#7c1423;}.cls-66{fill:#db545b;}.cls-67{fill:#fddebc;}.cls-68{fill:#47b;}.cls-69{fill:#71abde;}.cls-70{fill:#3e65ae;}.cls-71{fill:#295296;}.cls-72{clip-path:url(#clip-path);}.cls-73{stroke:#47b;}.cls-73,.cls-78{stroke-miterlimit:10;}.cls-74{fill:#e8914f;}.cls-75{fill:#d1783b;}.cls-76{clip-path:url(#clip-path-2);}.cls-77{fill:#c66d32;}.cls-78{stroke:#e8914f;}</style><linearGradient id="Degradado_sin_nombre_10" x1="123.72" y1="159.13" x2="123.72" y2="239.84" gradientUnits="userSpaceOnUse"><stop offset="0" stop-color="#f59d10" stop-opacity="0.5"/><stop offset="0.14" stop-color="#f59d11" stop-opacity="0.47"/><stop offset="0.36" stop-color="#f59e13" stop-opacity="0.38"/><stop offset="0.62" stop-color="#f69f17" stop-opacity="0.25"/><stop offset="0.92" stop-color="#f7a01c" stop-opacity="0.06"/><stop offset="1" stop-color="#f7a01d" stop-opacity="0"/></linearGradient><linearGradient id="Degradado_sin_nombre_15" x1="152.66" y1="52.98" x2="152.66" y2="32.37" gradientUnits="userSpaceOnUse"><stop offset="0" stop-color="#f2a37c"/><stop offset="0.09" stop-color="#f2a47d" stop-opacity="0.97"/><stop offset="0.23" stop-color="#f3a781" stop-opacity="0.88"/><stop offset="0.39" stop-color="#f4ac86" stop-opacity="0.74"/><stop offset="0.58" stop-color="#f5b38e" stop-opacity="0.55"/><stop offset="0.78" stop-color="#f6bc97" stop-opacity="0.3"/><stop offset="1" stop-color="#f8c6a3" stop-opacity="0"/></linearGradient><linearGradient id="Degradado_sin_nombre_15-2" x1="175.38" y1="51.25" x2="175.38" y2="32.33" xlink:href="#Degradado_sin_nombre_15"/><clipPath id="clip-path"><path class="cls-1" d="M173,197.83a7.73,7.73,0,0,0-5.09-2.57c-2.39-.3-7.67-.4-13.8,3.52a79.27,79.27,0,0,1-12.83,6.81c-4.19,1.83-12.95,2.49-15.6,5.82,0,0-.71,1.17-.51,4.31a6,6,0,0,0,4.22,5.87c2.9,1.16,11.34,1.74,21.85-1.73s17.44-4,21.77-10.18C176.77,204.29,174.39,199.45,173,197.83Z"/></clipPath><clipPath id="clip-path-2"><path class="cls-2" d="M136,221a17.05,17.05,0,0,1-6.07-.79,4.49,4.49,0,0,1-2.94-2.74,3.39,3.39,0,0,1,2.28-3.45,25.07,25.07,0,0,1,6.06-1.83c1.16-.24,2.48-.5,4-1a41.61,41.61,0,0,0,13.52-6.5,24,24,0,0,1,14.21-4.82h.51c4.39.1,5.21,1.28,5.78,2.39a8.58,8.58,0,0,1-1.63,6.51c-3,4.33-7.48,5.61-14.22,7.55-2,.59-4.33,1.25-6.79,2.06A47.27,47.27,0,0,1,136,221Z"/></clipPath></defs><g class="cls-3"><g id="Layer_2" data-name="Layer 2"><g id="Objects"><path class="cls-4" d="M156.15,132.16s13.41-2.17,20.08.23c4.83,1.73,10.62,5.88,12.18,18.4,0,0-16,4.7-32.26,4.85C156.15,155.64,153.65,141,156.15,132.16Z"/><path class="cls-5" d="M168.27,154.79c.43-3.69.81-9.93-.83-13.69-1.36-3.1-5.9-5.68-11.82-6.55-1.56,8.86.53,21.09.53,21.09A107,107,0,0,0,168.27,154.79Z"/><path class="cls-6" d="M176.23,132.39c-2.68-1-6.44-1.19-10-1.12,3.33.15,13.9,2.7,17,9.76a46.34,46.34,0,0,1,2.87,10.39c1.48-.38,2.33-.63,2.33-.63C186.85,138.27,181.06,134.12,176.23,132.39Z"/><path class="cls-7" d="M56.45,147.37c-6.23-1.91-5.89-2.24-11.63-4.31s-6.49-2.3-11.43-4.14-22.45-4.24-30.2,18.51c-8,23.44.91,31.09,6.14,35,8.11,6,26.87,12.84,32.29,15.06C41.62,207.45,31,169,56.45,147.37Z"/><path class="cls-7" d="M56.45,147.37c-6.23-1.91-5.89-2.24-11.63-4.31s-6.49-2.3-11.43-4.14-22.45-4.24-30.2,18.51c-8,23.44.91,31.09,6.14,35,8.11,6,26.87,12.84,32.29,15.06C41.62,207.45,31,169,56.45,147.37Z"/><path class="cls-8" d="M55.17,147.76C46.82,145.52,35.46,141,31.51,140s-9.88-.69-13.13,2.08,4.75,0,14.33,3.23,13.61,5.2,16.8,6.43S55.17,147.76,55.17,147.76Z"/><path class="cls-9" d="M28.23,167.79c-5.66-2.57-11.83-5.16-15.46-9.21-7.37-8.21-1.55-14.82,3.05-18.06-4.82,2.69-9.51,7.76-12.63,16.91-8,23.44.91,31.09,6.14,35,8.11,6,26.87,12.84,32.29,15.06,0,0-4.56-16.51-.55-34C36.65,171.57,32.35,169.66,28.23,167.79Z"/><path class="cls-10" d="M9.93,145.3a34.61,34.61,0,0,0-6.74,12.13c-8,23.44.91,31.09,6.14,35,8.11,6,26.87,12.84,32.29,15.06a78,78,0,0,1-2.19-18.34c-8.33-3.46-17.75-7.88-25.3-12.82C-2.88,165.17,8.94,146.79,9.93,145.3Z"/><path class="cls-11" d="M77.64,217.93a2.76,2.76,0,0,1-2.42,1.12c-2.11,0-6.31-2.08-17.08-5.47-8.65-2.73-14.07-3.82-15.69-5.27-4-3.61-9.06-17.19-5.37-34.23C40.54,158.14,51,149.68,54.62,148c3-1.38,6.14-1.09,12.18.71a89.18,89.18,0,0,0,11.14,2.55c2.15.34,4.21.6,6.15.77,5.11.47,4.16,2.38,4.16,2.38S70.61,161,66.58,180.21C61.5,204.42,77.64,217.93,77.64,217.93Z"/><path class="cls-12" d="M55.17,147.76c-.18.07-.37.15-.55.24a22.34,22.34,0,0,0-5.11,3.73,203,203,0,0,0,23.74,7.76s4.54-.44,8-1.16c1.24-.87,2.39-1.58,3.39-2.15a10.63,10.63,0,0,0-3.08-1C72.87,153.31,60.47,149.46,55.17,147.76Z"/><path class="cls-13" d="M37.6,172c-.18.67-.36,1.34-.52,2-3.69,17,1.33,30.62,5.37,34.23,1.62,1.45,7,2.54,15.69,5.27,10.77,3.39,15,5.43,17.08,5.47a2.76,2.76,0,0,0,2.42-1.12S63,205.67,66,183.58C56.14,179.94,46.56,176,37.6,172Z"/><path class="cls-14" d="M75.22,219.05a2.76,2.76,0,0,0,2.42-1.12,37.15,37.15,0,0,1-9.5-14.38l-8.25-6.86s-11.29-3.54-24.07-9.09c.34,10.42,3.73,18.12,6.63,20.71,1.62,1.45,7,2.54,15.69,5.27C68.91,217,73.11,219,75.22,219.05Z"/><path class="cls-15" d="M51.59,179.47c3.66-21.65,23.35-27.81,25.76-28.32a87.27,87.27,0,0,1-9.75-2.22h0c-3.3.37-20.21,8-23.26,27.45-3,18.79,4.58,32.43,7.23,35.22h0c1.93.56,4.13,1.2,6.59,2,1.23.38,2.36.75,3.42,1.1h0S48.07,200.26,51.59,179.47Z"/><path class="cls-16" d="M63.56,150.36A35.1,35.1,0,0,0,57,154.53c2.5.89,5.25,1.81,8.11,2.69a39.4,39.4,0,0,1,7.29-4.3C69.4,152.09,66.34,151.2,63.56,150.36Z"/><path class="cls-17" d="M61.56,214.68h0s-13.5-14.42-10-35.21c.08-.48.17-.93.27-1.39-2.47-1-4.9-2-7.3-3-.09.44-.17.88-.24,1.33-3,18.79,4.58,32.43,7.23,35.22h0l1.2.34.44.13,1,.31.55.16,1.12.34.51.16c.56.17,1.13.34,1.71.53l1.79.57Z"/><path class="cls-18" d="M59.93,214.15l1.59.52h0a44.77,44.77,0,0,1-9.88-20.8c-2.26-.81-4.87-1.79-7.71-2.91,1.26,11.05,5.67,18.63,7.57,20.63h0l1.2.35h0l.32.1,1.48.44.23.06h0l1.11.34h0l.51.16h0c.56.17,1.13.34,1.71.53l1.79.57Z"/><path class="cls-15" d="M265.93,127.47s-3.22-1.16-15.26,3.51-82.56,29.16-162.42,23.43c0,0-16.46-2.26-26.54,20.94S71.22,215,71.22,215s27.41,15.64,93.55,18.71c63.63,2.95,94.32-4.18,107.8-7.62,14-3.58,18.77-6.43,19.59-8.23S265.93,127.47,265.93,127.47Z"/><path class="cls-17" d="M139,199.68c-24.59-.07-53.19-8.38-79.25-18.46C54.9,201.27,71.22,215,71.22,215s27.41,15.64,93.55,18.71c63.63,2.95,94.32-4.18,107.8-7.62,14-3.58,18.77-6.43,19.59-8.23.2-.44-1.4-6.49-3.89-15.26l-48.94-11.46S195.57,199.83,139,199.68Z"/><path class="cls-19" d="M265.93,127.47s-3.22-1.16-15.26,3.51-82.56,29.16-162.42,23.43c0,0-13.9-1.89-24,15.8,66.35,22.11,143,5.14,167.51-2.6l35.42-11.68,5.3-6.73C268.74,136.67,265.93,127.47,265.93,127.47Z"/><path class="cls-16" d="M249.36,143s17.8-13.63,11.84-12.31-32,14.34-86.48,23.16c-44,7.12-80.7,3.14-93.17,1.34a24.79,24.79,0,0,0-8.3,4.31c13.65,3.22,39.75,8.12,75.51,5.73C206.12,161.38,239.19,147.31,249.36,143Z"/><path class="cls-20" d="M64.28,170.21l7.06,1.89c2.26.52,5,1.27,8.15,1.88s6.74,1.32,10.64,2l6.12.94,6.56.85c4.52.5,9.29.94,14.23,1.26s10.06.49,15.26.59c2.6.06,5.22,0,7.85,0s5.28-.06,7.92-.19c5.28-.13,10.56-.47,15.75-.84s10.29-.85,15.22-1.44,9.69-1.18,14.18-1.87,8.75-1.37,12.66-2.08,7.48-1.41,10.65-2.05,5.92-1.27,8.17-1.82c4.52-1.07,7.09-1.77,7.09-1.77l-1.8.64c-1.18.4-2.91,1-5.13,1.69s-4.94,1.48-8.07,2.35-6.67,1.79-10.57,2.65-8.12,1.79-12.63,2.6-9.27,1.61-14.22,2.28-10.09,1.27-15.32,1.71-10.55.79-15.88.94c-2.67.12-5.34.1-8,.15s-5.3,0-7.93-.09-5.23-.15-7.8-.32-5.1-.33-7.6-.54-4.94-.48-7.33-.73-4.72-.64-7-.94l-6.59-1.09-6.12-1.22c-2-.43-3.82-.87-5.59-1.29s-3.43-.92-5-1.34c-3.14-.81-5.82-1.74-8-2.41s-3.91-1.38-5.09-1.79Z"/><path class="cls-21" d="M246.26,207.2C235.64,211,154,229.1,59.9,196.69A39.36,39.36,0,0,0,71.22,215s27.41,15.64,93.55,18.71c63.63,2.95,94.32-4.18,107.8-7.62,14-3.58,18.77-6.43,19.59-8.23.25-.56-2.38-10.14-6.07-22.87Z"/><path class="cls-18" d="M292.16,217.84a13.45,13.45,0,0,0-.6-3.18l-22.29-1C243.54,225.32,132.62,240,59.9,196.69a35.26,35.26,0,0,0,4.1,9.49,39,39,0,0,0,7.22,8.8s27.41,15.64,93.55,18.71c63.63,2.95,94.32-4.18,107.8-7.62C286.55,222.49,291.34,219.64,292.16,217.84Z"/><path class="cls-16" d="M246.26,207.2l-2,.7c-.65.24-1.47.47-2.44.75s-2.07.63-3.33.93c-2.52.61-5.58,1.38-9.12,2.07s-7.56,1.42-11.94,2.16c-4.41.56-9.18,1.33-14.26,1.73-2.54.22-5.14.53-7.81.7l-8.18.46c-2.78.2-5.61.19-8.47.26s-5.76.16-8.68.09l-8.82-.22c-1.48-.05-3-.05-4.44-.13l-4.44-.29-8.87-.63c-2.94-.26-5.87-.65-8.77-1s-5.79-.62-8.62-1l-8.36-1.38-4.07-.68c-1.35-.23-2.69-.42-4-.73l-7.66-1.7-7.25-1.6c-2.32-.6-4.54-1.26-6.69-1.85-4.28-1.2-8.21-2.27-11.65-3.36l-8.83-3.06c-2.45-.84-4.36-1.54-5.66-2l-2-.72,2.05.56c1.34.38,3.3.89,5.79,1.6l9,2.55c1.73.48,3.62.84,5.58,1.31l6.18,1.45c2.16.5,4.39,1.06,6.72,1.56l7.25,1.37,7.65,1.45c2.62.49,5.31.81,8,1.24l8.32,1.22c1.4.23,2.83.31,4.26.48l4.3.46c2.88.29,5.78.66,8.7.9l8.8.57,4.41.32c1.46.09,2.93.1,4.4.16l8.74.27c1.45.07,2.89,0,4.33,0h4.29c2.84,0,5.64,0,8.4-.11l8.13-.29c2.66-.09,5.25-.32,7.77-.47l3.74-.24c1.23-.08,2.43-.23,3.62-.33l6.86-.63c4.38-.58,8.43-1,12-1.55s6.65-1.08,9.19-1.55,4.51-.9,5.86-1.27Z"/><path class="cls-11" d="M87.14,183.6c-5.5-1.19-8.17-1.79-12.09-2.45-6.82-1.13-7.71,7.8-2.44,10.75a44.61,44.61,0,0,0,13.1,4.79,32.38,32.38,0,0,0,8.24.78c2.65-.14,5.12-1.71,5.72-4.08a6.14,6.14,0,0,0-3.44-7.2A44,44,0,0,0,87.14,183.6Z"/><path class="cls-13" d="M72.61,191.9a44.61,44.61,0,0,0,13.1,4.79,32.38,32.38,0,0,0,8.24.78,6.23,6.23,0,0,0,5.47-3.4c-10-2.51-20.18-5.71-30.08-9.27A6.73,6.73,0,0,0,72.61,191.9Z"/><path class="cls-15" d="M90.78,195.14a3.46,3.46,0,0,1-1.06,0,1,1,0,0,1-.43-.11,36,36,0,0,1-6.87-6.53,11.91,11.91,0,0,0-1.29-1.39,3.81,3.81,0,0,0-1.12-.66,2.31,2.31,0,0,0-1.73,0,2.46,2.46,0,0,0-1.22,1.24,2.58,2.58,0,0,0-.33,1.22,6.54,6.54,0,0,0,.15,1.27c.09.28.12.45.08.53s-.33.26-.76.3a2,2,0,0,1-1-.1,1.21,1.21,0,0,1-.64-1,4.46,4.46,0,0,1,.07-1.65,6.54,6.54,0,0,1,.61-1.66,4.91,4.91,0,0,1,2.39-2.32,4,4,0,0,1,3.06,0A5.53,5.53,0,0,1,82,185a9,9,0,0,1,1.22,1.16c.44.49,1,1.2,1.81,2.1a34.25,34.25,0,0,0,4.55,4c.41-2.07.58-3.11.87-5.18a.48.48,0,0,1,.24-.36,1.28,1.28,0,0,1,.63-.05l.3,0a1.41,1.41,0,0,1,.63.17.42.42,0,0,1,.16.39c-.3,3-.51,4.54-1,7.57C91.34,195,91.15,195.08,90.78,195.14Z"/><path class="cls-22" d="M265.93,127.47c-3.13.84-13.11,10.69-19.92,19.72s-13.73,16.71-14.22,20.42,5.07,16.58,7.54,23.51,5.82,14.72,6.93,16.08,16.7,4.7,23,6.43,20.66,4.7,22.89,4.21,23.52-22.94,34.28-37.65c12.49-17.09,21.26-32.44,22.12-34.3s.88-5.25-3.7-6-25.36-3.38-41.81-5.94C287.65,131.57,269.4,126.55,265.93,127.47Z"/><path class="cls-23" d="M346.85,140.51a6.88,6.88,0,0,0-2-.61c-4.57-.74-25.36-3.38-41.81-5.94-15.4-2.39-33.65-7.41-37.12-6.49-3.13.84-13.11,10.69-19.92,19.72-5.57,7.4-11.22,13.88-13.36,18,3.91-1.24,18.81-3.87,49.57-9.58,5.73-1.06,12.61-2.41,18.27-3.41A352.83,352.83,0,0,0,346.85,140.51Z"/><path class="cls-24" d="M346.85,140.51h0c3.29,4.19-2.89,8.41-9.59,14.16s-22,16.82-50.37,25.52c-29.36,9-35.77,9-47.56,10.93,2.48,6.92,5.82,14.72,6.93,16.08s16.7,4.7,23,6.43,20.66,4.7,22.89,4.21,23.52-22.94,34.28-37.65c12.49-17.09,21.26-32.44,22.12-34.3A3.9,3.9,0,0,0,346.85,140.51Z"/><path class="cls-25" d="M338.82,141s-22-1.29-38.35-4.11c-15-2.57-35.3-6.78-39.27-6.24A112,112,0,0,0,249.36,143c1.53-1,8.71-1.16,29.24,0C295.85,144,329.06,143.7,338.82,141Z"/><path class="cls-26" d="M346.39,149.82c-9.87,16.29-41.8,47.73-77.12,63.81,6.31,1.74,20.66,4.7,22.89,4.21s23.52-22.94,34.28-37.65c9.27-12.69,16.49-24.41,19.95-30.37Z"/><path class="cls-27" d="M344.86,139.9c-4.21-.69-22.19-3-37.86-5.34h0s-10.66,9.49-4.75,26.51,24.19,19.12,24.19,19.12c12.49-17.09,21.26-32.44,22.12-34.3S349.44,140.64,344.86,139.9Z"/><path class="cls-28" d="M344.25,139.8l-.4-.06-.22,0-.39-.06-.31,0-.39-.06-.35-.05-.43-.06-.37-.05-.51-.07-.34,0-.62-.09-.3,0c-7.53-1-20.74-2.79-32.62-4.58h0a23.23,23.23,0,0,0-6.51,17.67c24.89-4.41,49.15-10.41,44.37-12.33l-.46-.07Z"/><path class="cls-29" d="M348.74,145.44a2.25,2.25,0,0,0,.08-.24.75.75,0,0,0,0-.16,1.42,1.42,0,0,0,.05-.22c0-.06,0-.12,0-.18a1.49,1.49,0,0,0,0-.21l0-.2v-.16a2.8,2.8,0,0,0,0-.5v-.11c0-.09,0-.18-.05-.28a.5.5,0,0,0,0-.12,2.86,2.86,0,0,0-.07-.28l0-.1c0-.1-.07-.2-.11-.3l0,0a3.3,3.3,0,0,0-.66-1h0a2.61,2.61,0,0,0-.3-.27l-.06-.06-.33-.24-.08-.05-.4-.22h0c3.29,4.19-2.89,8.41-9.59,14.16-4.31,3.71-14.63,9.83-27.93,17.36,7.32,6.77,17.12,8.53,17.11,8.16,12.49-17.09,21.26-32.44,22.12-34.3a3.27,3.27,0,0,0,.14-.33A.56.56,0,0,0,348.74,145.44Z"/><path class="cls-30" d="M301.64,143.51c15.12,0,30.94-.77,37.18-2.48,0,0-18.57-1.09-34.3-3.46A24,24,0,0,0,301.64,143.51Z"/><path class="cls-31" d="M328.34,177.55c.48-.67,1-1.33,1.42-2l.07-.09,1.43-2.05.36-.51,1.27-1.85.11-.16,1.33-2,.33-.49,1.14-1.7.15-.23,1.21-1.84.29-.44,1-1.6c0-.07.09-.14.14-.21l1.11-1.73.23-.37.93-1.47.14-.22,1-1.59a2.26,2.26,0,0,1,.16-.26c.29-.48.57-.94.85-1.38l.09-.16c.31-.5.6-1,.88-1.45l.1-.15.77-1.29,0-.07c.27-.44.52-.87.76-1.27l0-.05.67-1.15c-4.52,7.45-13.66,18.08-25.62,29a30.07,30.07,0,0,0,5.67,1.42l1.53-2.11Z"/><path class="cls-32" d="M86.62,155.64c-.51,3.78,1.2,10.15,10.65,13.6s23.19.68,24.67.68,3.12,1,2.13,6.41.66,12.86.66,12.86a3.84,3.84,0,0,0-1.31,4.93c1.31,3.41-1.32,6.68-1.32,10.3s-2.14,13.63,7.07,14.63,32.05-8.75,31.72-11.6-7-4.56-10.63-9.95-2.44-38.58-16.53-39.09S86.62,155.64,86.62,155.64Z"/><path class="cls-33" d="M94.9,69.2S87,66.76,80.11,74C74.55,79.77,70,88.81,74.52,92.35S94.9,69.2,94.9,69.2Z"/><path class="cls-34" d="M94.9,69.2A34.81,34.81,0,0,0,81.23,79.75c-4.27,5.3-6.84,5.39-6.9,2.4-2,4.12-2.5,8.12.19,10.2C79.09,95.9,94.9,69.2,94.9,69.2Z"/><path class="cls-33" d="M69,102.65c-2.24-.33-6.81.85-9.31,6.57s-4.3,19.17-.69,23.89,8.19,3.5,8.19,3.5Z"/><path class="cls-34" d="M62.06,119.68c-.94,6.45-4.24,6.47-5.13,4.69,0,3.6.59,6.86,2,8.74,3.6,4.72,8.19,3.5,8.19,3.5l1.81-34S63.88,107.19,62.06,119.68Z"/><path class="cls-33" d="M127.09,67.73c-4.33-2.45-18.06-4.49-28.74-.35S71.86,92.7,65.89,110.22s-.92,33.43,18.2,35.65,29-.42,33.62-2.63,12-18.22,15.31-36.08S127.09,67.73,127.09,67.73Z"/><path class="cls-34" d="M127.09,67.73C125.85,67,117,66,108,68.8c-8.35,2.61-22.24,12.69-29.71,26.7S79,137,78.26,139c-.56,1.57-6.45,1-11.22-2.58,3.27,5,8.87,8.48,17,9.43,19.11,2.22,29-.42,33.62-2.63s12-18.22,15.31-36.08S127.09,67.73,127.09,67.73Z"/><path class="cls-35" d="M64.87,104.14c-2.45,1.4-5.08,5-6,9.8s1.27,4.11,1.92,1.92,1.55-7.19,4-10C66.8,103.57,65.85,103.57,64.87,104.14Z"/><path class="cls-35" d="M87.47,70a15.39,15.39,0,0,0-8.35,6.38c-1.48,2.64.15,3.3,1.78,1.53s4.79-5.8,8-7S90.29,69.2,87.47,70Z"/><path class="cls-35" d="M108.91,66.05c.79.1-2,.89-6.36,3.15-4.61,2.41-11.39,8-14.2,10.68s-4.57.26,2.83-6.59C96.81,68.07,105.14,65.57,108.91,66.05Z"/><path class="cls-36" d="M153.11,85.61c1.08,2.06,5.27,15.24,1.51,22.46s-7.81,2.51-7.81,2.51l3.65-24.19Z"/><path class="cls-37" d="M152.86,90.38a21.32,21.32,0,0,0-.88-4.44l-1.52.45-3.65,24.19a4.8,4.8,0,0,0,2.65,1.47c-.35-.64-.58-1-.58-1S154.12,103.11,152.86,90.38Z"/><path class="cls-38" d="M155.33,106.38a6.29,6.29,0,0,0-7,0c-2,1.58-2.59,6.8-2.59,6.8l1.95,12.44a8.92,8.92,0,0,0,3.82,1.82,4.75,4.75,0,0,0,3.85-1.6c.81-.69,2.64-.69,3.33-2.52s.69-4,1.61-5.28,3.75-3.32,2.5-6.64-1.78-4.89-1-7.46c.66-2.27,1.75-4.21.54-5.69-1.51-1.83-4.62-.38-6.13,2A19.34,19.34,0,0,1,155.33,106.38Z"/><path class="cls-39" d="M156.47,114.24c0-.78-3.06-1.66-5.19-3.77s0-5.67,2.53-4.83a6.11,6.11,0,0,0-5.51.74c-2,1.58-2.59,6.8-2.59,6.8l1.95,12.44a8.92,8.92,0,0,0,3.82,1.82,3.84,3.84,0,0,0,2.73-.7,2,2,0,0,1-2.27-.57c-1.05-1.17.37-3.65,1.07-5.27s-3.24-2.88-1.26-6.37C152.72,112.81,156.49,115,156.47,114.24Z"/><path class="cls-39" d="M160.34,97.43a5.81,5.81,0,0,0-4.19,2.85,19.34,19.34,0,0,1-.82,6.1s2.14,1.38,3.67,2.46a7.91,7.91,0,0,1-1.17-2.78,9.84,9.84,0,0,1,.16-6.34A4.45,4.45,0,0,1,160.34,97.43Z"/><path class="cls-40" d="M161,103.34c-1,2.23-.13,5.13.72,7.19s1,4-1.16,7.15h0c1.11-1.29,3.35-3.26,2.21-6.28-1.24-3.33-1.78-4.89-1-7.46.66-2.27,1.75-4.21.54-5.69C162.69,99,162.17,100.74,161,103.34Z"/><path class="cls-41" d="M143.71,79.87s6.08-1.35,7.18,9.74c1.26,12.73-4,20.67-4,20.67s6.1,9.26,2.88,20.31c-2.11,7.26-38,14.28-65.7,8.18,0,0,.93-24.79,9.81-41.76a52.51,52.51,0,0,1,23.81-23.12l9.38-.6s4.33,5.55,8.44,7.28S143.71,79.87,143.71,79.87Z"/><path class="cls-42" d="M114.11,140.75l12.69-10.16s-15.26,3.3-24.08,1.59-10.9-10.58-7.82-14.5l-2.3-5.23L88,113a136.93,136.93,0,0,0-3.9,25.76A107.28,107.28,0,0,0,114.11,140.75Z"/><path class="cls-42" d="M133.73,106.25s9.57.31,13.18,4a10.11,10.11,0,0,0,1.26-2.42A15.46,15.46,0,0,0,133.73,106.25Z"/><path class="cls-42" d="M97.18,115.23c3.92,1,9.07,6.1,19.46,6.78s15.12-2.53,20-6.78a26.64,26.64,0,0,1-18.33.44c-11.3-3.89-14.52-13.54-26.09-13.81l-.54,0c-4,9.59-5.86,20.52-6.77,28Z"/><path class="cls-43" d="M138.22,92.68s-.19,8.33-6.89,10.66c0,0,9.9-.11,10.19-5.92S138.22,92.68,138.22,92.68Z"/><path class="cls-43" d="M133.73,83.77S134,92,139,93.39c5.15,1.41.95-9.49.25-9.58S133.73,83.77,133.73,83.77Z"/><path class="cls-43" d="M138,82.13c-2.59,1.15-3.8,4.23-4,6.27s-.19,2.44-.7,2.33a8.43,8.43,0,0,1-4.73-2.33c-2.36-2.12,3.24-10.46,3.24-10.46h1a5.08,5.08,0,0,1,4.64,3Z"/><path class="cls-43" d="M146.33,84.42c1.39,1.58,1.28,4.89,1.39,5.58s3.51-1.71,3.76-3-1.76-6.94-1.76-6.94Z"/><path class="cls-42" d="M119.38,75.36l6.63-.43a23.13,23.13,0,0,1,0,16.84c-3.53,9.34-10.57,13.77-18.55,12.93Z"/><path class="cls-36" d="M117.71,73.89l6.62-.43a23.11,23.11,0,0,1,0,16.85c-3.52,9.34-10.56,13.77-18.55,12.92Z"/><path class="cls-37" d="M105.78,103.23a17.31,17.31,0,0,0,3.67,0c3.66-4.21,8-9.5,10.1-13.06a17.81,17.81,0,0,0,1.17-15.53,3.11,3.11,0,0,0-.89-.88l-2.12.13Z"/><path class="cls-38" d="M104.53,100.25s-32.6,40.5-35,43.29S66.58,149.14,61,149s-9.73,1-14.35,2.07-7.9.73-7.54-1.94,5.72-6.08,5.72-6.08l-11.43-4.14a7,7,0,0,1,5.47-2.67c3.77-.12,10,1.58,11.79,1.58s3.53-1.22,6.93-5.84S87,92.35,87,92.35Z"/><path class="cls-39" d="M83.28,97.37l-7.93,10.68c2.41,2.86,4.89,5.26,6,5.52,1.37.35,5-.61,6.69-.56,0,0-20.62,27.42-23.25,30.44s-7.59,2-12.14,3.26-10.16,5.49-13.35,3.65h0c.72,1.53,3.61,1.62,7.39.72C51.26,150,55.39,148.89,61,149s6.08-2.67,8.51-5.47c1.84-2.11,21-25.82,30.15-37.23Z"/><path class="cls-39" d="M48,141.35s-11.24-2.71-12.21-3.08,0-1.34.61-1.55a6.55,6.55,0,0,0-3,2.2l11.43,4.14A32.79,32.79,0,0,1,48,141.35Z"/><path class="cls-40" d="M57.58,132c-3.4,4.62-5.1,5.84-6.93,5.84s-8-1.7-11.79-1.58c-.3,0-.57,0-.84.07,3.91.06,8.27,1.71,10.43,2.28s4.17,1,6.72-1.88,19.62-27.91,19.62-27.92C67.53,118.58,59.39,129.54,57.58,132Z"/><path class="cls-1" d="M117.71,73.89c-2-3.23-12-3-20,3.76-9.07,7.73-17.63,16.58-17.63,16.58s1.18,4.32,7.84,10.18a18.13,18.13,0,0,0,12.45,4.8s12.17-13,16.14-19.79A17.86,17.86,0,0,0,117.71,73.89Z"/><path class="cls-42" d="M88,104.41a18.13,18.13,0,0,0,12.45,4.8s12.17-13,16.14-19.79a17.46,17.46,0,0,0,2.36-7.58v-.06c-3.25,7.49-18.8,24.78-38.78,12.45C80.11,94.23,81.29,98.55,88,104.41Z"/><path class="cls-44" d="M114.12,73.34a22.22,22.22,0,0,0-14,4c-3.79,2.69-6.61,5.82,0,6.25s13.23-4.45,14.9-6.25S117.65,73.63,114.12,73.34Z"/><path class="cls-41" d="M111.13,74.23c-4,.44-6.82,1.74-8.4,3.36s7.61.47,10.47-.76C116.73,75.32,115.55,73.74,111.13,74.23Z"/><path class="cls-1" d="M147.24,74s3.47-.25,5.09,2c1.39,1.9,2.13,5.39.78,9.68-1.49,4.7-3.54,4.77-4,4.68s.05-4.8-1.61-6.48-3.82-3.94-3.82-3.94S145.34,75,147.24,74Z"/><path class="cls-42" d="M153,77.14a7,7,0,0,0-.68-1.21c-1.62-2.22-5.09-2-5.09-2-1.9,1-3.53,5.91-3.53,5.91s2.16,2.25,3.82,3.94c.9.9,1.17,2.69,1.3,4.17.35-3-.31-5-1.11-7.86a3,3,0,0,1,1.58-3.46A4,4,0,0,1,153,77.14Z"/><path class="cls-44" d="M151.72,78.41c-1.48-.88-2.1,1.53-1.58,4.17a20,20,0,0,1-.08,6.07c-.05.73,1.29-.28,2.24-3S153.52,79.47,151.72,78.41Z"/><path class="cls-38" d="M133.71,66.25a58,58,0,0,1-6.62,7s4,8.87,12.15,10.52c0,0,5.7-3.71,8-9.43,0,0-1-3.33-6.29-6.28S133.71,66.25,133.71,66.25Z"/><path class="cls-39" d="M141,68.1c-5.3-2.95-7.28-1.85-7.28-1.85s-.31.43-1,1.27l-.46.52s1.25,4.07,6.56,7.06a19.64,19.64,0,0,0,6.78,2.4,17.66,17.66,0,0,0,1.71-3.12S146.3,71.05,141,68.1Z"/><path class="cls-45" d="M141,68.1c-5.3-2.95-7.28-1.85-7.28-1.85s-.19.26-.58.73c4.25,4.67,9.78,6.27,14.15,7.4C147.28,74.38,146.3,71.05,141,68.1Z"/><path class="cls-46" d="M139,93.39c-.14,2.23-.84,8.3-7.76,8.86s-11.71-.22-22.3-8.86S92.84,80.49,83.11,82.13c-3.25.79-14.26,10.81-14.4,13.35s12.42,14,13.69,15,8.63-.93,16.28,2.28c6.63,2.79,12.94,9.29,27.54,7s21.21-17.44,19.11-26.36C145.33,93.39,143.49,91.17,139,93.39Z"/><path class="cls-41" d="M102.72,88.45a48.48,48.48,0,0,0-6.32-4.17,71.06,71.06,0,0,1-23.47,17.09c2.7,2.88,6,6,8,7.76C91.14,103.29,99.71,93.14,102.72,88.45Z"/><path class="cls-41" d="M112.47,119.14a29.61,29.61,0,0,0,8.93,1.06,45.77,45.77,0,0,0,1.16-18.57A24.24,24.24,0,0,1,118,99.72,44.2,44.2,0,0,1,112.47,119.14Z"/><path class="cls-41" d="M132.75,117.68a22.15,22.15,0,0,0,5.4-3.81A31.76,31.76,0,0,0,132.76,102a10,10,0,0,1-1.53.25c-1.13.09-2.2.14-3.25.13A25,25,0,0,1,132.75,117.68Z"/><path class="cls-41" d="M103.55,115.22c5.29-6.5,8-14.28,9.18-18.89-1.19-.86-2.44-1.83-3.8-2.94l-1.34-1.09c-3.5,8.79-9.73,15.45-13.64,19a24.52,24.52,0,0,1,4.73,1.41C100.28,113.4,101.86,114.29,103.55,115.22Z"/><path class="cls-41" d="M138.48,96.45a8.18,8.18,0,0,1-2.19,3.72,20,20,0,0,1,7.26,6.08,25,25,0,0,0,1.64-4.88A21.09,21.09,0,0,0,138.48,96.45Z"/><path class="cls-34" d="M139,93.39a10.63,10.63,0,0,1-2.25,6.33h0a10.26,10.26,0,0,0,3-5s4.36,1.39,5.57-1.31l-3.21-1A9,9,0,0,0,139,93.39Z"/><path class="cls-46" d="M139,80.35c1.37-.57,5.15-1.25,7,.64s2.24,4.16,1.31,7.49a21,21,0,0,1-1.91,4.91,6.28,6.28,0,0,1-6.34,0,12.66,12.66,0,0,1-4.25-9.45A10.32,10.32,0,0,1,139,80.35Z"/><path class="cls-41" d="M145.74,92.61a18.25,18.25,0,0,0-10.85-7,13.5,13.5,0,0,0,.84,3.15,21.55,21.55,0,0,1,7.74,5.34,5.3,5.3,0,0,0,1.86-.72S145.49,93.12,145.74,92.61Z"/><path class="cls-41" d="M140,80a7.53,7.53,0,0,0-1.06.33A11.7,11.7,0,0,0,136.5,82a20.25,20.25,0,0,1,10.75,6.47,10.34,10.34,0,0,0,.43-3.74A18.66,18.66,0,0,0,140,80Z"/><path class="cls-34" d="M138,88.4c-.7-4,.74-7.74,2.74-8.51a8.13,8.13,0,0,0-1.72.46,10.32,10.32,0,0,0-4.23,3.59A12.66,12.66,0,0,0,139,93.39a7,7,0,0,0,3.11.84C140.26,93.53,138.58,92.08,138,88.4Z"/><path class="cls-34" d="M125.2,117c-12.73-.28-16.69-4.81-26.57-9.21-4.79-2.13-12.61-1.63-14.54-2.51-2.41-1.1-12.26-9.54-12.57-10.44-.54-1.56,6.15-9.27,6.15-9.27h0c-4.16,3.38-8.87,8.21-9,9.87-.14,2.54,12.42,14,13.69,15s8.63-.93,16.28,2.28c6.63,2.79,12.94,9.29,27.54,7a22.3,22.3,0,0,0,15-9.45C138.14,113.88,134.14,117.23,125.2,117Z"/><path class="cls-47" d="M92.59,84.07a21.08,21.08,0,0,0-8.52-.76c-1.65.3-4.63,3.07-6.43,5.28-3.1,3.82,4.61-.22,15.43,4.29s24.75,11.81,27.53,10.92-5.33-3.86-11.69-9C103.61,90.54,97.12,85.45,92.59,84.07Z"/><path class="cls-47" d="M145.33,81.41c-1.86-1.22-2.63,2.06-2.45,5.58s.6,6.28,1.61,5.84,2.66-4.78,2.53-7.21S146.26,82,145.33,81.41Z"/><path class="cls-1" d="M132,68.36a4.65,4.65,0,0,0-3.82-.92c-2.56.33-9.93,5.46-10.42,6.45s-.36,5.28,4.79,11.26c2.88,3.33,7.78,5.38,9.11,5.79s.55-7.42,7.36-10.59c0,0,.37-1.48-2.92-2.89-2.4-1-5.81-4.17-6-7.09Z"/><path class="cls-42" d="M130.08,70.37l1.87-2a4.65,4.65,0,0,0-3.82-.92c-2.56.33-9.93,5.46-10.42,6.45s-.36,5.28,4.79,11.26C119.63,81,120,75,122.28,73.29s5.58-4.42,6.72-1.51,5.74,5,5.74,5C132.58,75.36,130.21,72.79,130.08,70.37Z"/><path class="cls-44" d="M135.13,78.88c1.18-.66,4,.15,1.92,1.52-3.06,2-5,7.19-5.36,8.23s-2.8.13-4.76-1.1S123.44,85,123,83.65c-.19-.57,4.14,2.28,6.67.16S132.75,80.22,135.13,78.88Z"/><path class="cls-48" d="M118,53.88c-1.09,4.77.71,7.67,1.94,8.9s3.74,2,4.58-.65a7.56,7.56,0,0,0,5.1,4.26c3.81.91,5.08-1.81,5.08-1.81l-6.12-9.41Z"/><path class="cls-49" d="M118,53.88a12.06,12.06,0,0,0-.29,3.76,7.48,7.48,0,0,0,8.47,1.17s1.76,5.77,7,7.28h0a3.67,3.67,0,0,0,1.55-1.51l-6.12-9.41Z"/><path class="cls-38" d="M159.76,17.3c8.28,0,18.42,5.83,20.76,14.93s1.63,16.68,2.8,21.92c.72,3.28,1.27,7.3-.24,10.79a16.44,16.44,0,0,1-1,1.87C179.65,71,175,74,168.39,75.52a40.5,40.5,0,0,1-22.68-1.73c-9-3.73-15-7.86-18.84-17.89a27.15,27.15,0,0,1,10.26-31.84C148.68,16.25,159.76,17.3,159.76,17.3Z"/><path class="cls-39" d="M128.76,45.82c.18,1.59,1.63,3.1,4.44,2.06s8.07-5.88,9.09-18.7Z"/><path class="cls-39" d="M159.76,17.3a32.92,32.92,0,0,0-10.49,1.22c-3.37,2.08-6.39,3.86-6.39,3.86,3.92,8.42,12.4,13.59,17.78,14.75s11.81,1.15,14.2-2.14c2.24-3.09-1.19-6.28-1.19-6.28A13.56,13.56,0,0,0,180.13,31C177.24,22.61,167.66,17.3,159.76,17.3Z"/><circle class="cls-50" cx="143.59" cy="55.23" r="9.16"/><path class="cls-50" d="M174.88,55.47a9.16,9.16,0,0,0,8.32,9.12c1.33-3.41.82-7.26.12-10.44a52.36,52.36,0,0,1-.84-7.69A9.15,9.15,0,0,0,174.88,55.47Z"/><path class="cls-39" d="M183,52.24a8.1,8.1,0,0,1-4.92,1.68c-4.68,0-8.49-4.07-8.59-9.11l-.29-.13c-.24-.14-.47-.29-.7-.44,0,.12,0,.24,0,.36s0,.12,0,.18a2.54,2.54,0,0,0-1.05-.18,5.27,5.27,0,0,0-2.63.64c0-.21,0-.42,0-.64v0a5.63,5.63,0,0,0-.4.43,1.42,1.42,0,0,1-.64.49,10.78,10.78,0,0,1-21.53-.89c0-.3,0-.59,0-.89a1.6,1.6,0,0,1-.38-.23l-.55-.43c0,.16,0,.33-.05.49l-15.38-2.29.8,4.43,14.61.35a11.78,11.78,0,0,0,23.21,1.09,6.41,6.41,0,0,1,2.91-.7,3.16,3.16,0,0,1,1.19.2,9.81,9.81,0,0,0,9.41,8.3,9,9,0,0,0,5.09-1.58Z"/><path class="cls-51" d="M183,52.24a8.1,8.1,0,0,1-4.92,1.68,7.9,7.9,0,0,1-2.92-.56,8,8,0,0,0-.18,1,8.88,8.88,0,0,0,3.1.56,9,9,0,0,0,5.09-1.58L183,52.6a2,2,0,0,1,0-.24Z"/><path class="cls-40" d="M182.75,56.17c.64,4.76.39,9-4.4,13.34-5.59,5.07-15.82,7.07-22.54,6.67a38.89,38.89,0,0,0,12.58-.66C175,74,179.65,71,182.12,66.81a16.44,16.44,0,0,0,1-1.87c1.51-3.49,1-7.51.24-10.79a43.33,43.33,0,0,1-.76-6.45l-.16-.11C182.66,49,182.11,51.41,182.75,56.17Z"/><path class="cls-51" d="M152.67,56.37a8.09,8.09,0,0,0,.07-1,10.81,10.81,0,0,1-10.37-9.22c-.33,0-.66.11-1,.18A11.78,11.78,0,0,0,152.67,56.37Z"/><path class="cls-40" d="M142.49,47.43c0,1-1.33,1.88-3,1.88s-3-.84-3-1.88,1.33-1.89,3-1.89S142.49,46.39,142.49,47.43Z"/><path class="cls-52" d="M152.33,53c4.65,0,9.33-3.43,10-10s-4.13-13-12.26-10.6-8.3,12.08-5.84,15.83A9.93,9.93,0,0,0,152.33,53Z"/><path class="cls-53" d="M180.54,32.33a9.31,9.31,0,0,0-5.8,0c-7.45,2.21-7.61,11.08-5.36,14.53a9.11,9.11,0,0,0,7.4,4.42A8.82,8.82,0,0,0,182.66,49C182.3,44.42,182.18,38.76,180.54,32.33Z"/><path class="cls-54" d="M125.93,40.33a9.85,9.85,0,0,1,2.83,5.49c.31,2.16,3.75,3,8.4-3.54,6.43-9.07,5.72-19.9,5.72-19.9a53.23,53.23,0,0,0,14.63,10.9c8.51,4.11,13.54,3,16,2s4.21-4,2-7.71c0,0,4.21,3.28,12.31,3s11.39-4.2,9.13-7.18S190.31,18,184,16.13c0,0,7.22-.6,6.81-4.6S180.23-2.23,160.73.46c-21.9,3-25.21,14.23-25.21,14.23s-3-1.75-9.59-1.7c-4.65,0-7.71,1.9-8,2.95s.37,1.65,2.49,2.47a43.69,43.69,0,0,1,4.8,2.05,29,29,0,0,0-10.37,5.86c-5.23,4.52-5.16,8.65-4.61,9.24,1,1.09,3.72-1.48,7.62-2,0,0-2.7,6.08-2,11.31S125.93,40.33,125.93,40.33Z"/><path class="cls-55" d="M148.38,15c-2.5.43-4.29,2.51-.85,3.74s14.32,5.8,19.46,10c5.44,4.41,9.73,5.27,8.39,1a22.73,22.73,0,0,0-10.2-11.78A25.72,25.72,0,0,0,148.38,15Z"/><path class="cls-48" d="M170.22,36.1c-5.69-.36-16.38-5.2-26.8-17.84a.51.51,0,0,0-.9.39c.13,1,.27,2.31.36,3.73a53.23,53.23,0,0,0,14.63,10.9C163.23,36,167.37,36.44,170.22,36.1Z"/><path class="cls-48" d="M148.76,3.47c-11.23,4.43-13.24,11.22-13.24,11.22s-3-1.75-9.59-1.7c-4.65,0-7.71,1.9-8,2.95s.37,1.65,2.49,2.47a43.69,43.69,0,0,1,4.8,2.05,29,29,0,0,0-10.37,5.86c-5.23,4.52-5.16,8.65-4.61,9.24,1,1.09,3.72-1.48,7.62-2,0,0-2.7,6.08-2,11.31s10.07-4.54,10.07-4.54a10.74,10.74,0,0,1,2.1,3c.55-1,1-2,.58-2.61-2-3-2.69-7.44-.83-13.07s5.27-7.53,7.18-8.39a9.93,9.93,0,0,1,4.48-1,.49.49,0,0,0,.43-.22.6.6,0,0,0,0-.49,9.2,9.2,0,0,1,0-5.57C140.8,9,142.92,6.44,148.76,3.47Z"/><path class="cls-48" d="M128.18,43.7a9.21,9.21,0,0,1,.58,2.12c.17,1.19,1.34,2,3.1,1.39a1.54,1.54,0,0,1-1.55-.38,1.78,1.78,0,0,1-.2-1.07l4,.1h0a13.66,13.66,0,0,0,1.6-1.62L132.15,44Z"/><path class="cls-48" d="M187.77,30.51c5.31-.2,8.53-1.94,9.5-4-4.44,3.65-14.81,1-19.21-1.11a66.49,66.49,0,0,1-6.61-3.76,18.38,18.38,0,0,1,4,5.85S179.67,30.82,187.77,30.51Z"/><path class="cls-48" d="M190.85,11.53a5.66,5.66,0,0,0-1.39-2.79c2.37,3.45-1.81,4.41-4.72,5s-10.7,1-10.7,1,7.65.95,10,1.38C184,16.13,191.26,15.53,190.85,11.53Z"/><path class="cls-49" d="M122.41,16.61c-2.9-.74-2.88-2.15-1.49-2.78-1.76.64-2.83,1.51-3,2.11-.31,1,.37,1.65,2.49,2.47a43.69,43.69,0,0,1,4.8,2.05,25.46,25.46,0,0,1,4.4-.88A43.87,43.87,0,0,0,122.41,16.61Z"/><path class="cls-49" d="M113.78,32.32c-2.4,1.18-3.79,1.83-3.6.67a3.4,3.4,0,0,0,0,2.57c1,1.09,3.72-1.48,7.62-2a15.36,15.36,0,0,1,2.3-4.05A62.29,62.29,0,0,0,113.78,32.32Z"/><path class="cls-55" d="M175.77,2.24c-7.84-2.23-24.18-1-31.06,5.39-2.25,2.08,3.71.75,11.25.86A124.12,124.12,0,0,1,177,11c7.56,1.66,12.56,1.21,12-.72S183.38,4.4,175.77,2.24Z"/><path class="cls-55" d="M196.74,25.75c.64-1.6-2.69-5.07-7.63-7S177,15.53,175.45,16.13c-1.77.68,3.65,8.09,11.65,10.47C194,28.67,196.21,27.11,196.74,25.75Z"/><path class="cls-55" d="M141,22.2c-1-1.41-5,.16-7.32,4.2-3,5.16-1.88,13.19.24,13.93s5.12-4.25,6.22-8.45S141.88,23.45,141,22.2Z"/><path class="cls-54" d="M121.72,14.31c-1.07.33-.28,1.59,1.55,1.62s8.91-.36,8.82-1S126.36,12.86,121.72,14.31Z"/><path class="cls-54" d="M111.38,32.32c.27.33,1.73-.18,3.1-1.53s5.33-5.89,5.66-6.47-2.8.5-5.66,3.22S111.09,32,111.38,32.32Z"/><path class="cls-56" d="M182.38,17.57c3,.73,9.84,2.05,13.81,6.93,0,0-1.55-1.6-6-3.69A78.41,78.41,0,0,0,182.38,17.57Z"/><path class="cls-56" d="M154.15,3.47c3.46-1.39,16.73-2.11,23.1,0,7.53,2.49,10,5.71,10,5.71A48.48,48.48,0,0,0,174,5a38.07,38.07,0,0,1,6.9.9s-4.29-2.71-12.83-3.13A61.52,61.52,0,0,0,154.15,3.47Z"/><path class="cls-56" d="M164.16,18.07c4.12,1.58,9.23,7.1,10.51,10.9a34.4,34.4,0,0,0-4.75-6A50.07,50.07,0,0,0,164.16,18.07Z"/><path class="cls-56" d="M140.59,23.93c.06,2-.77,10.16-5.07,15.31a12.63,12.63,0,0,1,0-5.88A24.42,24.42,0,0,0,136,37S139,33.25,140.59,23.93Z"/><path class="cls-57" d="M155.9,31.26c-.14-1.27-2.83-2.49-6.68-.34s-5.19,5.54-4.92,6.55,3.76-.46,6.2-1.42C154.62,34.44,156.31,35,155.9,31.26Z"/><path class="cls-57" d="M181.68,38.14c-.17-1.18-.38-2.39-.64-3.64a9.74,9.74,0,0,0-3.33-2.94c-3.85-2.16-5.29-.29-5.3,1,0,2.89,2.5,3.3,4.9,4.13C179.31,37.36,181,38.31,181.68,38.14Z"/><path class="cls-48" d="M156.36,29.74c-.17-1.55-3.29-2.36-7.14-.2s-5.19,5.53-4.92,6.54,3.76-.46,6.2-1.42C154.62,33.05,156.73,33,156.36,29.74Z"/><path class="cls-49" d="M152,32.32c-3.55,1.16-5.53,1.63-5.36.34s2.07-2.83,2.62-3.12c-3.84,2.15-5.19,5.53-4.92,6.54s3.76-.46,6.2-1.42c4.12-1.61,6.23-1.67,5.86-4.92C156.18,30.57,155.52,31.16,152,32.32Z"/><path class="cls-48" d="M172.41,31.16c0-1.28,1.45-3.15,5.3-1s4.61,5.24,4.34,6.25-2.26-.28-4.74-1.13S172.37,34.05,172.41,31.16Z"/><path class="cls-49" d="M180.57,35.27c-1.07-.65-4-1.77-5.83-2.92s-1.26-2.86.17-3.15a2.09,2.09,0,0,0-2.5,2c0,2.89,2.5,3.3,4.9,4.13s4.47,2.14,4.74,1.13a3.55,3.55,0,0,0-.33-2.05C182,35,181.64,35.92,180.57,35.27Z"/><path class="cls-58" d="M178.06,54c-5.29,0-9.6-4.63-9.6-10.33s4.31-10.32,9.6-10.32,9.61,4.63,9.61,10.32S183.36,54,178.06,54Zm0-19.65c-4.74,0-8.6,4.19-8.6,9.32s3.86,9.33,8.6,9.33,8.61-4.19,8.61-9.33S182.81,34.36,178.06,34.36Z"/><circle class="cls-59" cx="152.33" cy="45.61" r="7.43" transform="translate(72.84 183.33) rotate(-76.67)"/><path class="cls-60" d="M149.31,50.12a8.4,8.4,0,0,1-.94-10.31l-.26-.31a7.43,7.43,0,1,0,11,9.15C157,51.44,151.57,52.16,149.31,50.12Z"/><path class="cls-58" d="M145,46.83s.24-5.27,4.47-7c4.77-2,8.88.6,9.72,2.94a2.66,2.66,0,0,0-.47-1.88c-1.22-1.88-4.23-4.2-9-2.61A6.91,6.91,0,0,0,145,46.83Z"/><path class="cls-58" d="M159.76,45.61a7.58,7.58,0,0,0-.31-2.14,3.53,3.53,0,0,0-2.35-2.38,4.26,4.26,0,0,0-4.13.84,6.74,6.74,0,0,0-1.24,8.13,4.71,4.71,0,0,0,2.15,1.69,3.51,3.51,0,0,0,3.65-.84A7.38,7.38,0,0,0,159.76,45.61Z"/><path class="cls-61" d="M153,51.28a4,4,0,0,0,.88.47,3.51,3.51,0,0,0,3.65-.84,7.36,7.36,0,0,0,1.57-2.25A7.86,7.86,0,0,1,153,51.28Z"/><path class="cls-59" d="M158.33,42.28a1.75,1.75,0,0,0-3,1c-.29,2,1,4.1,2.66,4.1,1.07,0,1.57-1,1.42-2.54A3.94,3.94,0,0,0,158.33,42.28Z"/><path class="cls-58" d="M169.32,44.9a1.27,1.27,0,0,0-.43-.79,2.14,2.14,0,0,0-1.47-.43,5.2,5.2,0,0,0-2.77.72,1.38,1.38,0,0,0-.66,1l-.18,1.27a6.24,6.24,0,0,1,3.65-1.15c1.73,0,2.1,1,2.1,1Z"/><path class="cls-61" d="M167.42,43.68a5.2,5.2,0,0,0-2.77.72,1.38,1.38,0,0,0-.66,1l-.18,1.27a6.24,6.24,0,0,1,3.65-1.15c1.73,0,2.1,1,2.1,1-.62-1.91-3.45-1.22-3.57-1.69S166.34,43.78,167.42,43.68Z"/><path class="cls-58" d="M142,42.73l-16.1-2.4.8,4.44,15,.36S142,43.71,142,42.73Z"/><path class="cls-61" d="M141.83,44.6h0l-12.27-1.66a5.57,5.57,0,0,0-.95-2.21l-2.68-.4.8,4.44,15,.36S141.78,44.91,141.83,44.6Z"/><path class="cls-62" d="M166.21,48c-.79.38-1.55,3-.87,5.22a4,4,0,0,0,3.85,2.92c1.84.07,2.83-1,2.78-2.34,0-1.18-1.45-1.2-2.78-2.82S167.7,47.31,166.21,48Z"/><path class="cls-51" d="M168.71,55c-2.37-.43-3.6-3.21-3.51-4.85a6.79,6.79,0,0,0,.14,3.12,4,4,0,0,0,3.85,2.92c1.84.07,2.83-1,2.78-2.34C171.66,54.73,170.66,55.34,168.71,55Z"/><path class="cls-38" d="M171,53.76h-.15a1.26,1.26,0,0,1-.42-.16,1.68,1.68,0,0,1-.74-.93c-.05-.15-.2-.61.12-.53a.5.5,0,0,1,.19.1l.46.35c.27.2.61.32.87.54a.39.39,0,0,1,.16.3.36.36,0,0,1-.24.3A.44.44,0,0,1,171,53.76Z"/><path class="cls-58" d="M153,55.47a11.79,11.79,0,1,1,11.79-11.79A11.79,11.79,0,0,1,153,55.47Zm0-22.58a10.79,10.79,0,1,0,10.79,10.79A10.81,10.81,0,0,0,153,32.89Z"/><path class="cls-63" d="M163,62.66a23.32,23.32,0,0,1-8.36-2.85c-2.48-1.3-4.37-1.5-4.81.42C149.17,63,151.88,70,161,71.41c5.83.87,10.06-.82,12.41-2.73A7.65,7.65,0,0,0,176,65.06c.52-1.67-.13-3.67-4.24-2.88A28.67,28.67,0,0,1,163,62.66Z"/><path class="cls-64" d="M161.73,62.49a26.15,26.15,0,0,1-7.11-2.68c-2.48-1.3-4.37-1.5-4.81.42-.52,2.24,1.17,7.29,6.66,9.85a7.93,7.93,0,0,0,5.27-7.47S161.73,62.53,161.73,62.49Z"/><path class="cls-59" d="M170.22,62.45h0a28.58,28.58,0,0,1-7.24.22,21.82,21.82,0,0,1-7.65-2.49h0a7.73,7.73,0,0,0,.73,2.91c.7,1,4,2.29,5.89,2.56,3.66.53,6.52-.41,6.84-.76A18.26,18.26,0,0,0,170.22,62.45Z"/><path class="cls-60" d="M160.62,63a20.53,20.53,0,0,0,9.31,0l.29-.57h0a28.58,28.58,0,0,1-7.24.22,21.82,21.82,0,0,1-7.65-2.49h0a7.73,7.73,0,0,0,.73,2.91c.48.7,2.21,1.53,3.85,2.06a5.17,5.17,0,0,1-3-2.72C156.77,61.67,157.69,62.24,160.62,63Z"/><path class="cls-65" d="M166.77,71.44c-.79-1.7-5.45-6-14.83-4.86a13.88,13.88,0,0,0,9,4.83A19.39,19.39,0,0,0,166.77,71.44Z"/><path class="cls-66" d="M165.45,71.59s-5.28-.32-7.8-2-1.92-3.18.27-3a22.53,22.53,0,0,0-6,0,13.88,13.88,0,0,0,9,4.83A19.69,19.69,0,0,0,165.45,71.59Z"/><path class="cls-6" d="M162.48,68.38A10.06,10.06,0,0,0,158,67.1c-2.17.22,2.19,2,4.08,2.66C164.5,70.64,164.79,69.58,162.48,68.38Z"/><path class="cls-6" d="M165.32,70.25c-.36-.24-.86-.23-.86.07s.29.57.86.75S165.92,70.64,165.32,70.25Z"/><path class="cls-59" d="M181.43,49.2c1.62-1.77,1.5-7.8-.79-9.58a6.48,6.48,0,1,0,.79,9.58Z"/><path class="cls-60" d="M181.43,49.2a4.76,4.76,0,0,0,.95-2.38C181,49.46,177.78,51,175,49.07c-3.51-2.33-3.06-7.74-1.65-9.82a6.48,6.48,0,1,0,8.12,10Z"/><path class="cls-58" d="M170.37,46.12s-.19-4.85,3.71-6.46a7.48,7.48,0,0,1,6.54.24,2.92,2.92,0,0,1,1.16,1.26,3.15,3.15,0,0,0-1.23-2.3c-1.36-1-3.36-1.61-6.24-.62C168.54,40.22,170.37,46.12,170.37,46.12Z"/><path class="cls-58" d="M180.78,40.81a3.76,3.76,0,0,0-3.51.74,5.87,5.87,0,0,0-1.08,7.09,3.83,3.83,0,0,0,3.91,1.65,3.66,3.66,0,0,0,2.3-2.7,8.06,8.06,0,0,0-.3-5.57A2.23,2.23,0,0,0,180.78,40.81Z"/><path class="cls-61" d="M182.4,47.59a9.31,9.31,0,0,0,.29-1.45,5.6,5.6,0,0,1-5.09,3.77,3.73,3.73,0,0,0,2.5.38A3.66,3.66,0,0,0,182.4,47.59Z"/><path class="cls-59" d="M181.42,41.65a1.54,1.54,0,0,0-2.63.92c-.24,1.71.92,3.59,2.33,3.59.94,0,1.38-.89,1.25-2.23A3.53,3.53,0,0,0,181.42,41.65Z"/><path class="cls-38" d="M125.93,40.33c-2-1.21-6.89-2-10.09,1.09s-3,11.75,2.84,14.65a8.92,8.92,0,0,0,9.94-.9C129.33,49.08,129.36,42.58,125.93,40.33Z"/><path class="cls-45" d="M119.55,50.49a2.86,2.86,0,1,1,2.86,2.86A2.86,2.86,0,0,1,119.55,50.49Z"/><path class="cls-45" d="M122.41,53.35c2.7,0,4.77-3,4.33-6.52-.52-4.18-3.92-4.91-6-4.8a4.27,4.27,0,0,0-4.08,4A3.87,3.87,0,0,1,121.39,44c3.5.93,2.36,6.16,1.2,6.51S122.41,53.35,122.41,53.35Z"/><path class="cls-67" d="M122.21,39.94a6.79,6.79,0,0,0-5.69,1.64c-2,1.73-2.5,4.45-2.17,7,0,.06.16.15.17.07.37-2.71.93-5.46,3.39-7.1A9.82,9.82,0,0,1,122.25,40C122.32,40,122.24,40,122.21,39.94Z"/><path class="cls-39" d="M129.62,56.09a28.57,28.57,0,0,1-.81-2.74,9.89,9.89,0,0,1-3.09,1.88,10.76,10.76,0,0,1-9.39-.95,8,8,0,0,0,2.35,1.79,9,9,0,0,0,8.32.15c3.85,9.79,9.83,13.88,18.71,17.57a33.92,33.92,0,0,0,7.19,2A30.49,30.49,0,0,1,129.62,56.09Z"/><path class="cls-39" d="M159.35,72.61a17.81,17.81,0,0,1-4.73-2s1,2,4.57,2.8c4,.92,6-.36,6-.36A19.85,19.85,0,0,1,159.35,72.61Z"/><path class="cls-68" d="M84.09,138.77c-.06,3.92-1.41,14.45,6.67,22.65s23.64,5,26.76,4.29,5.36-.33,7.16-.37,6-1.1,6.73-4.41c0,0-4.65,2.45-8.08-2.93a19.66,19.66,0,0,1,.28-20.5c3.63-5.58,11.43-6.8,13.55-7.05,0,0-.52-2.54-4-3-1.9-.24-6.79,2-13.5,4C109.62,134.37,96.62,139,84.09,138.77Z"/><path class="cls-69" d="M125.25,130c-3.6,1.55-7.8,7.61-8.76,13.16a27.26,27.26,0,0,1,6.35-10.09c2-2,5.68-3.75,6.09-4.09S127.66,129,125.25,130Z"/><path class="cls-70" d="M117.52,165.71c3.12-.74,5.36-.33,7.16-.37s6-1.1,6.73-4.41a5.89,5.89,0,0,1-6.63-1.16l-1.75.82s-1.24,2.55-4.07-.61c-3.87-4.34-3.12-13.72-3.12-13.72-1.93,11.16,2.89,15.63,2.28,16s-11.29,3.07-18.7-1.54-5.7-18.35-1.66-20.15,8.77-3.3,15.84-7.25h0c-8.94,2.7-19.38,5.69-29.51,5.5-.06,3.92-1.41,14.45,6.67,22.65S114.4,166.44,117.52,165.71Z"/><path class="cls-71" d="M126,132.77a35.82,35.82,0,0,1,9.46-2.11C134.25,129.21,130.43,129.78,126,132.77Z"/><path class="cls-38" d="M137.16,130.45c3-.46,14.67-.93,20.78,2.56,6.4,3.67,7.21,8.46,6.71,13.7s-33.24,14.22-33.24,14.22-1,2.22-4.9,1.43S119.88,158,119,150.74s2.57-15,7-18a14.9,14.9,0,0,1,9.46-2.11Z"/><path class="cls-39" d="M141.23,145.3s-4.24,1-10.58,6.36c-5.19,4.42-8,5.24-9.85.25s-.17-12.81,2.92-17.07a21.61,21.61,0,0,0-4.7,15.9c.86,7.27,3.64,10.84,7.49,11.62s4.9-1.43,4.9-1.43S135.44,149.17,141.23,145.3Z"/><path class="cls-71" d="M131.41,160.93a25.28,25.28,0,0,1-4.9,1.43C130.36,163.15,131.41,160.93,131.41,160.93Z"/><path class="cls-38" d="M164.65,146.71c-.48,6.71-7.56,31.71-9.1,38.16-1.35,5.62-2.19,9-2.19,9-8.62,6.83-17.17,10.4-25.66,10.53,0,0,.42-13.95.42-21.8s.27-14.67,3-22.52c.81-2.39,4.73-11.43,10.15-14.8C148.45,140.81,155.57,145.06,164.65,146.71Z"/><path class="cls-39" d="M141.53,183.09c-6.25.84-7.87,0-9.2-6.72s.29-19.9,2.26-23.56a42.63,42.63,0,0,0-3.51,7.29c-2.69,7.85-3,14.67-3,22.52,0,4.23-.12,10.25-.24,14.89l5.85-.82,19.32-4.89s.46-.39,1.06-1c.37-1.5.85-3.51,1.44-5.94,0-.17.08-.36.13-.55C152.8,182.79,147.22,182.32,141.53,183.09Z"/><path class="cls-39" d="M158.7,149.72a10,10,0,0,1-4.4-2.74c-1.26-1.45-1.79-3.36-2.48-3-1.39.77-.7,6.33,2.16,8.2a6,6,0,0,0,6.17.65C161.15,152.34,162.38,150.73,158.7,149.72Z"/><path class="cls-40" d="M164.65,146.71c.5-5.24-.31-10-6.71-13.7-3.42-2-8.58-2.67-13-2.83,4.86.41,15.36,3.53,17.62,10.4.57,1.74.52,4.64.07,9a250,250,0,0,1-4.36,24.76C160.91,164.46,164.33,151.3,164.65,146.71Z"/><path class="cls-41" d="M153.36,193.89a22.26,22.26,0,0,1,2-5.34c.54-.73.54-2-2.8-2.71s-12.28-.27-18.86,1.89-7.85,4.52-7.49,5.51,1.93,6.94,1.46,11.18C136.17,204.32,144.72,200.69,153.36,193.89Z"/><path class="cls-68" d="M154.8,189.66h0s-6.61-1.5-15.93.87c-9.56,2.44-12,5.25-12,5.25h0c.21,1,.42,2.07.59,3.26,1.17-.93,4.32-2.92,11.36-4.72a39.84,39.84,0,0,1,14.66-1.08A30.67,30.67,0,0,1,154.8,189.66Z"/><path class="cls-34" d="M139.21,202.16a2.67,2.67,0,0,0-2.05,0c-4.06,1.35-5-1.72-5-3.79a20.85,20.85,0,0,0-.9-6.44,2.93,2.93,0,0,1,1.6-3.94c-5.84,2.08-7,4.26-6.63,5.21s1.93,6.94,1.46,11.18A33.58,33.58,0,0,0,139.21,202.16Z"/><path class="cls-68" d="M135.35,201.07c-1.88,1.33-6.2,1.46-7.73-1.17,0,0-.69.41-1.44,2.56s-1.63,7.22,0,9.95a41.57,41.57,0,0,1,9.92-3.56c5.46-1.16,13-5.21,15.55-6.95S165,194,173,197.84c0,0-2.73-4.3-10.1-4.22s-9.55.27-9.55.27-9.74.39-14.28,2.46C136.18,197.68,137.34,199.66,135.35,201.07Z"/><path class="cls-34" d="M151.65,201.9a37,37,0,0,1,6.12-3.22c-.49-2.23-1.24-4.44-2.34-4.89l-1,0h0c-3.09,1.52-3.29,6-3.29,6-1.73.28-7.31,3.72-9.35,4.61-4,1.75-6.24,1.51-7.18.83-1.33-.95-1.24-3.4-1.24-3.4h0c-2.06.42-4.67,0-5.79-1.95,0,0-.69.41-1.44,2.56s-1.63,7.22,0,9.95a41.57,41.57,0,0,1,9.92-3.56C141.56,207.69,149.09,203.64,151.65,201.9Z"/><path class="cls-41" d="M173,197.83c-7.6-3.67-17.64,1.69-20.86,3.75.15-.1-1.14-4.48,2.33-7.75S171,190.81,173,197.83Z"/><path class="cls-43" d="M173,197.83c-3.24-5.92-12.44-3.66-14.87-2.7s-5.6,1.67-5.18.69a10.09,10.09,0,0,0-.81,5.76C155.36,199.52,165.4,194.16,173,197.83Z"/><path class="cls-1" d="M173,197.83a7.73,7.73,0,0,0-5.09-2.57c-2.39-.3-7.67-.4-13.8,3.52a79.27,79.27,0,0,1-12.83,6.81c-4.19,1.83-12.95,2.49-15.6,5.82,0,0-.71,1.17-.51,4.31a6,6,0,0,0,4.22,5.87c2.9,1.16,11.34,1.74,21.85-1.73s17.44-4,21.77-10.18C176.77,204.29,174.39,199.45,173,197.83Z"/><g class="cls-72"><path class="cls-73" d="M176,201.58c-1.8-3.53-7.53-6.45-15.48-3.91-8.12,2.59-9.54,6.07-18.19,9.34s-16.14,2.23-18.4,9.61"/></g><path class="cls-74" d="M167.67,198.42a25.42,25.42,0,0,0-15.64,5.1A40.6,40.6,0,0,1,139,209.79c-4.08,1.17-6.29,1-10.3,2.86-2.29,1-3.49,3-3.12,5.17a5.93,5.93,0,0,0,3.84,3.77c2.9,1.16,11.34,1.74,21.85-1.73s17.44-4,21.77-10.18a10,10,0,0,0,1.83-7.86C174,200.11,172.82,198.54,167.67,198.42Z"/><path class="cls-75" d="M136,221a17.05,17.05,0,0,1-6.07-.79,4.49,4.49,0,0,1-2.94-2.74,3.39,3.39,0,0,1,2.28-3.45,25.07,25.07,0,0,1,6.06-1.83c1.16-.24,2.48-.5,4-1a41.61,41.61,0,0,0,13.52-6.5,24,24,0,0,1,14.21-4.82h.51c4.39.1,5.21,1.28,5.78,2.39a8.58,8.58,0,0,1-1.63,6.51c-3,4.33-7.48,5.61-14.22,7.55-2,.59-4.33,1.25-6.79,2.06A47.27,47.27,0,0,1,136,221Z"/><g class="cls-76"><rect class="cls-77" x="165.03" y="205.96" width="12.61" height="1" transform="translate(-55.75 349.34) rotate(-82.49)"/><rect class="cls-77" x="159.33" y="206.77" width="15.95" height="1" transform="translate(-60.05 346.04) rotate(-82.49)"/><rect class="cls-77" x="154.98" y="207.92" width="16.49" height="1" transform="translate(-64.48 343.44) rotate(-82.6)"/><rect class="cls-77" x="150.6" y="208.8" width="17.23" height="1" transform="translate(-69.65 338.83) rotate(-82.25)"/><rect class="cls-77" x="146.87" y="210.56" width="16.29" height="1" transform="translate(-74.01 338.04) rotate(-82.71)"/><rect class="cls-77" x="143.73" y="212.12" width="14.33" height="1" transform="translate(-79.63 334.41) rotate(-82.48)"/><rect class="cls-77" x="140.43" y="214.1" width="12.6" height="1" transform="translate(-85.21 332.02) rotate(-82.49)"/><rect class="cls-77" x="136.3" y="215.28" width="12.61" height="1" transform="translate(-89.96 328.96) rotate(-82.49)"/><rect class="cls-77" x="133.01" y="216.1" width="11.19" height="1" transform="translate(-94.25 325.71) rotate(-82.49)"/><rect class="cls-77" x="129.63" y="216.52" width="9.96" height="1" transform="translate(-98.14 322.11) rotate(-82.49)"/><rect class="cls-77" x="126.65" y="216.51" width="8" height="1" transform="translate(-101.58 318.16) rotate(-82.48)"/><rect class="cls-77" x="134.97" y="209.7" width="1" height="17.28" transform="translate(-118.42 257.88) rotate(-67.04)"/><rect class="cls-77" x="141.58" y="206.63" width="1" height="19.11" transform="translate(-112.18 263.89) rotate(-67.31)"/><rect class="cls-77" x="149.12" y="204.96" width="1" height="18.4" transform="translate(-106.46 265.87) rotate(-66.48)"/><rect class="cls-77" x="155.34" y="202.11" width="1" height="19.39" transform="translate(-100.06 272.33) rotate(-66.96)"/><rect class="cls-77" x="160.55" y="199.1" width="1" height="19.43" transform="translate(-94.83 272.6) rotate(-66.36)"/><rect class="cls-77" x="164.78" y="196.62" width="1" height="18.25" transform="translate(-88.55 277.98) rotate(-67.11)"/><rect class="cls-77" x="168.77" y="196.11" width="1" height="12.41" transform="translate(-82.92 279.68) rotate(-67.14)"/></g><path class="cls-77" d="M173.41,202.31l-.15-.28a9,9,0,0,1-1.74,5.15c-3,4.33-7.47,5.61-14.22,7.55-2,.59-4.33,1.25-6.79,2.06a47.27,47.27,0,0,1-14.75,2.56h0a17.05,17.05,0,0,1-6.07-.79,4.85,4.85,0,0,1-2.64-2.07,3.14,3.14,0,0,0,0,1A4.49,4.49,0,0,0,130,220.2,17.05,17.05,0,0,0,136,221h0a47.27,47.27,0,0,0,14.75-2.56c2.46-.81,4.76-1.47,6.79-2.06,6.74-1.94,11.2-3.22,14.22-7.55A8.58,8.58,0,0,0,173.41,202.31Z"/><line class="cls-78" x1="171.25" y1="199.91" x2="169.61" y2="212.41"/><line class="cls-78" x1="167.44" y1="199.05" x2="165.36" y2="214.87"/><line class="cls-78" x1="163.4" y1="199.94" x2="161.26" y2="216.29"/><line class="cls-78" x1="159.47" y1="200.46" x2="157.15" y2="217.53"/><line class="cls-78" x1="155.14" y1="202.68" x2="153.08" y2="218.83"/><line class="cls-78" x1="150.93" y1="205.21" x2="149.07" y2="219.41"/><line class="cls-78" x1="146.65" y1="208.05" x2="145.01" y2="220.55"/><line class="cls-78" x1="142.52" y1="209.23" x2="140.88" y2="221.73"/><line class="cls-78" x1="138.43" y1="210.75" x2="136.98" y2="221.85"/><line class="cls-78" x1="134.36" y1="211.78" x2="133.06" y2="221.65"/><line class="cls-78" x1="130.28" y1="212.74" x2="129.24" y2="220.67"/><line class="cls-78" x1="126.61" y1="214.66" x2="142.52" y2="221.41"/><line class="cls-78" x1="132.36" y1="212.2" x2="150" y2="219.57"/><line class="cls-78" x1="140.29" y1="210.19" x2="157.15" y2="217.53"/><line class="cls-78" x1="146.02" y1="207.71" x2="163.86" y2="215.3"/><line class="cls-78" x1="151.25" y1="204.61" x2="169.05" y2="212.41"/><line class="cls-78" x1="155.98" y1="201.89" x2="172.79" y2="208.99"/><line class="cls-78" x1="162.66" y1="199.6" x2="174.09" y2="204.42"/></g></g></g></svg>