<svg xmlns="http://www.w3.org/2000/svg" width="69.848" height="40.239" viewBox="0 0 69.848 40.239">
  <g id="Second_plane" data-name="Second plane" transform="translate(-503.054 -183.77)">
    <g id="Group_74" data-name="Group 74">
      <path id="Path_219" data-name="Path 219" d="M572.9,216.7s-20.106,8.63-38.632,7.134a.985.985,0,0,1-.9-1.007c.025-1.036.045-2.853-.024-4.981C533.181,212.879,572.9,216.7,572.9,216.7Z" fill="#a9cbd3"/>
      <path id="Path_220" data-name="Path 220" d="M533.345,217.847c.043,1.317.051,2.513.046,3.48h0c18.689,2.21,39.511-4.626,39.511-4.626S533.181,212.879,533.345,217.847Z" fill="#8cb8bf"/>
      <path id="Path_221" data-name="Path 221" d="M531.548,197.221s2.582,9.064,1.339,14.41,31.61,7.812,40.015,5.07c0,0-14.333-6.753-22.852-12.938A37.283,37.283,0,0,0,531.548,197.221Z" fill="#cce4ea"/>
      <path id="Path_222" data-name="Path 222" d="M532.887,211.631c-1.243,5.345,31.61,7.812,40.015,5.07-14.789-.745-37.578-11.285-37.578-11.285a33.164,33.164,0,0,0-3.776-8.2S534.13,206.285,532.887,211.631Z" fill="#a9cbd3" opacity="0.5"/>
      <path id="Path_223" data-name="Path 223" d="M523.043,202.17c-.829.39-4.7,2.14-8.885,3.653-6.285,2.273-12.131,2.649-10.951,4.183,1.053,1.368,13.729,8.561,29.6,10.141s34.369-1.423,40.1-3.446a146.679,146.679,0,0,1-26.926-5.107C532.1,207.49,525.422,201.053,523.043,202.17Z" fill="#f7fcfe"/>
      <path id="Path_224" data-name="Path 224" d="M572.9,216.7s-10.032-6.031-16.965-13.656c-9.079-9.985-12.865-18.492-13.727-19.172s-2.993,2.062-6.39,6.471a48.072,48.072,0,0,0-4.272,6.877S558.15,215.623,572.9,216.7Z" fill="#f7fcfe"/>
    </g>
    <path id="Path_225" data-name="Path 225" d="M520.314,204.841c-6.482,3.582-15.264,4.393-12.692,6.259s25.655,11.569,53.7,6.73c0,0-25.52.412-37.831-3.22-14.466-4.267-9.826-5.4-7.977-6.377A17.627,17.627,0,0,0,520.314,204.841Z" fill="#fff"/>
    <path id="Path_226" data-name="Path 226" d="M568.27,215.147s-22.462-9.442-34.592-18.124c0,0,2.446-6.134,6.514-9.928,0,0-2.969,4.622-3.543,7.269-.266,1.227,1.431,3.207,3.91,5.094C546.433,203.932,568.27,215.147,568.27,215.147Z" fill="#fff"/>
  </g>
</svg>
