<svg xmlns="http://www.w3.org/2000/svg" viewBox="0 0 570.92 88.02"><defs><style>.cls-1{isolation:isolate;}.cls-2,.cls-3,.cls-4{fill:#fff;}.cls-2{fill-opacity:0.2;}.cls-3{fill-opacity:0.3;}.cls-10,.cls-5{fill:#ffedb2;}.cls-6{fill:#ffd348;}.cls-7,.cls-9{opacity:0.3;}.cls-7{mix-blend-mode:multiply;}.cls-8,.cls-9{fill:#e85d1c;}.cls-10,.cls-15{opacity:0.15;}.cls-11{fill:#7a60a6;}.cls-12{fill:#6d5298;}.cls-13{fill:#5f4589;}.cls-14{fill:#f298bb;opacity:0.25;}.cls-15{fill:#d6b6d8;}.cls-16{fill:#d7cee7;}.cls-17{fill:#d5e9f9;}.cls-18{fill:#f49639;}.cls-19{fill:#ffe568;}.cls-20{fill:#fcc231;}.cls-21{fill:#ffda60;}</style></defs><g class="cls-1"><g id="Layer_2" data-name="Layer 2"><g id="Objects"><circle class="cls-2" cx="404.24" cy="17.96" r="7.65"/><path class="cls-3" d="M404.24,26.93h0a1.3,1.3,0,0,1-1.29-1.3V10.29A1.3,1.3,0,0,1,404.24,9h0a1.29,1.29,0,0,1,1.29,1.3V25.63A1.29,1.29,0,0,1,404.24,26.93Z"/><path class="cls-3" d="M413.21,18h0a1.3,1.3,0,0,1-1.3,1.29H396.57A1.29,1.29,0,0,1,395.28,18h0a1.28,1.28,0,0,1,1.29-1.29h15.34A1.29,1.29,0,0,1,413.21,18Z"/><path class="cls-4" d="M409.67,18h0a1.3,1.3,0,0,1-1.3,1.29h-8.26a1.3,1.3,0,0,1-1.3-1.29h0a1.29,1.29,0,0,1,1.3-1.29h8.26A1.29,1.29,0,0,1,409.67,18Z"/><path class="cls-4" d="M404.24,23.39h0a1.3,1.3,0,0,1-1.29-1.3V13.83a1.3,1.3,0,0,1,1.29-1.3h0a1.29,1.29,0,0,1,1.29,1.3v8.26A1.29,1.29,0,0,1,404.24,23.39Z"/><circle class="cls-2" cx="56.59" cy="72.8" r="7.65"/><path class="cls-3" d="M56.59,81.76h0a1.29,1.29,0,0,1-1.29-1.29V65.13a1.3,1.3,0,0,1,1.29-1.3h0a1.3,1.3,0,0,1,1.3,1.3V80.47A1.29,1.29,0,0,1,56.59,81.76Z"/><path class="cls-3" d="M65.56,72.8h0a1.29,1.29,0,0,1-1.29,1.29H48.92a1.29,1.29,0,0,1-1.29-1.29h0a1.3,1.3,0,0,1,1.29-1.3H64.27A1.3,1.3,0,0,1,65.56,72.8Z"/><path class="cls-4" d="M62,72.8h0a1.29,1.29,0,0,1-1.29,1.29H52.46a1.29,1.29,0,0,1-1.29-1.29h0a1.3,1.3,0,0,1,1.29-1.3h8.27A1.3,1.3,0,0,1,62,72.8Z"/><path class="cls-4" d="M56.59,78.23h0a1.3,1.3,0,0,1-1.29-1.3V68.66a1.29,1.29,0,0,1,1.29-1.29h0a1.3,1.3,0,0,1,1.3,1.29v8.27A1.3,1.3,0,0,1,56.59,78.23Z"/><path class="cls-5" d="M21.2,6.71a2.07,2.07,0,1,1,2.06,2.07A2.06,2.06,0,0,1,21.2,6.71Z"/><path class="cls-5" d="M105.1,85.69a2.06,2.06,0,1,1,2.06,2.07A2.06,2.06,0,0,1,105.1,85.69Z"/><path class="cls-5" d="M450.58,69.79a2.06,2.06,0,1,1,2.06,2.06A2.06,2.06,0,0,1,450.58,69.79Z"/><path class="cls-5" d="M312.9,9A2.06,2.06,0,1,1,315,11.06,2.06,2.06,0,0,1,312.9,9Z"/><path class="cls-5" d="M304.28,61.94A2.06,2.06,0,1,1,306.34,64,2.07,2.07,0,0,1,304.28,61.94Z"/><path class="cls-5" d="M428.25,4.65a2.07,2.07,0,1,1,2.07,2.06A2.07,2.07,0,0,1,428.25,4.65Z"/><path class="cls-5" d="M196.87,22.76a2.07,2.07,0,1,1,2.06,2.06A2.06,2.06,0,0,1,196.87,22.76Z"/><path class="cls-5" d="M0,47.58a2.07,2.07,0,1,1,2.06,2.06A2.07,2.07,0,0,1,0,47.58Z"/><circle class="cls-6" cx="107.16" cy="29.21" r="29.2"/><g class="cls-7"><path class="cls-8" d="M99.89,12.91c-2.08-2.33-5.48-5.83-8.12-8.52a28.89,28.89,0,0,0-4.43,3.37c4.73,4.32,9.24,8.2,10.53,9.57C99.45,19,103.69,17.16,99.89,12.91Z"/><path class="cls-8" d="M132.64,43.45c-5.94-3.5-17-10.06-21.74-13.09-6.62-4.24-11.66-3.24-13.66-4.91C95.78,24.23,88,16.36,83.49,12.12a29.08,29.08,0,0,0-1.78,2.78c3.62,4,9.43,10.41,10.72,11.72,1.89,1.92,1.14,4.74-1.11,2.73-1.4-1.25-7.47-6-11.85-9.42a29,29,0,0,0-1.35,6.17c6.53,5.88,14.58,11.39,17,11.64,2.73.28,5.79-5,9.14-3.14C106.79,36,121.14,45,128.19,49.46A29.33,29.33,0,0,0,132.64,43.45Z"/><path class="cls-8" d="M114.07,57.58a29.28,29.28,0,0,0,9.87-4.47c-5.69-3.07-14.71-7.85-17.28-8.75-3.85-1.34-3.45,5.39-6.51,5.58-2.69.16-11.89-6.07-21.43-14.1,0,.09,0,.18.07.28A29.19,29.19,0,0,0,114.07,57.58Z"/><path class="cls-8" d="M112.44.49c.23,1.56,1.33,3.22,4.23,5.59,4.53,3.71,8.24,6.1,9.75,7.71S123.75,16,126,18.67c1.4,1.7,6.61,5.09,10.23,7.34a30,30,0,0,0-.65-3.71A29.19,29.19,0,0,0,112.44.49Z"/><path class="cls-8" d="M111.87,17.33C110,14.6,113,11.59,110.73,8.41A102.5,102.5,0,0,0,103.55.23a29.39,29.39,0,0,0-3.3.61,28.37,28.37,0,0,0-3.46,1.08c3.66,4.11,7.82,8.9,8.74,10.65,1.16,2.2-2.4,5.82-.69,7.13,1.43,1.1,22.8,14.94,29.77,19.45a28.86,28.86,0,0,0,1.56-6.6C130.16,29.15,113.43,19.57,111.87,17.33Z"/></g><path class="cls-9" d="M133.17,15.93A29.07,29.07,0,0,0,118.05,2.09c.36.62,7.48,13.16-.12,29.43S90.2,52.16,89.31,52.35a29.22,29.22,0,0,0,43.86-36.42Z"/><path class="cls-9" d="M131,16.44A27.17,27.17,0,0,1,94.22,52.82a28.81,28.81,0,0,0,32.25-41.11,28.69,28.69,0,0,0-2.45-4A27.09,27.09,0,0,1,131,16.44Z"/><path class="cls-10" d="M110.87,3.81c-3.87-1-17.41-.33-24.63,12s-2.53,25.55,3.24,31.6c-1.66-3.27-4.89-15.31.46-26.36S105.89,5.55,110.87,3.81Z"/><path class="cls-5" d="M110.87,3.81S94,2.87,86.72,17.18s1.14,28.54,2.76,30.21c0,0-13.52-13.88-4.44-31.08C93.52.24,110.87,3.81,110.87,3.81Z"/><circle class="cls-11" cx="525.43" cy="59.97" r="26.27" transform="translate(10.43 180.17) rotate(-19.65)"/><path class="cls-12" d="M551,54a26.09,26.09,0,0,0-10.26-15.29c.19.61,3.74,13.07-6.36,25.66S505.79,76.44,505,76.41A26.25,26.25,0,0,0,551,54Z"/><path class="cls-13" d="M549,54A24.4,24.4,0,0,1,509.17,77.9a25.88,25.88,0,0,0,36.89-29,25.39,25.39,0,0,0-1.3-4A24.23,24.23,0,0,1,549,54Z"/><path class="cls-14" d="M502.73,57.48a8.25,8.25,0,1,1,9.92,6.14A8.25,8.25,0,0,1,502.73,57.48Z"/><path class="cls-14" d="M504.6,54.66a4.75,4.75,0,1,1,5.71,3.54A4.74,4.74,0,0,1,504.6,54.66Z"/><path class="cls-14" d="M523.09,47.31A8.25,8.25,0,1,1,533,53.45,8.25,8.25,0,0,1,523.09,47.31Z"/><path class="cls-14" d="M525.51,44a4.44,4.44,0,1,1,5.34,3.3A4.44,4.44,0,0,1,525.51,44Z"/><path class="cls-14" d="M512.94,42.42a4.07,4.07,0,1,1,4.89,3A4.07,4.07,0,0,1,512.94,42.42Z"/><path class="cls-14" d="M513.83,41.41A2.19,2.19,0,1,1,516.46,43,2.19,2.19,0,0,1,513.83,41.41Z"/><path class="cls-15" d="M534.12,38.66C531,37,519,34.68,510.07,43.88a24.33,24.33,0,0,0-3.88,28.28c-.76-3.21-1-14.41,6-22.91S529.4,39.12,534.12,38.66Z"/><path class="cls-16" d="M534.12,38.66S519.6,34.25,510.2,45.2s-5.08,25.15-4,27c0,0-8.85-15,2.73-28.08C519.73,31.86,534.12,38.66,534.12,38.66Z"/><path class="cls-17" d="M570.77,85.87c-1.43,3-13.14.66-29-5.31-6.55-2.47-13.82-5.56-21.36-9.14-7.82-3.71-15-7.53-21.24-11.16-14.28-8.36-23.22-15.76-21.81-18.73s11.67-.94,26,4.21A26.25,26.25,0,0,0,502,48.1c-5.81-1.67-9.66-2.06-10.27-.77s2.4,4.31,7.85,8a180.67,180.67,0,0,0,22.54,12.48,184.59,184.59,0,0,0,23.19,9.35c6.7,2.08,11.22,2.66,11.89,1.25s-2.34-4.25-7.7-7.89a25.17,25.17,0,0,0,1-2.5C563.86,76,572.13,83,570.77,85.87Z"/><path class="cls-18" d="M570.17,86.71c-1.43,3-13.14.66-29-5.31-6.55-2.47-13.82-5.56-21.36-9.14-7.82-3.71-15-7.53-21.24-11.16-14.28-8.36-23.22-15.76-21.81-18.73,1.34-2.82,11.74-.9,26.06,4.24A22.13,22.13,0,0,0,501.56,49c-5.81-1.67-9.83-2.11-10.45-.81s2.4,4.31,7.86,8A181.08,181.08,0,0,0,521.5,68.66,186.56,186.56,0,0,0,544.7,78c6.7,2.08,11.22,2.66,11.89,1.25s-2.19-4.16-7.54-7.79c.36-.82.77-1.6,1.05-2.45C563.51,77,571.53,83.85,570.17,86.71Z"/><path class="cls-19" d="M570.77,85.87c-1.43,3-13.14.66-29-5.31-6.55-2.47-13.82-5.56-21.36-9.14-7.82-3.71-15-7.53-21.24-11.16-14.28-8.36-23.22-15.76-21.81-18.73s11.67-.94,26,4.21A26.25,26.25,0,0,0,502,48.1c-5.81-1.67-9.66-2.06-10.27-.77s2.4,4.31,7.85,8a180.67,180.67,0,0,0,22.54,12.48,184.59,184.59,0,0,0,23.19,9.35c6.7,2.08,11.22,2.66,11.89,1.25s-2.34-4.25-7.7-7.89a25.17,25.17,0,0,0,1-2.5C563.86,76,572.13,83,570.77,85.87Z"/><path class="cls-20" d="M564.59,78.36c2.67,2.59,7,5.63,4.84,7.46s-19.1-1.46-51.35-16.46c0,0,32.74,12.67,41.2,14.16S568.86,83.86,564.59,78.36Z"/><path class="cls-5" d="M492.8,43c-3.57-.73-12.37-2.88-14.05-1.24S487.12,52,490.75,54c0,0-9-7.29-9.42-10.65C481,40.86,492.8,43,492.8,43Z"/><path class="cls-21" d="M501.92,47.1a56.26,56.26,0,0,0-6.9-1.66c-3.33-.53-7.3-1.06-6.89,1.2s3.44,5,9.57,9.3S514.19,66,514.19,66s-15.16-7.62-21-11.68-9.31-8.19-8.5-10c1-2.21,10.21-.72,17.61,2.2Z"/></g></g></g></svg>